<?xml version="1.0" standalone="no"?>
<!DOCTYPE svg PUBLIC "-//W3C//DTD SVG 1.1//EN" "http://www.w3.org/Graphics/SVG/1.1/DTD/svg11.dtd" >
<svg xmlns="http://www.w3.org/2000/svg" xmlns:xlink="http://www.w3.org/1999/xlink" version="1.1">
<metadata>
Created by FontForge 20170731 at Wed Dec 29 17:14:18 2021
 By Aleksey,,,
Copyright 2021 Miryang . All right reserved.
</metadata>
<defs>
<font id="MYArirang_gothic-Light" horiz-adv-x="1020" >
  <font-face 
    font-family="MYArirang_gothic"
    font-weight="300"
    font-stretch="condensed"
    units-per-em="1024"
    panose-1="2 2 6 3 2 1 1 2 1 1"
    ascent="819"
    descent="-205"
    x-height="464"
    cap-height="666"
    bbox="-115 -332 1844 980"
    underline-thickness="10"
    underline-position="-215"
    unicode-range="U+0020-FF5E"
  />
<missing-glyph horiz-adv-x="7" 
 />
    <glyph glyph-name=".notdef" horiz-adv-x="7" 
 />
    <glyph glyph-name=".null" horiz-adv-x="0" 
 />
    <glyph glyph-name="nonmarkingreturn" horiz-adv-x="341" 
 />
    <glyph glyph-name="space" unicode=" " horiz-adv-x="313" 
 />
    <glyph glyph-name="space" unicode="&#xa0;" horiz-adv-x="313" 
 />
    <glyph glyph-name="exclam" unicode="!" horiz-adv-x="300" 
d="M194 106h-80v573h80v-573zM154 -79q-20 0 -34.5 14.5t-14.5 35.5q0 20 14.5 34.5t34.5 14.5q21 0 35.5 -14.5t14.5 -34.5q0 -21 -14.5 -35.5t-35.5 -14.5z" />
    <glyph glyph-name="quotedbl" unicode="&#x22;" horiz-adv-x="354" 
d="M106 528q-24 0 -40 16.5t-16 39.5v99q0 89 79 89h28v-48h-28q-15 0 -23 -7.5t-8 -33.5v-44l8 1q23 0 39 -16.5t16 -39.5t-16 -39.5t-39 -16.5zM248 528q-23 0 -39 16.5t-16 39.5v99q0 89 79 89h28v-48h-28q-15 0 -23 -7.5t-8 -33.5v-44l7 1q23 0 39.5 -16.5t16.5 -39.5
t-16.5 -39.5t-39.5 -16.5z" />
    <glyph glyph-name="numbersign" unicode="#" horiz-adv-x="627" 
d="M376 217l24 167h-142l-24 -167h142zM401 -76h-65l33 237h-142l-33 -237h-64l32 237h-112v56h120l23 167h-111v56h118l33 236h65l-33 -236h142l33 236h64l-32 -236h105v-56h-112l-24 -167h104v-56h-111z" />
    <glyph glyph-name="dollar" unicode="$" horiz-adv-x="520" 
d="M235 381v248h-14q-97 0 -99 -118q0 -44 25 -70.5t88 -59.5zM291 -5q107 6 107 128q0 53 -22.5 83t-84.5 64v-275zM291 -163h-56v85h-178v72h178v306q-85 41 -135 84.5t-50 126.5q0 105 54 147.5t117 42.5h14v61h56v-61h144v-72h-144v-278q84 -40 131.5 -87t47.5 -141
q0 -183 -179 -200v-86z" />
    <glyph glyph-name="percent" unicode="%" horiz-adv-x="956" 
d="M287 -100h-63l447 800h63zM222 342q95 0 100 139q0 134 -100 141q-95 0 -100 -140q0 -134 100 -140zM222 275q-60 0 -116 46t-56 161q0 114 56 160t116 46t116 -46t56 -160q0 -115 -56 -161t-116 -46zM734 -17q95 0 100 140q0 133 -100 140q-95 0 -100 -140
q0 -133 100 -140zM734 -84q-60 0 -116 46t-56 161q0 114 56 160.5t116 46.5t116 -46.5t56 -160.5q0 -115 -56 -161t-116 -46z" />
    <glyph glyph-name="ampersand" unicode="&#x26;" horiz-adv-x="710" 
d="M302 -25q118 0 181 80l-220 235q-66 -37 -96 -74t-37.5 -65.5t-7.5 -37.5q0 -21 7.5 -54t45.5 -58.5t127 -25.5zM278 379q116 56 132 106q8 22 8 49q0 32 -24 59q-28 32 -80 32q-44 0 -86 -22t-42 -78q0 -42 25.5 -75.5t66.5 -70.5zM302 -97q-244 0 -252 210
q0 128 161 231q-31 28 -64 73t-33 108q0 152 200 172q78 0 132 -55q44 -49 44 -110q0 -58 -29.5 -106t-131.5 -102l197 -210q59 134 59 221h72q0 -54 -19 -129t-61 -146l83 -89l-52 -49l-76 80q-79 -99 -230 -99z" />
    <glyph glyph-name="quotesingle" unicode="'" horiz-adv-x="211" 
d="M106 528q-24 0 -40 16.5t-16 39.5v99q0 89 79 89h28v-48h-28q-15 0 -23 -7.5t-8 -33.5v-44l8 1q23 0 39 -16.5t16 -39.5t-16 -39.5t-39 -16.5z" />
    <glyph glyph-name="parenleft" unicode="(" horiz-adv-x="314" 
d="M264 -184h-67q-147 219 -147 483q0 265 148 485h67q-143 -185 -143 -485q0 -299 142 -483z" />
    <glyph glyph-name="parenright" unicode=")" horiz-adv-x="314" 
d="M118 -184h-67q142 184 142 483q0 300 -143 485h67q148 -220 148 -485q0 -264 -147 -483z" />
    <glyph glyph-name="asterisk" unicode="*" horiz-adv-x="503" 
d="M352 110l-100 139l-100 -139l-45 34l96 132l-153 51l18 53l157 -52v162h56v-162l155 52l18 -53l-153 -51l96 -132z" />
    <glyph glyph-name="plus" unicode="+" horiz-adv-x="642" 
d="M357 28h-72v236h-235v72h235v235h72v-235h236v-72h-236v-236z" />
    <glyph glyph-name="comma" unicode="," horiz-adv-x="248" 
d="M124 -205h-75l57 210h92z" />
    <glyph glyph-name="hyphen" unicode="-" horiz-adv-x="399" 
d="M331 264h-264v72h264v-72z" />
    <glyph glyph-name="hyphen" unicode="&#xad;" horiz-adv-x="399" 
d="M331 264h-264v72h264v-72z" />
    <glyph glyph-name="period" unicode="." horiz-adv-x="203" 
d="M102 -102q-22 0 -37 15t-15 37t15 37t37 15q21 0 36 -15t15 -37t-15 -37t-36 -15z" />
    <glyph glyph-name="slash" unicode="/" horiz-adv-x="459" 
d="M114 -124h-64l296 847h64z" />
    <glyph glyph-name="zero" unicode="0" horiz-adv-x="580" 
d="M291 -45q40 0 80.5 20t67 87t30.5 230q-4 163 -30.5 229.5t-67 87.5t-80.5 21q-41 0 -81 -21t-67 -87.5t-31 -229.5q4 -163 31 -230t67 -87t81 -20zM296 -114h-5q-249 0 -249 400q0 413 245 413q252 0 252 -401q0 -412 -243 -412z" />
    <glyph glyph-name="one" unicode="1" horiz-adv-x="580" 
d="M376 -116h-70v711l-122 -105l-42 48l164 141h70v-795z" />
    <glyph glyph-name="two" unicode="2" horiz-adv-x="580" 
d="M518 -103h-454v66q171 187 309 359q63 82 63 158q0 52 -24 85q-45 58 -115 58q-94 -5 -188 -54l-27 60q131 61 214 61q23 0 43 -5q90 -22 125 -82q36 -51 36 -133q0 -88 -78 -191q-121 -152 -270 -316h366v-66z" />
    <glyph glyph-name="three" unicode="3" horiz-adv-x="580" 
d="M223 -117q-108 0 -181 31l24 61q63 -25 164 -25q87 0 153 39q57 38 57 117q0 159 -227 159h-56v66h36q146 0 214 68q33 33 33 91q0 129 -169 129q-93 0 -173 -29l-23 62q89 34 199 34q90 0 157 -44q73 -52 73 -153q0 -132 -121 -187q121 -54 121 -195q0 -114 -86 -174
q-91 -50 -195 -50z" />
    <glyph glyph-name="four" unicode="4" horiz-adv-x="580" 
d="M394 147v433l-282 -433h282zM461 -113h-67v191h-360v69l359 553h68v-553h95v-69h-95v-191z" />
    <glyph glyph-name="five" unicode="5" horiz-adv-x="580" 
d="M258 -106q-97 0 -187 41l26 60q78 -35 167 -35q65 0 117 31q68 47 68 153q0 169 -201 169q-60 0 -153 -18q-2 36 -2 387h392v-66h-328v-243q35 5 85 5q108 0 175 -42q96 -61 96 -192q0 -88 -30 -137q-72 -113 -225 -113z" />
    <glyph glyph-name="six" unicode="6" horiz-adv-x="580" 
d="M296 -47q64 0 121 41.5t57 143.5t-57 143.5t-121 41.5q-63 0 -117 -39q-61 -44 -62 -147q3 -100 58.5 -142t120.5 -42zM295 -113q-109 0 -176.5 69.5t-67.5 181.5v108q0 114 10 191q12 97 71 162q81 93 230 93q68 0 151 -20l-16 -64q-73 18 -134 18q-245 0 -247 -310v0
q69 74 179 74t177.5 -69.5t67.5 -182.5q0 -112 -67.5 -181.5t-177.5 -69.5z" />
    <glyph glyph-name="seven" unicode="7" horiz-adv-x="580" 
d="M226 -117l-67 30l291 696h-385v66h464l-1 -66z" />
    <glyph glyph-name="eight" unicode="8" horiz-adv-x="580" 
d="M294 -49q177 0 177 150q0 70 -61.5 129.5t-115.5 59.5q-55 0 -116 -59.5t-61 -129.5q0 -150 177 -150zM294 369q32 0 87 35q63 45 63 107q0 127 -150 127q-149 0 -149 -127q0 -62 60 -106q56 -36 89 -36zM294 -116q-249 0 -249 220q0 145 162 230q-134 61 -134 176
q0 195 221 195q222 0 222 -193q0 -116 -135 -178q162 -85 162 -230q0 -217 -249 -220z" />
    <glyph glyph-name="nine" unicode="9" horiz-adv-x="580" 
d="M290 284q61 0 115 39t54 135t-54 135t-115 39t-115 -39t-54 -135t54 -135t115 -39zM192 -106q-68 0 -125 17l20 71q48 -15 104 -15q116 0 194 65q67 71 71 240q-64 -60 -166 -60q-108 0 -174 67.5t-66 178.5t66 179t174 68t174 -68t66 -179l1 -85q0 -92 -12 -183
q-16 -144 -88 -213q-117 -83 -239 -83z" />
    <glyph glyph-name="colon" unicode=":" horiz-adv-x="300" 
d="M156 415q-24 0 -40 16.5t-16 39.5t16 39.5t40 16.5q23 0 39 -16.5t16 -39.5t-16 -39.5t-39 -16.5zM156 4q-24 0 -40 16.5t-16 39.5t16 39t40 16q23 0 39 -16t16 -39t-16 -39.5t-39 -16.5z" />
    <glyph glyph-name="semicolon" unicode=";" horiz-adv-x="250" 
d="M144 533q-23 0 -39.5 16.5t-16.5 39.5t16.5 39.5t39.5 16.5t39.5 -16.5t16.5 -39.5t-16.5 -39.5t-39.5 -16.5zM124 -44h-75l57 210h92z" />
    <glyph glyph-name="semicolon" unicode="&#x37e;" horiz-adv-x="250" 
d="M144 533q-23 0 -39.5 16.5t-16.5 39.5t16.5 39.5t39.5 16.5t39.5 -16.5t16.5 -39.5t-16.5 -39.5t-39.5 -16.5zM124 -44h-75l57 210h92z" />
    <glyph glyph-name="less" unicode="&#x3c;" horiz-adv-x="580" 
d="M484 -152l-434 452l434 452l46 -44l-391 -408l391 -408z" />
    <glyph glyph-name="equal" unicode="=" horiz-adv-x="648" 
d="M598 372h-548v72h548v-72zM598 156h-548v72h548v-72z" />
    <glyph glyph-name="greater" unicode="&#x3e;" horiz-adv-x="580" 
d="M97 -152l-46 44l391 408l-391 408l46 44l434 -452z" />
    <glyph glyph-name="question" unicode="?" horiz-adv-x="480" 
d="M208 -98q-22 0 -37 15t-15 37t15 37t37 15q21 0 36 -15t15 -37t-15 -37t-36 -15zM235 95h-72l-1 40q0 23 4 46q8 48 85 131q40 44 70.5 84.5t30.5 95.5q0 40 -31 78q-38 41 -101 41q-70 0 -146 -28l-25 68q101 33 169 33q28 0 51 -6q76 -19 108 -62q47 -60 47 -123
q0 -75 -42 -136q-35 -47 -79 -93q-29 -34 -46 -56.5t-20 -38.5t-3 -35z" />
    <glyph glyph-name="at" unicode="@" horiz-adv-x="811" 
d="M345 117q96 0 144 151q10 34 10 60q0 73 -84 73q-95 0 -143 -151q-7 -27 -7 -49q0 -33 17 -56q23 -28 63 -28zM407 -86q-159 0 -257 96.5t-98 253.5t98 253.5t257 96.5q125 0 231 -72.5t121 -226.5q0 -76 -44.5 -142.5t-118.5 -100.5q-26 -10 -48 -10q-53 0 -77 44
q-55 -54 -126 -54q-72 0 -116 54q-29 39 -29 95q0 31 9 67q66 198 206 198q89 0 128 -59l17 46l61 -23q-97 -266 -97 -280q0 -23 25 -23q9 0 21 4q55 26 89.5 76t34.5 103q-13 124 -99.5 181.5t-187.5 57.5q-132 0 -211 -78t-79 -207q0 -130 79 -207.5t211 -77.5
q167 0 259 117l54 -37q-113 -145 -313 -145z" />
    <glyph glyph-name="A" unicode="A" horiz-adv-x="789" 
d="M558 169l-160 420l-164 -420h324zM744 -119h-82l-81 228h-371l-83 -228h-82l302 788h102z" />
    <glyph glyph-name="B" unicode="B" horiz-adv-x="536" 
d="M281 -53q72 0 104 48t32 98q0 55 -38 98q-41 61 -113 66l-147 1v-311h162zM264 322q57 5 91 50.5t34 96.5q0 45 -30 89t-93 44h-147v-280h145zM281 -116h-234v781h219q96 0 145.5 -62t49.5 -134q0 -79 -53 -154q-11 -12 -27 -23q33 -18 53 -52q55 -63 55 -147
q0 -77 -53 -143t-155 -66z" />
    <glyph glyph-name="C" unicode="C" horiz-adv-x="654" 
d="M423 -77q-163 0 -269 102.5t-106 268.5q0 167 106 269.5t269 102.5q100 0 184 -43l-33 -62q-67 36 -151 36q-135 0 -220 -82.5t-85 -220.5q0 -137 85 -219.5t220 -82.5q84 0 151 36l33 -62q-84 -43 -184 -43z" />
    <glyph glyph-name="D" unicode="D" horiz-adv-x="658" 
d="M264 -58q261 0 273 338q0 152 -73 241t-200 89h-145v-668h145zM264 -121h-217v796h217q165 0 260 -112q87 -114 87 -283q0 -184 -85 -288q-97 -113 -262 -113z" />
    <glyph glyph-name="E" unicode="E" horiz-adv-x="529" 
d="M481 -85h-433v749h420v-64h-348v-267h334v-64h-334v-290h361v-64z" />
    <glyph glyph-name="F" unicode="F" horiz-adv-x="482" 
d="M122 -85h-72v749h382v-64h-310v-267h296v-64h-296v-354z" />
    <glyph glyph-name="G" unicode="G" horiz-adv-x="702" 
d="M425 -83q-162 0 -267.5 107t-105.5 268q0 150 105.5 257t267.5 107q100 0 183 -43l-32 -62q-67 36 -151 36q-134 0 -219 -86.5t-85 -208.5q0 -133 85 -219.5t219 -86.5q81 0 155 27v244h-209v62h278v-349q-100 -53 -224 -53z" />
    <glyph glyph-name="H" unicode="H" horiz-adv-x="631" 
d="M581 -85h-72v351h-387v-351h-72v749h72v-334h387v334h72v-749z" />
    <glyph glyph-name="I" unicode="I" horiz-adv-x="300" 
d="M189 -85h-74v751h74v-751z" />
    <glyph glyph-name="J" unicode="J" horiz-adv-x="401" 
d="M60 -91v72q121 0 158 36q20 22 20 78v576h72v-577q0 -27 -5 -57q-19 -128 -245 -128z" />
    <glyph glyph-name="K" unicode="K" horiz-adv-x="603" 
d="M545 -82h-93l-330 308v-308h-70v745h70v-308l297 308h88l-354 -373z" />
    <glyph glyph-name="L" unicode="L" horiz-adv-x="475" 
d="M426 -85h-376v750h72v-686h304v-64z" />
    <glyph glyph-name="M" unicode="M" horiz-adv-x="873" 
d="M823 -84h-72v656l-280 -656h-69l-280 656v-656h-72v749h101l285 -668l286 668h101v-749z" />
    <glyph glyph-name="N" unicode="N" horiz-adv-x="658" 
d="M605 -81h-80l-409 680v-680h-63v743h94l395 -656v656h63v-743z" />
    <glyph glyph-name="O" unicode="O" horiz-adv-x="761" 
d="M380 -39q129 0 194 90.5t65 238.5q0 147 -65 238t-194 91q-128 0 -193 -91t-65 -238q0 -148 65 -238.5t193 -90.5zM380 -102q-61 0 -138.5 27t-134.5 110.5t-57 254.5q0 170 57 254t134.5 110.5t138.5 26.5q62 0 139.5 -26.5t134.5 -110.5t57 -254q0 -171 -57 -254.5
t-134.5 -110.5t-139.5 -27z" />
    <glyph glyph-name="P" unicode="P" horiz-adv-x="543" 
d="M278 314q76 0 109 50t33 107q0 44 -30 92.5t-93 48.5h-175v-298h156zM122 -114h-72v789h247q96 0 145.5 -66t49.5 -138q0 -109 -62 -165t-152 -56h-156v-364z" />
    <glyph glyph-name="Q" unicode="Q" horiz-adv-x="745" 
d="M372 -12q125 0 188 88t63 231t-63 231t-188 88q-124 0 -187 -88t-63 -231t63 -231t187 -88zM673 -133h-80l-76 90q-81 -30 -145 -30q-59 0 -134 26t-130.5 107t-55.5 247t55.5 247t130.5 107t134 26q60 0 135 -26t130.5 -107t55.5 -247q0 -229 -121 -318z" />
    <glyph glyph-name="R" unicode="R" horiz-adv-x="599" 
d="M278 304q76 0 109 49.5t33 106.5q0 45 -30 93.5t-93 48.5h-175v-298h156zM548 -85h-80l-164 326q-13 -1 -182 -1v-325h-72v750h247q96 0 145.5 -66.5t49.5 -138.5q0 -153 -116 -201z" />
    <glyph glyph-name="S" unicode="S" horiz-adv-x="520" 
d="M269 -120h-212v72h212q129 0 129 130q0 71 -30.5 108t-120 80.5t-143.5 88t-54 140.5q0 95 54.5 137.5t116.5 42.5h214v-72h-214q-97 0 -99 -108q0 -61 35.5 -90.5t124.5 -73t138.5 -96t49.5 -148.5q0 -204 -201 -211z" />
    <glyph glyph-name="T" unicode="T" horiz-adv-x="622" 
d="M348 -86h-74v681h-225v66h524v-66h-225v-681z" />
    <glyph glyph-name="U" unicode="U" horiz-adv-x="610" 
d="M312 -123q-51 0 -110.5 18t-106.5 73.5t-47 168.5v536h72v-536q0 -61 33 -128.5t159 -67.5q178 0 178 196v536h72v-536q0 -113 -46 -168q-77 -92 -204 -92z" />
    <glyph glyph-name="V" unicode="V" horiz-adv-x="745" 
d="M409 -87h-73l-286 755h76l247 -669l246 669h76z" />
    <glyph glyph-name="W" unicode="W" horiz-adv-x="1081" 
d="M809 -87h-73l-195 665l-196 -665h-73l-222 755h78l181 -644l181 644h102l181 -644l181 644h77z" />
    <glyph glyph-name="X" unicode="X" horiz-adv-x="743" 
d="M693 -87h-77l-244 346l-245 -346h-77l284 400l-252 355h77l213 -301l212 301h77l-251 -355z" />
    <glyph glyph-name="Y" unicode="Y" horiz-adv-x="727" 
d="M400 -85h-72v326l-278 424h77l237 -361l237 361h77l-278 -424v-326z" />
    <glyph glyph-name="Z" unicode="Z" horiz-adv-x="590" 
d="M540 -86h-490v65l390 623h-380v64h466l-1 -64l-390 -624h405v-64z" />
    <glyph glyph-name="bracketleft" unicode="[" horiz-adv-x="279" 
d="M229 -185h-179v970h179v-56h-107v-858h107v-56z" />
    <glyph glyph-name="backslash" unicode="\" horiz-adv-x="967" 
d="M668 70l60 263h-124zM521 389l-37 150l-38 -150h75zM300 70l64 263h-125zM703 -54h-69l-98 387h-104l-98 -387h-69l-94 387h-121v56h108l-65 265h71l62 -265h152l65 265h82l65 -265h151l62 265h71l-64 -265h108v-56h-122z" />
    <glyph glyph-name="bracketright" unicode="]" horiz-adv-x="279" 
d="M229 -185h-179v56h107v858h-107v56h179v-970z" />
    <glyph glyph-name="asciicircum" unicode="^" horiz-adv-x="632" 
d="M583 469h-71l-190 375l-200 -375h-71l246 461h52z" />
    <glyph glyph-name="underscore" unicode="_" horiz-adv-x="639" 
d="M589 -78h-539v56h539v-56z" />
    <glyph glyph-name="grave" unicode="`" horiz-adv-x="288" 
d="M238 622h-74l-114 157h90z" />
    <glyph glyph-name="a" unicode="a" horiz-adv-x="541" 
d="M236 -101q-84 0 -130.5 46.5t-46.5 114.5q0 71 49 117q92 73 287 73h7v46q0 68 -44.5 93.5t-81.5 25.5q-100 0 -169 -69v75q80 51 169 51q70 0 134 -37t64 -139v-381h-72v50q-54 -66 -166 -66zM243 -43q65 0 105 36.5t54 88.5v110h-8q-164 0 -232 -55q-31 -29 -31 -79
q0 -19 8 -42.5t32 -41t72 -17.5z" />
    <glyph glyph-name="b" unicode="b" horiz-adv-x="595" 
d="M304 -92q-142 0 -183 90v-82h-67v808h67v-328q41 90 183 90q232 0 232 -289t-232 -289zM304 -33q170 0 170 230t-170 230q-174 0 -174 -230t174 -230z" />
    <glyph glyph-name="c" unicode="c" horiz-adv-x="541" 
d="M343 -125q-123 0 -203 82t-80 228t80 228t203 82q76 0 138 -33l-34 -64q-46 25 -104 25q-93 0 -152 -61t-59 -177t59 -177t152 -61q58 0 104 25l34 -64q-62 -33 -138 -33z" />
    <glyph glyph-name="d" unicode="d" horiz-adv-x="595" 
d="M287 -92q-233 0 -233 289q1 289 233 289q141 0 182 -90v328h67v-808h-67v82q-41 -90 -182 -90zM286 -33q174 0 174 230t-174 230q-170 0 -170 -230t170 -230z" />
    <glyph glyph-name="e" unicode="e" horiz-adv-x="608" 
d="M305 -114q-247 0 -247 307q0 287 247 287q246 0 247 -287l-1 -19h-416q0 -228 169 -228q100 0 209 74l34 -51q-102 -83 -242 -83zM472 238q-1 182 -168 182t-167 -182h335z" />
    <glyph glyph-name="f" unicode="f" horiz-adv-x="437" 
d="M242 -85h-72v488h-110v64h110v77q0 197 183 197l24 -1v-72q-80 0 -107.5 -25t-27.5 -99v-77h122v-64h-122v-488z" />
    <glyph glyph-name="g" unicode="g" horiz-adv-x="595" 
d="M292 -311q-139 0 -203 75l42 57q17 -21 51 -42t110 -21q174 6 174 163v63q-54 -79 -171 -79q-225 0 -225 275q0 274 227 274q116 0 169 -78v68h71v-523q-17 -232 -245 -232zM295 -37q165 0 165 217q0 216 -165 216q-164 0 -164 -216q1 -217 164 -217z" />
    <glyph glyph-name="h" unicode="h" horiz-adv-x="561" 
d="M501 -85h-72v360q0 135 -141 139q-54 0 -105 -42.5t-51 -192.5v-264h-72v809h72v-305q56 59 156 59q206 0 213 -203v-360z" />
    <glyph glyph-name="i" unicode="i" horiz-adv-x="320" 
d="M196 -85h-72v550h72v-550zM160 612q-20 0 -34 14t-14 34t14 34t34 14t34 -14t14 -34t-14 -34t-34 -14z" />
    <glyph glyph-name="j" unicode="j" horiz-adv-x="371" 
d="M70 -238v72q56 0 79 11t27.5 29.5t4.5 590.5h72v-550q0 -23 -8 -60q-19 -93 -175 -93zM217 612q-20 0 -34 14t-14 34t14 34t34 14t34 -14t14 -34t-14 -34t-34 -14z" />
    <glyph glyph-name="k" unicode="k" horiz-adv-x="548" 
d="M488 -85h-109l-247 219v-219h-72v809h72v-510l243 254h100l-280 -293z" />
    <glyph glyph-name="l" unicode="l" horiz-adv-x="271" 
d="M179 -85h-72v809h72v-809z" />
    <glyph glyph-name="m" unicode="m" horiz-adv-x="856" 
d="M796 -85h-64v360q0 135 -118 135q-57 0 -101 -39t-49 -179v-277h-64v360q0 135 -122 135q-59 0 -106 -39t-47 -192h-1v-264h-64v553h64v-54q52 60 145 60q126 0 172 -91q51 91 164 91q185 0 191 -199v-360z" />
    <glyph glyph-name="n" unicode="n" horiz-adv-x="557" 
d="M497 -85h-72v360q0 131 -131 131q-61 0 -111.5 -38t-50.5 -189v-264h-72v553h72v-48q56 58 154 58q204 0 211 -203v-360z" />
    <glyph glyph-name="o" unicode="o" horiz-adv-x="632" 
d="M316 -69q183 0 184 244q0 243 -184 244q-183 0 -184 -244q0 -243 184 -244zM316 -133q-244 0 -256 308q0 294 256 308q244 0 256 -308q0 -294 -256 -308z" />
    <glyph glyph-name="p" unicode="p" horiz-adv-x="595" 
d="M121 -332h-67v808h67v-82q41 90 183 90q232 0 232 -289t-232 -289q-142 0 -183 90v-328zM304 -35q170 0 170 230t-170 230q-174 0 -174 -230t174 -230z" />
    <glyph glyph-name="q" unicode="q" horiz-adv-x="595" 
d="M536 -332h-67v328q-41 -90 -182 -90q-232 0 -233 289q0 289 233 289q141 0 182 -90v82h67v-808zM286 -35q174 0 174 230t-174 230q-170 0 -170 -230t170 -230z" />
    <glyph glyph-name="r" unicode="r" horiz-adv-x="394" 
d="M132 -86h-72v554h72v-56q66 66 202 66v-72q-111 0 -156.5 -51t-45.5 -176v-265z" />
    <glyph glyph-name="s" unicode="s" horiz-adv-x="478" 
d="M246 -85h-174v72h174q66 0 83 25.5t17 54.5q0 38 -22 58.5t-97 52.5t-121 65.5t-46 99.5q0 133 147 146h176v-72h-176q-75 0 -75 -74q0 -29 25.5 -47.5t100.5 -50.5t117.5 -67.5t42.5 -110.5q0 -145 -172 -152z" />
    <glyph glyph-name="t" unicode="t" horiz-adv-x="448" 
d="M333 -85q-96 0 -133 36q-30 30 -30 81v378h-110v64h110v154h72v-154h124v-64h-124q0 -389 2 -397q7 -25 93 -25h51v-72z" />
    <glyph glyph-name="u" unicode="u" horiz-adv-x="557" 
d="M271 -89q-204 0 -211 203v360h72v-360q0 -131 129 -131q62 0 113 38t51 189v264h72v-553h-72v48q-56 -58 -154 -58z" />
    <glyph glyph-name="v" unicode="v" horiz-adv-x="581" 
d="M327 -85h-73l-194 554h74l157 -461l156 461h74z" />
    <glyph glyph-name="w" unicode="w" horiz-adv-x="920" 
d="M689 -84h-72l-157 468l-159 -468h-72l-169 548h72l135 -452l147 452h91l147 -452l134 452h72z" />
    <glyph glyph-name="x" unicode="x" horiz-adv-x="585" 
d="M526 -85h-77l-155 230l-156 -230h-77l195 287l-180 265h77l141 -208l141 208h76l-179 -265z" />
    <glyph glyph-name="y" unicode="y" horiz-adv-x="564" 
d="M79 -233v72q54 0 79.5 4.5t34.5 11.5t13.5 19t36.5 98l-182 503h76l143 -403l149 403h76l-232 -629q-23 -53 -73 -66t-121 -13z" />
    <glyph glyph-name="z" unicode="z" horiz-adv-x="533" 
d="M473 -85h-413v64l322 424h-307v64h397v-64l-322 -424h323v-64z" />
    <glyph glyph-name="braceleft" unicode="{" horiz-adv-x="359" 
d="M309 -182h-77q-11 0 -34 5.5t-42 31.5t-19 87v245q0 21 -16 48t-61 33l-10 -1v65q52 0 71 32q16 27 16 48v245q0 124 95 124h77v-64h-77q-18 0 -22 -36q-1 -14 -1 -269q0 -66 -54 -112q54 -47 54 -113q0 -254 1 -268q4 -37 22 -37h77v-64z" />
    <glyph glyph-name="bar" unicode="|" horiz-adv-x="172" 
d="M122 -160h-72v920h72v-920z" />
    <glyph glyph-name="braceright" unicode="}" horiz-adv-x="359" 
d="M127 -182h-77v64h77q18 0 22 37q1 14 1 268q0 66 54 113q-54 46 -54 112q0 255 -1 269q-4 36 -22 36h-77v64h77q11 0 33 -5q62 -14 62 -119v-245q0 -21 16 -48q19 -32 71 -32v-65l-10 1q-45 -6 -61 -33t-16 -48v-245q0 -124 -95 -124z" />
    <glyph glyph-name="asciitilde" unicode="~" horiz-adv-x="617" 
d="M425 219q-63 0 -145 44q-56 28 -91 28q-48 0 -91 -65l-49 43q38 58 95 85q20 9 45 9q49 0 122 -36.5t115 -36.5q53 0 91 61l50 -42q-60 -90 -142 -90z" />
    <glyph glyph-name="section" unicode="&#xa7;" horiz-adv-x="130" 
 />
    <glyph glyph-name="ordfeminine" unicode="&#xaa;" horiz-adv-x="130" 
 />
    <glyph glyph-name="registered" unicode="&#xae;" horiz-adv-x="130" 
 />
    <glyph glyph-name="uni00B2" unicode="&#xb2;" horiz-adv-x="130" 
 />
    <glyph glyph-name="uni00B3" unicode="&#xb3;" horiz-adv-x="130" 
 />
    <glyph glyph-name="paragraph" unicode="&#xb6;" horiz-adv-x="130" 
 />
    <glyph glyph-name="periodcentered" unicode="&#xb7;" horiz-adv-x="401" 
d="M202 248q-22 0 -37 15t-15 37t15 37t37 15q21 0 36 -15t15 -37t-15 -37t-36 -15z" />
    <glyph glyph-name="uni00B9" unicode="&#xb9;" horiz-adv-x="130" 
 />
    <glyph glyph-name="ordmasculine" unicode="&#xba;" horiz-adv-x="130" 
 />
    <glyph glyph-name="onequarter" unicode="&#xbc;" horiz-adv-x="130" 
 />
    <glyph glyph-name="onehalf" unicode="&#xbd;" horiz-adv-x="130" 
 />
    <glyph glyph-name="threequarters" unicode="&#xbe;" horiz-adv-x="130" 
 />
    <glyph glyph-name="Adieresis" unicode="&#xc4;" horiz-adv-x="130" 
 />
    <glyph glyph-name="Odieresis" unicode="&#xd6;" horiz-adv-x="130" 
 />
    <glyph glyph-name="Udieresis" unicode="&#xdc;" horiz-adv-x="130" 
 />
    <glyph glyph-name="adieresis" unicode="&#xe4;" horiz-adv-x="130" 
 />
    <glyph glyph-name="odieresis" unicode="&#xf6;" horiz-adv-x="130" 
 />
    <glyph glyph-name="udieresis" unicode="&#xfc;" horiz-adv-x="130" 
 />
    <glyph glyph-name="uni02BC" unicode="&#x2bc;" horiz-adv-x="211" 
d="M81 528h-28v48h28q15 0 23 7.5t8 33.5v44l-7 -1q-24 0 -40 16.5t-16 39.5t16 39.5t40 16.5q23 0 39 -16.5t16 -39.5v-99q0 -89 -79 -89z" />
    <glyph glyph-name="hungarumlaut" unicode="&#x2dd;" horiz-adv-x="354" 
d="M224 528h-28v48h28q15 0 23 7.5t8 33.5v44l-8 -1q-23 0 -39 16.5t-16 39.5t16 39.5t39 16.5t39.5 -16.5t16.5 -39.5v-99q0 -89 -79 -89zM81 528h-28v48h28q15 0 23 7.5t8 33.5v44l-7 -1q-24 0 -40 16.5t-16 39.5t16 39.5t40 16.5q23 0 39 -16.5t16 -39.5v-99
q0 -89 -79 -89z" />
    <glyph glyph-name="uni0401" unicode="&#x401;" horiz-adv-x="130" 
 />
    <glyph glyph-name="uni0402" unicode="&#x402;" horiz-adv-x="130" 
 />
    <glyph glyph-name="uni0403" unicode="&#x403;" horiz-adv-x="130" 
 />
    <glyph glyph-name="uni0404" unicode="&#x404;" horiz-adv-x="130" 
 />
    <glyph glyph-name="uni0405" unicode="&#x405;" horiz-adv-x="130" 
 />
    <glyph glyph-name="uni0406" unicode="&#x406;" horiz-adv-x="130" 
 />
    <glyph glyph-name="uni0407" unicode="&#x407;" horiz-adv-x="130" 
 />
    <glyph glyph-name="uni0408" unicode="&#x408;" horiz-adv-x="130" 
 />
    <glyph glyph-name="uni0409" unicode="&#x409;" horiz-adv-x="130" 
 />
    <glyph glyph-name="uni040A" unicode="&#x40a;" horiz-adv-x="130" 
 />
    <glyph glyph-name="uni040B" unicode="&#x40b;" horiz-adv-x="130" 
 />
    <glyph glyph-name="uni040C" unicode="&#x40c;" horiz-adv-x="130" 
 />
    <glyph glyph-name="uni040E" unicode="&#x40e;" horiz-adv-x="130" 
 />
    <glyph glyph-name="uni040F" unicode="&#x40f;" horiz-adv-x="130" 
 />
    <glyph glyph-name="uni0410" unicode="&#x410;" horiz-adv-x="130" 
 />
    <glyph glyph-name="uni0411" unicode="&#x411;" horiz-adv-x="130" 
 />
    <glyph glyph-name="uni0412" unicode="&#x412;" horiz-adv-x="130" 
 />
    <glyph glyph-name="uni0413" unicode="&#x413;" horiz-adv-x="130" 
 />
    <glyph glyph-name="uni0414" unicode="&#x414;" horiz-adv-x="130" 
 />
    <glyph glyph-name="uni0415" unicode="&#x415;" horiz-adv-x="130" 
 />
    <glyph glyph-name="uni0416" unicode="&#x416;" horiz-adv-x="130" 
 />
    <glyph glyph-name="uni0417" unicode="&#x417;" horiz-adv-x="130" 
 />
    <glyph glyph-name="uni0418" unicode="&#x418;" horiz-adv-x="130" 
 />
    <glyph glyph-name="uni0419" unicode="&#x419;" horiz-adv-x="130" 
 />
    <glyph glyph-name="uni041A" unicode="&#x41a;" horiz-adv-x="130" 
 />
    <glyph glyph-name="uni041B" unicode="&#x41b;" horiz-adv-x="130" 
 />
    <glyph glyph-name="uni041C" unicode="&#x41c;" horiz-adv-x="130" 
 />
    <glyph glyph-name="uni041D" unicode="&#x41d;" horiz-adv-x="130" 
 />
    <glyph glyph-name="uni041E" unicode="&#x41e;" horiz-adv-x="130" 
 />
    <glyph glyph-name="uni041F" unicode="&#x41f;" horiz-adv-x="130" 
 />
    <glyph glyph-name="uni0420" unicode="&#x420;" horiz-adv-x="130" 
 />
    <glyph glyph-name="uni0421" unicode="&#x421;" horiz-adv-x="130" 
 />
    <glyph glyph-name="uni0422" unicode="&#x422;" horiz-adv-x="130" 
 />
    <glyph glyph-name="uni0423" unicode="&#x423;" horiz-adv-x="130" 
 />
    <glyph glyph-name="uni0424" unicode="&#x424;" horiz-adv-x="130" 
 />
    <glyph glyph-name="uni0425" unicode="&#x425;" horiz-adv-x="130" 
 />
    <glyph glyph-name="uni0426" unicode="&#x426;" horiz-adv-x="130" 
 />
    <glyph glyph-name="uni0427" unicode="&#x427;" horiz-adv-x="130" 
 />
    <glyph glyph-name="uni0428" unicode="&#x428;" horiz-adv-x="130" 
 />
    <glyph glyph-name="uni0429" unicode="&#x429;" horiz-adv-x="130" 
 />
    <glyph glyph-name="uni0430" unicode="&#x430;" horiz-adv-x="130" 
 />
    <glyph glyph-name="uni0431" unicode="&#x431;" horiz-adv-x="130" 
 />
    <glyph glyph-name="uni0432" unicode="&#x432;" horiz-adv-x="130" 
 />
    <glyph glyph-name="uni0433" unicode="&#x433;" horiz-adv-x="130" 
 />
    <glyph glyph-name="uni0434" unicode="&#x434;" horiz-adv-x="130" 
 />
    <glyph glyph-name="uni0435" unicode="&#x435;" horiz-adv-x="130" 
 />
    <glyph glyph-name="uni0436" unicode="&#x436;" horiz-adv-x="130" 
 />
    <glyph glyph-name="uni0437" unicode="&#x437;" horiz-adv-x="130" 
 />
    <glyph glyph-name="uni0438" unicode="&#x438;" horiz-adv-x="130" 
 />
    <glyph glyph-name="uni0439" unicode="&#x439;" horiz-adv-x="130" 
 />
    <glyph glyph-name="uni0440" unicode="&#x440;" horiz-adv-x="130" 
 />
    <glyph glyph-name="uni0441" unicode="&#x441;" horiz-adv-x="130" 
 />
    <glyph glyph-name="uni0442" unicode="&#x442;" horiz-adv-x="130" 
 />
    <glyph glyph-name="uni0443" unicode="&#x443;" horiz-adv-x="130" 
 />
    <glyph glyph-name="uni0444" unicode="&#x444;" horiz-adv-x="130" 
 />
    <glyph glyph-name="uni0445" unicode="&#x445;" horiz-adv-x="130" 
 />
    <glyph glyph-name="uni0446" unicode="&#x446;" horiz-adv-x="130" 
 />
    <glyph glyph-name="uni0447" unicode="&#x447;" horiz-adv-x="130" 
 />
    <glyph glyph-name="uni0448" unicode="&#x448;" horiz-adv-x="130" 
 />
    <glyph glyph-name="uni0449" unicode="&#x449;" horiz-adv-x="130" 
 />
    <glyph glyph-name="uni044A" unicode="&#x44a;" horiz-adv-x="130" 
 />
    <glyph glyph-name="uni044B" unicode="&#x44b;" horiz-adv-x="130" 
 />
    <glyph glyph-name="uni044C" unicode="&#x44c;" horiz-adv-x="130" 
 />
    <glyph glyph-name="uni044D" unicode="&#x44d;" horiz-adv-x="130" 
 />
    <glyph glyph-name="uni044E" unicode="&#x44e;" horiz-adv-x="130" 
 />
    <glyph glyph-name="uni044F" unicode="&#x44f;" horiz-adv-x="130" 
 />
    <glyph glyph-name="uni2010" unicode="&#x2010;" horiz-adv-x="365" 
d="M314 264h-264v72h264v-72z" />
    <glyph glyph-name="quoteleft" unicode="&#x2018;" horiz-adv-x="211" 
d="M106 528q-24 0 -40 16.5t-16 39.5v99q0 89 79 89h28v-48h-28q-15 0 -23 -7.5t-8 -33.5v-44l8 1q23 0 39 -16.5t16 -39.5t-16 -39.5t-39 -16.5z" />
    <glyph glyph-name="quoteright" unicode="&#x2019;" horiz-adv-x="211" 
d="M81 528h-28v48h28q15 0 23 7.5t8 33.5v44l-7 -1q-24 0 -40 16.5t-16 39.5t16 39.5t40 16.5q23 0 39 -16.5t16 -39.5v-99q0 -89 -79 -89z" />
    <glyph glyph-name="quotereversed" unicode="&#x201b;" horiz-adv-x="211" 
d="M157 528h-28q-79 0 -79 89v99q0 23 16 39.5t40 16.5q23 0 39 -16.5t16 -39.5t-16 -39.5t-39 -16.5l-8 1v-44q0 -26 8 -33.5t23 -7.5h28v-48z" />
    <glyph glyph-name="quotedblleft" unicode="&#x201c;" horiz-adv-x="354" 
d="M106 528q-24 0 -40 16.5t-16 39.5v99q0 89 79 89h28v-48h-28q-15 0 -23 -7.5t-8 -33.5v-44l8 1q23 0 39 -16.5t16 -39.5t-16 -39.5t-39 -16.5zM248 528q-23 0 -39 16.5t-16 39.5v99q0 89 79 89h28v-48h-28q-15 0 -23 -7.5t-8 -33.5v-44l7 1q23 0 39.5 -16.5t16.5 -39.5
t-16.5 -39.5t-39.5 -16.5z" />
    <glyph glyph-name="quotedblright" unicode="&#x201d;" horiz-adv-x="354" 
d="M224 528h-28v48h28q15 0 23 7.5t8 33.5v44l-8 -1q-23 0 -39 16.5t-16 39.5t16 39.5t39 16.5t39.5 -16.5t16.5 -39.5v-99q0 -89 -79 -89zM81 528h-28v48h28q15 0 23 7.5t8 33.5v44l-7 -1q-24 0 -40 16.5t-16 39.5t16 39.5t40 16.5q23 0 39 -16.5t16 -39.5v-99
q0 -89 -79 -89z" />
    <glyph glyph-name="uni201F" unicode="&#x201f;" horiz-adv-x="354" 
d="M157 528h-28q-79 0 -79 89v99q0 23 16 39.5t40 16.5q23 0 39 -16.5t16 -39.5t-16 -39.5t-39 -16.5l-8 1v-44q0 -26 8 -33.5t23 -7.5h28v-48zM300 528h-28q-79 0 -79 89v99q0 23 16 39.5t39 16.5t39.5 -16.5t16.5 -39.5t-16.5 -39.5t-39.5 -16.5l-7 1v-44q0 -26 8 -33.5
t23 -7.5h28v-48z" />
    <glyph glyph-name="dagger" unicode="&#x2020;" horiz-adv-x="130" 
 />
    <glyph glyph-name="daggerdbl" unicode="&#x2021;" horiz-adv-x="130" 
 />
    <glyph glyph-name="bullet" unicode="&#x2022;" horiz-adv-x="401" 
d="M202 248q-22 0 -37 15t-15 37t15 37t37 15q21 0 36 -15t15 -37t-15 -37t-36 -15z" />
    <glyph glyph-name="guilsinglleft" unicode="&#x2039;" horiz-adv-x="580" 
d="M484 -152l-434 452l434 452l46 -44l-391 -408l391 -408z" />
    <glyph glyph-name="guilsinglright" unicode="&#x203a;" horiz-adv-x="580" 
d="M96 -152l-46 44l391 408l-391 408l46 44l434 -452z" />
    <glyph glyph-name="uni203B" unicode="&#x203b;" horiz-adv-x="789" 
d="M98 -34l-36 37l296 297l-297 296l36 36l298 -296l296 297l36 -36l-296 -297l297 -296l-36 -36l-297 296zM395 506q-30 0 -50.5 20.5t-20.5 49.5q0 30 20.5 50.5t50.5 20.5q29 0 49.5 -20.5t20.5 -50.5q0 -29 -20.5 -49.5t-49.5 -20.5zM395 -47q-30 0 -50.5 20.5
t-20.5 50.5q0 29 20.5 49.5t50.5 20.5q29 0 49.5 -20.5t20.5 -49.5q0 -30 -20.5 -50.5t-49.5 -20.5zM671 230q-29 0 -49.5 20.5t-20.5 49.5t20.5 49.5t49.5 20.5t49.5 -20.5t20.5 -49.5t-20.5 -49.5t-49.5 -20.5zM118 230q-29 0 -49.5 20.5t-20.5 49.5t20.5 49.5t49.5 20.5
q30 0 50.5 -20.5t20.5 -49.5t-20.5 -49.5t-50.5 -20.5z" />
    <glyph glyph-name="uni2074" unicode="&#x2074;" horiz-adv-x="130" 
 />
    <glyph glyph-name="uni207F" unicode="&#x207f;" horiz-adv-x="130" 
 />
    <glyph glyph-name="uni2081" unicode="&#x2081;" horiz-adv-x="130" 
 />
    <glyph glyph-name="uni2082" unicode="&#x2082;" horiz-adv-x="130" 
 />
    <glyph glyph-name="uni2083" unicode="&#x2083;" horiz-adv-x="130" 
 />
    <glyph glyph-name="uni2084" unicode="&#x2084;" horiz-adv-x="130" 
 />
    <glyph glyph-name="uni2116" unicode="&#x2116;" horiz-adv-x="130" 
 />
    <glyph glyph-name="uni2121" unicode="&#x2121;" horiz-adv-x="130" 
 />
    <glyph glyph-name="trademark" unicode="&#x2122;" horiz-adv-x="130" 
 />
    <glyph glyph-name="onethird" unicode="&#x2153;" horiz-adv-x="747" 
d="M136 5h-91l568 591h89zM240 337h-63v318l-48 -42l-39 45l87 75v7q8 1 15 7l6 -6h42v-404zM530 -144q-60 0 -95 15l-14 5l23 55l13 -3q25 -12 73 -12q94 0 94 61q0 25 -13 39q-23 22 -92 22h-35v60h31q109 3 109 62q0 47 -72 47q-47 0 -92 -19l-22 57q67 22 113 22
q57 0 91 -23q41 -29 41 -86q0 -65 -43 -88q43 -25 43 -92q0 -63 -49 -96q-41 -26 -104 -26z" />
    <glyph glyph-name="twothirds" unicode="&#x2154;" horiz-adv-x="748" 
d="M306 337h-254v40l-5 3q4 7 5 11.5t7 4.5q178 178 178 235q0 20 -9 32q-16 22 -48 22q-35 0 -86 -25l-12 -5l-26 53l12 7q65 30 113 30q61 0 96 -47q20 -27 20 -70q0 -49 -42 -102q-75 -88 -113 -130h164v-59zM136 5h-91l569 591h89zM531 -144q-61 0 -95 15l-14 5l22 54
l14 -3q24 -12 73 -12q94 0 94 61q0 25 -13 40q-25 22 -93 22h-34v59q140 0 140 62q0 48 -72 48q-47 0 -93 -19l-21 57q62 21 113 21q57 0 90 -22q42 -29 42 -86q0 -65 -44 -88q43 -25 44 -93q0 -63 -49 -95q-39 -26 -104 -26z" />
    <glyph glyph-name="oneeighth" unicode="&#x215b;" horiz-adv-x="747" 
d="M136 7h-91l568 590h89zM240 339h-63v317l-48 -41l-39 45l87 75v6q8 1 15 7l6 -6h42v-403zM559 -82q77 0 77 57q0 20 -27 38t-50 26q-23 -8 -50 -26t-27 -38q0 -57 77 -57zM559 106q18 7 40.5 22t22.5 31q0 47 -63 47t-63 -47q0 -16 23 -31t40 -22zM559 -146
q-132 0 -140 121q0 63 66 98q-53 30 -53 86q0 104 127 111q119 0 127 -111q0 -56 -53 -86q67 -35 67 -98q0 -113 -141 -121z" />
    <glyph glyph-name="threeeighths" unicode="&#x215c;" horiz-adv-x="747" 
d="M174 337q-54 0 -108 22l22 55q41 -17 86 -17q93 0 93 62q0 25 -12 39q-26 22 -93 22h-35v59h31q110 3 110 62q-1 48 -73 48q-39 0 -92 -19l-20 56q54 22 112 22q57 0 91 -22q41 -30 41 -84q0 -64 -44 -91q44 -22 44 -95q0 -60 -48 -93q-42 -26 -105 -26zM136 5h-91
l568 590h89zM559 -84q77 0 77 57q0 20 -27 38t-50 26q-23 -8 -50 -26t-27 -38q0 -57 77 -57zM559 104q18 7 40.5 22t22.5 31q0 47 -63 47t-63 -47q0 -16 23 -31t40 -22zM559 -148q-132 0 -140 121q0 63 66 98q-53 30 -53 86q0 104 127 111q119 0 127 -111q0 -56 -53 -86
q67 -35 67 -98q0 -114 -141 -121z" />
    <glyph glyph-name="fiveeighths" unicode="&#x215d;" horiz-adv-x="748" 
d="M136 8h-91l568 590h89zM559 -81q77 0 77 57q0 20 -27 38t-50 26q-23 -8 -50 -26t-27 -38q0 -57 77 -57zM559 107q18 7 40.5 22t22.5 31q0 47 -63 47t-63 -47q0 -16 23 -31t40 -22zM559 -145q-132 0 -140 120q0 64 66 99q-53 30 -53 86q0 104 127 110q119 0 127 -110
q0 -56 -53 -86q67 -35 67 -98q0 -114 -141 -121zM188 335q-52 1 -112 27l25 55q47 -22 87 -22q81 0 81 75q0 68 -89 68q-34 0 -88 -17v223h223v-59h-164v-89q8 2 29 2q57 0 94 -22q55 -35 55 -106q0 -47 -18 -74q-40 -61 -123 -61z" />
    <glyph glyph-name="seveneighths" unicode="&#x215e;" horiz-adv-x="747" 
d="M190 329l-59 25l142 331h-184v60h258v-60h-5zM136 8h-91l568 590h89zM559 -81q77 0 77 57q0 20 -27 38t-50 26q-23 -8 -50 -26t-27 -38q0 -57 77 -57zM559 107q18 7 40.5 22t22.5 31q0 47 -63 47t-63 -47q0 -16 23 -31t40 -22zM559 -145q-132 0 -140 120q0 64 66 99
q-53 30 -53 86q0 104 127 110q119 0 127 -110q0 -56 -53 -86q67 -35 67 -98q0 -114 -141 -121z" />
    <glyph glyph-name="arrowleft" unicode="&#x2190;" horiz-adv-x="1108" 
d="M283 85l-236 215l236 215l-89 -192h867v-51h-865z" />
    <glyph glyph-name="arrowup" unicode="&#x2191;" horiz-adv-x="514" 
d="M280 -260h-51v974l-187 -87l215 236l215 -236l-192 89v-976z" />
    <glyph glyph-name="arrowright" unicode="&#x2192;" horiz-adv-x="1108" 
d="M826 85l88 192h-866v51h864l-86 187l236 -215z" />
    <glyph glyph-name="arrowdown" unicode="&#x2193;" horiz-adv-x="515" 
d="M257 -264l-215 236l192 -88v975h51v-973l187 86z" />
    <glyph glyph-name="arrowboth" unicode="&#x2194;" horiz-adv-x="1116" 
d="M833 85l89 192h-728l89 -192l-236 215l236 215l-87 -187h724l-87 187l236 -215z" />
    <glyph glyph-name="arrowupdn" unicode="&#x2195;" horiz-adv-x="514" 
d="M257 -260l-215 236l192 -89v826l-192 -89l215 236l215 -236l-187 87v-822l187 87z" />
    <glyph glyph-name="uni2196" unicode="&#x2196;" horiz-adv-x="1089" 
d="M1004 -248l-871 962l-71 -189l-14 319l319 -14l-203 -75l878 -968z" />
    <glyph glyph-name="uni2197" unicode="&#x2197;" horiz-adv-x="1089" 
d="M85 -248l-38 35l878 968l-203 75l319 14l-14 -319l-71 189z" />
    <glyph glyph-name="uni2198" unicode="&#x2198;" horiz-adv-x="1089" 
d="M1041 -244l-319 14l203 75l-878 968l38 34l871 -962l71 190z" />
    <glyph glyph-name="uni2199" unicode="&#x2199;" horiz-adv-x="1089" 
d="M48 -244l14 319l71 -190l871 962l38 -35l-878 -967l203 -75z" />
    <glyph glyph-name="similar" unicode="&#x223c;" horiz-adv-x="617" 
d="M426 219q-63 0 -145 44q-56 28 -91 28q-48 0 -91 -65l-49 43q38 58 95 85q20 9 45 9q49 0 122 -36.5t115 -36.5q53 0 91 61l50 -42q-60 -90 -142 -90z" />
    <glyph glyph-name="uni2299" unicode="&#x2299;" horiz-adv-x="130" 
 />
    <glyph glyph-name="uni2460" unicode="&#x2460;" horiz-adv-x="1045" 
d="M573 21h-68v479l-82 -70l-41 47l124 106q0 4 67 4v-566zM523 -127q176 0 301 125t125 302q0 176 -125 301t-301 125q-179 0 -303 -125.5t-124 -300.5q0 -177 125 -302t302 -125zM523 -175q-197 0 -336 139t-139 336q0 196 139 335t336 139q196 0 335 -139t139 -335
q0 -198 -140 -336.5t-334 -138.5z" />
    <glyph glyph-name="uni2461" unicode="&#x2461;" horiz-adv-x="1045" 
d="M702 20h-347v58q125 131 227 254q44 57 44 103q0 37 -16 59q-29 37 -75 37q-62 0 -143 -41l-27 58q104 47 166 47q19 0 34 -4q69 -16 97 -62q27 -36 27 -97q0 -64 -57 -139q-101 -119 -186 -210h256v-63zM523 -127q176 0 301 125t125 302q0 176 -125 301t-301 125
q-179 0 -303 -125.5t-124 -300.5q0 -177 125 -302t302 -125zM523 -175q-197 0 -336 139t-139 336q0 196 139 335t336 139q196 0 335 -139t139 -335q0 -198 -140 -336.5t-334 -138.5z" />
    <glyph glyph-name="uni2462" unicode="&#x2462;" horiz-adv-x="1045" 
d="M489 18q-82 0 -143 25l23 59q54 -22 123 -22q146 0 146 104q0 100 -153 100h-52v63q69 0 113 9q92 20 92 92q0 84 -117 84q-64 0 -129 -24l-22 60q75 26 154 26q68 0 120 -31q57 -39 57 -113q0 -97 -76 -132q12 -4 34 -27q42 -42 42 -110q0 -82 -66 -127
q-70 -36 -146 -36zM523 -127q176 0 301 125t125 302q0 176 -125 301t-301 125q-179 0 -303 -125.5t-124 -300.5q0 -177 125 -302t302 -125zM523 -175q-197 0 -336 139t-139 336q0 196 139 335t336 139q196 0 335 -139t139 -335q0 -198 -140 -336.5t-334 -138.5z" />
    <glyph glyph-name="uni2463" unicode="&#x2463;" horiz-adv-x="1045" 
d="M557 213v260l-183 -260h183zM626 21h-69v130h-263v57l263 374v6h69v-375h81v-62h-81v-130zM523 -127q176 0 301 125t125 302q0 176 -125 301t-301 125q-179 0 -303 -125.5t-124 -300.5q0 -177 125 -302t302 -125zM523 -175q-197 0 -336 139t-139 336q0 196 139 335
t336 139q196 0 335 -139t139 -335q0 -198 -140 -336.5t-334 -138.5z" />
    <glyph glyph-name="uni2464" unicode="&#x2464;" horiz-adv-x="1045" 
d="M513 11q-73 0 -148 34l26 57q64 -29 124 -29q46 0 83 23q46 29 46 101q0 111 -133 111q-59 0 -87 -8l-40 -10v296h302v-63h-239v-155q15 3 45 3q21 0 45 -2q61 -4 112 -40q57 -46 57 -132q0 -66 -23 -102q-56 -84 -170 -84zM523 -127q176 0 301 125t125 302
q0 176 -125 301t-301 125q-179 0 -303 -125.5t-124 -300.5q0 -177 125 -302t302 -125zM523 -175q-197 0 -336 139t-139 336q0 196 139 335t336 139q196 0 335 -139t139 -335q0 -198 -140 -336.5t-334 -138.5z" />
    <glyph glyph-name="uni2465" unicode="&#x2465;" horiz-adv-x="1045" 
d="M517 80q44 0 82 27t38 94t-38 94t-82 27q-41 0 -79.5 -27t-39.5 -95q2 -66 39 -93t80 -27zM517 17q-81 0 -131.5 51t-50.5 144q0 144 7 199q10 71 53 118q60 67 169 67q50 0 118 -17l-15 -59q-59 13 -102 13q-167 0 -171 -189q41 41 123 41t132 -51t50 -133t-50 -133
t-132 -51zM523 -127q176 0 301 125t125 302q0 176 -125 301t-301 125q-179 0 -303 -125.5t-124 -300.5q0 -177 125 -302t302 -125zM523 -175q-197 0 -336 139t-139 336q0 196 139 335t336 139q196 0 335 -139t139 -335q0 -198 -140 -336.5t-334 -138.5z" />
    <glyph glyph-name="uni2466" unicode="&#x2466;" horiz-adv-x="1045" 
d="M496 -14l-63 27l210 491h-276v63h354l-1 -56zM523 -127q176 0 301 125t125 302q0 176 -125 301t-301 125q-179 0 -303 -125.5t-124 -300.5q0 -177 125 -302t302 -125zM523 -175q-197 0 -336 139t-139 336q0 196 139 335t336 139q196 0 335 -139t139 -335
q0 -198 -140 -336.5t-334 -138.5z" />
    <glyph glyph-name="uni2467" unicode="&#x2467;" horiz-adv-x="1045" 
d="M523 73q124 0 124 95q0 38 -45.5 67t-78.5 40q-34 -11 -79.5 -40t-45.5 -67q0 -95 125 -95zM523 347q27 10 65.5 35t38.5 56q0 81 -104 81q-105 0 -105 -81q0 -31 38.5 -56t66.5 -35zM523 4q-182 0 -194 164q0 92 108 144q-88 45 -88 126q0 141 173 149q163 0 174 -149
q0 -81 -88 -126q108 -52 108 -144q0 -154 -193 -164zM523 -127q176 0 301 125t125 302q0 176 -125 301t-301 125q-179 0 -303 -125.5t-124 -300.5q0 -177 125 -302t302 -125zM523 -175q-197 0 -336 139t-139 336q0 196 139 335t336 139q196 0 335 -139t139 -335
q0 -198 -140 -336.5t-334 -138.5z" />
    <glyph glyph-name="uni2468" unicode="&#x2468;" horiz-adv-x="1045" 
d="M529 291q43 0 80 26t37 91t-37 90.5t-80 25.5q-42 0 -79 -25.5t-37 -90.5t37 -91t79 -26zM457 13q-52 0 -101 16l18 64q41 -11 80 -11q86 0 140 43q47 50 50 130q-37 -32 -115 -32q-82 0 -133.5 50.5t-51.5 134.5q0 82 51.5 133.5t133.5 51.5q84 0 134.5 -51.5
t50.5 -133.5l1 -62q0 -65 -9 -132q-11 -88 -68 -141q-88 -60 -181 -60zM523 -127q176 0 301 125t125 302q0 176 -125 301t-301 125q-179 0 -303 -125.5t-124 -300.5q0 -177 125 -302t302 -125zM523 -175q-197 0 -336 139t-139 336q0 196 139 335t336 139q196 0 335 -139
t139 -335q0 -198 -140 -336.5t-334 -138.5z" />
    <glyph glyph-name="uni2469" unicode="&#x2469;" horiz-adv-x="1045" 
d="M632 67q24 0 48.5 14t41.5 63t17 153t-17 153t-41.5 63t-48.5 14t-48.5 -14t-41.5 -63t-17 -153t17 -153t41.5 -63t48.5 -14zM635 3q-173 0 -173 291q0 297 167 297q173 0 173 -291q0 -297 -167 -297zM400 12h-69v480l-81 -71l-41 48l128 110h63v-567zM523 -127
q176 0 301 125t125 302q0 176 -125 301t-301 125q-179 0 -303 -125.5t-124 -300.5q0 -177 125 -302t302 -125zM523 -175q-197 0 -336 139t-139 336q0 196 139 335t336 139q196 0 335 -139t139 -335q0 -198 -140 -336.5t-334 -138.5z" />
    <glyph glyph-name="uni246A" unicode="&#x246a;" horiz-adv-x="1045" 
d="M421 16h-68v479l-82 -70l-41 47l123 106q2 4 68 4v-566zM707 22h-69v480l-81 -71l-41 48l128 110h63v-567zM523 -127q176 0 301 125t125 302q0 176 -125 301t-301 125q-179 0 -303 -125.5t-124 -300.5q0 -177 125 -302t302 -125zM523 -175q-197 0 -336 139t-139 336
q0 196 139 335t336 139q196 0 335 -139t139 -335q0 -198 -140 -336.5t-334 -138.5z" />
    <glyph glyph-name="uni246B" unicode="&#x246b;" horiz-adv-x="1045" 
d="M792 24h-326v55q131 150 212 256q41 58 41 105q0 37 -15 59q-26 36 -68 36q-55 0 -129 -40l-28 56q92 46 153 46q49 0 78 -19q71 -45 71 -137q0 -70 -53 -144q-98 -128 -171 -210h235v-63zM408 18h-68v479l-82 -70l-41 47l127 110h64v-566zM523 -126q176 0 301 125
t125 301q0 177 -125 302t-301 125q-179 0 -303 -125.5t-124 -301.5t125 -301t302 -125zM523 -174q-197 0 -336 139t-139 335q0 197 139 336t336 139q196 0 335 -139t139 -336q0 -198 -140 -336t-334 -138z" />
    <glyph glyph-name="uni246C" unicode="&#x246c;" horiz-adv-x="1045" 
d="M595 11q-71 0 -131 26l25 58q48 -21 109 -21q51 0 90 22q39 25 39 78q0 47 -23 72q-37 32 -118 32h-42v63q63 0 100 8q83 20 83 96q0 81 -102 81q-58 0 -116 -24l-23 58q68 28 138 28q61 0 108 -27q57 -38 57 -117q0 -98 -69 -132q69 -30 69 -136q0 -90 -68 -133
q-60 -32 -126 -32zM405 16h-69v480l-81 -71l-41 48l128 110h63v-567zM523 -126q176 0 301 125t125 301q0 177 -125 302t-301 125q-179 0 -303 -125.5t-124 -301.5t125 -301t302 -125zM523 -174q-197 0 -336 139t-139 335q0 197 139 336t336 139q196 0 335 -139t139 -336
q0 -198 -140 -336t-334 -138z" />
    <glyph glyph-name="uni246D" unicode="&#x246d;" horiz-adv-x="1045" 
d="M676 213v263l-173 -263h173zM744 17h-68v133h-255v54l255 387v6h68v-384h77v-63h-77v-133zM388 12h-68v480l-82 -71l-41 48l128 110h63v-567zM523 -126q176 0 301 125t125 301q0 177 -125 302t-301 125q-179 0 -303 -125.5t-124 -301.5t125 -301t302 -125zM523 -174
q-197 0 -336 139t-139 335q0 197 139 336t336 139q196 0 335 -139t139 -336q0 -198 -140 -336t-334 -138z" />
    <glyph glyph-name="uni246E" unicode="&#x246e;" horiz-adv-x="1045" 
d="M617 -5q-69 0 -140 33l27 58q58 -29 115 -29q120 0 120 123q0 112 -133 112h-7q-58 -4 -63 -8l-41 -11v296h286v-63h-224v-155q15 3 46 3l37 -1q56 -4 103 -37q58 -47 58 -136q0 -68 -24 -104q-53 -81 -160 -81zM401 2h-68v479l-81 -70l-42 48l133 113l3 -4h55v-566z
M523 -126q176 0 301 125t125 301q0 177 -125 302t-301 125q-179 0 -303 -125.5t-124 -301.5t125 -301t302 -125zM523 -174q-197 0 -336 139t-139 335q0 197 139 336t336 139q196 0 335 -139t139 -336q0 -198 -140 -336t-334 -138z" />
    <glyph glyph-name="uni246F" unicode="&#x246f;" horiz-adv-x="1045" 
d="M632 64q41 0 77.5 27.5t36.5 95.5t-36.5 95t-77.5 27q-39 0 -75 -26q-38 -28 -38 -97q2 -67 37 -94.5t76 -27.5zM632 2q-158 0 -176 185q0 157 6 212q10 71 50 118q60 68 165 68q48 0 114 -17l-15 -59q-58 14 -98 14q-159 0 -163 -191q39 40 117 40q159 0 176 -185
q0 -83 -48 -134t-128 -51zM389 9h-69v479l-81 -70l-41 47l127 110h64v-566zM523 -126q176 0 301 125t125 301q0 177 -125 302t-301 125q-179 0 -303 -125.5t-124 -301.5t125 -301t302 -125zM523 -174q-197 0 -336 139t-139 335q0 197 139 336t336 139q196 0 335 -139
t139 -336q0 -198 -140 -336t-334 -138z" />
    <glyph glyph-name="uni2470" unicode="&#x2470;" horiz-adv-x="1045" 
d="M602 -19l-64 26l199 490h-259v63h334v-49l4 -1zM400 -13h-69v480l-81 -71l-41 48l128 110h63v-567zM523 -126q176 0 301 125t125 301q0 177 -125 302t-301 125q-179 0 -303 -125.5t-124 -301.5t125 -301t302 -125zM523 -174q-197 0 -336 139t-139 335q0 197 139 336
t336 139q196 0 335 -139t139 -336q0 -198 -140 -336t-334 -138z" />
    <glyph glyph-name="uni2471" unicode="&#x2471;" horiz-adv-x="1045" 
d="M633 76q116 0 116 95q0 38 -42.5 67t-73.5 40q-31 -11 -73.5 -40t-42.5 -67q0 -95 116 -95zM633 350q26 10 61.5 34.5t35.5 56.5q0 81 -97 81t-97 -81q0 -32 35.5 -56.5t61.5 -34.5zM633 7q-174 0 -185 164q0 92 104 144q-85 46 -85 126q0 140 166 149q155 0 165 -149
q0 -80 -85 -126q104 -52 104 -144q0 -154 -184 -164zM387 9h-69v479l-81 -70l-41 47l127 110h64v-566zM523 -126q176 0 301 125t125 301q0 177 -125 302t-301 125q-179 0 -303 -125.5t-124 -301.5t125 -301t302 -125zM523 -174q-197 0 -336 139t-139 335q0 197 139 336
t336 139q196 0 335 -139t139 -336q0 -198 -140 -336t-334 -138z" />
    <glyph glyph-name="uni2472" unicode="&#x2472;" horiz-adv-x="1045" 
d="M642 274q98 0 107 119q0 110 -108 119q-98 0 -106 -119q0 -110 107 -119zM574 -8q-49 0 -97 16l20 66q39 -13 74 -13q79 0 129 43q44 50 47 131q-34 -30 -105 -30q-158 0 -176 188q0 84 48 136t128 52q158 0 175 -188l1 -63q0 -67 -9 -134q-10 -89 -63 -141
q-69 -63 -172 -63zM401 -8h-68v479l-81 -70l-42 47l124 106q0 4 67 4v-566zM523 -126q176 0 301 125t125 301q0 177 -125 302t-301 125q-179 0 -303 -125.5t-124 -301.5t125 -301t302 -125zM523 -174q-197 0 -336 139t-139 335q0 197 139 336t336 139q196 0 335 -139
t139 -336q0 -198 -140 -336t-334 -138z" />
    <glyph glyph-name="uni2473" unicode="&#x2473;" horiz-adv-x="1045" 
d="M525 26h-312v55q112 130 202 250q39 55 39 102q0 35 -14 57q-25 35 -65 35q-49 0 -121 -40l-30 56q91 46 145 46q50 0 79 -19q69 -45 69 -138q0 -65 -51 -137q-78 -104 -164 -204h223v-63zM698 76q22 0 45 13.5t39.5 61t16.5 149.5t-16.5 149.5t-39.5 61t-45 13.5
q-23 0 -46 -13.5t-39 -61t-16 -149.5t16 -149.5t39 -61t46 -13.5zM700 13q-164 0 -164 283q0 291 159 291q164 0 164 -283q0 -291 -159 -291zM523 -126q176 0 301 125t125 301q0 177 -125 302t-301 125q-179 0 -303 -126t-124 -301q0 -176 125 -301t302 -125zM523 -174
q-197 0 -336 139t-139 335q0 197 139 336t336 139q196 0 335 -139t139 -336q0 -198 -140 -336t-334 -138z" />
    <glyph glyph-name="uni2474" unicode="&#x2474;" horiz-adv-x="1000" 
d="M551 20h-69v480l-81 -71l-42 48l129 110h63v-567zM228 -61h-69q-111 165 -111 361q0 195 112 361h69q-113 -145 -113 -361t112 -361zM841 -61h-70q112 145 112 360q0 216 -112 361h69q112 -165 112 -361q0 -195 -111 -360z" />
    <glyph glyph-name="uni2475" unicode="&#x2475;" horiz-adv-x="999" 
d="M686 20h-347v56q2 5 38 42q91 94 189 214q44 56 44 106q0 34 -16 55q-29 38 -76 38q-63 0 -141 -41l-28 57q105 48 167 48q18 0 33 -4q69 -16 97 -62q26 -35 26 -93q0 -70 -57 -144q-116 -138 -185 -209h256v-63zM228 -61h-69q-111 165 -111 361q0 195 112 361h69
q-113 -145 -113 -361t112 -361zM841 -61h-70q112 145 112 360q0 216 -112 361h69q112 -165 112 -361q0 -195 -111 -360z" />
    <glyph glyph-name="uni2476" unicode="&#x2476;" horiz-adv-x="999" 
d="M475 17q-81 0 -142 26l23 58q52 -21 124 -21q61 0 107 26q38 25 38 74q0 84 -91 99q-37 5 -115 5v63q71 0 115 9q91 19 91 95q-1 81 -114 81q-70 0 -132 -24l-21 60q73 26 154 26q68 0 119 -31q56 -38 56 -113q0 -96 -75 -132q75 -30 75 -136q0 -85 -66 -129
q-69 -36 -146 -36zM228 -61h-69q-111 165 -111 361q0 195 112 361h69q-113 -145 -113 -361t112 -361zM841 -61h-70q112 145 112 360q0 216 -112 361h69q112 -165 112 -361q0 -195 -111 -360z" />
    <glyph glyph-name="uni2477" unicode="&#x2477;" horiz-adv-x="1000" 
d="M547 213v260l-182 -260h182zM616 21h-69v129h-263v58l267 380h65v-375h81v-63h-81v-129zM228 -61h-69q-111 165 -111 361q0 195 112 361h69q-113 -145 -113 -361t112 -361zM841 -61h-70q112 145 112 360q0 216 -112 361h69q112 -165 112 -361q0 -195 -111 -360z" />
    <glyph glyph-name="uni2478" unicode="&#x2478;" horiz-adv-x="1000" 
d="M487 11q-74 0 -147 34l26 57q62 -29 124 -29q45 0 82 22q46 30 46 101q0 112 -133 112q-58 0 -89 -8l-38 -10v295h302v-62h-239v-156q15 3 49 3l40 -1q62 -4 112 -40q59 -46 59 -133q0 -65 -24 -101q-56 -84 -170 -84zM228 -61h-69q-111 165 -111 361q0 195 112 361h69
q-113 -145 -113 -361t112 -361zM841 -61h-70q112 145 112 360q0 216 -112 361h69q112 -165 112 -361q0 -195 -111 -360z" />
    <glyph glyph-name="uni2479" unicode="&#x2479;" horiz-adv-x="1000" 
d="M499 80q44 0 82 27t38 94t-38 94t-82 27q-41 0 -79.5 -27t-39.5 -95q2 -66 39 -93t80 -27zM500 17q-83 0 -133 51t-50 133q1 161 7 210q9 70 52 117q61 68 170 68q50 0 117 -17l-14 -59q-59 13 -102 13q-166 0 -170 -190q40 42 123 42q81 0 131.5 -51t50.5 -133
t-50.5 -133t-131.5 -51zM228 -61h-69q-111 165 -111 361q0 195 112 361h69q-113 -145 -113 -361t112 -361zM841 -61h-70q112 145 112 360q0 216 -112 361h69q112 -165 112 -361q0 -195 -111 -360z" />
    <glyph glyph-name="uni247A" unicode="&#x247a;" horiz-adv-x="999" 
d="M458 -5l-63 28l211 490h-277v63h354v-63h-3zM228 -61h-69q-111 165 -111 361q0 195 112 361h69q-113 -145 -113 -361t112 -361zM841 -61h-70q112 145 112 360q0 216 -112 361h69q112 -165 112 -361q0 -195 -111 -360z" />
    <glyph glyph-name="uni247B" unicode="&#x247b;" horiz-adv-x="999" 
d="M498 72q125 0 125 96q0 38 -46 67t-79 40q-33 -11 -79 -40t-46 -67q0 -96 125 -96zM498 347q27 10 66 34.5t39 56.5q0 81 -105 81t-105 -81q0 -32 39 -56.5t66 -34.5zM498 4q-182 0 -193 164q0 91 108 143q-88 45 -88 127q0 140 173 149q163 0 173 -149q0 -82 -88 -127
q108 -52 108 -143q0 -154 -193 -164zM228 -61h-69q-111 165 -111 361q0 195 112 361h69q-113 -145 -113 -361t112 -361zM841 -61h-70q112 145 112 360q0 216 -112 361h69q112 -165 112 -361q0 -195 -111 -360z" />
    <glyph glyph-name="uni247C" unicode="&#x247c;" horiz-adv-x="999" 
d="M505 291q42 0 79 26t37 91t-37 91t-79 26t-79.5 -26t-37.5 -91t37.5 -91t79.5 -26zM433 13q-52 0 -102 16l18 64q41 -11 80 -11q84 0 141 43q46 50 49 130q-37 -32 -114 -32q-83 0 -134 51t-51 134q0 82 51 133.5t134 51.5t134 -51.5t51 -133.5l1 -59q0 -67 -10 -135
q-11 -88 -67 -141q-89 -60 -181 -60zM228 -60h-69q-111 165 -111 360q0 196 112 361h69q-113 -145 -113 -361q0 -215 112 -360zM841 -61h-70q112 145 112 361t-112 361h69q112 -166 112 -361q0 -196 -111 -361z" />
    <glyph glyph-name="uni247D" unicode="&#x247d;" horiz-adv-x="1000" 
d="M613 71q24 0 48.5 14t41.5 62.5t17 152.5q0 105 -17 153.5t-41.5 62.5t-48.5 14t-48.5 -14t-41.5 -62.5t-17 -153.5q0 -104 17 -152.5t41.5 -62.5t48.5 -14zM616 7q-173 0 -173 290q0 297 167 297q173 0 173 -291q0 -296 -167 -296zM381 16h-69v479l-81 -70l-42 47
l129 110h63v-566zM228 -60h-69q-111 165 -111 360q0 196 112 361h69q-113 -145 -113 -361q0 -215 112 -360zM841 -61h-70q112 145 112 361t-112 361h69q112 -166 112 -361q0 -196 -111 -361z" />
    <glyph glyph-name="uni247E" unicode="&#x247e;" horiz-adv-x="1000" 
d="M414 16h-69v479l-81 -70l-41 47l128 110h63v-566zM699 22h-69v480l-81 -70l-41 47l123 106q2 4 68 4v-567zM228 -60h-69q-111 165 -111 360q0 196 112 361h69q-113 -145 -113 -361q0 -215 112 -360zM841 -61h-70q112 145 112 361t-112 361h69q112 -166 112 -361
q0 -196 -111 -361z" />
    <glyph glyph-name="uni247F" unicode="&#x247f;" horiz-adv-x="999" 
d="M772 24h-325v55q118 134 211 256q41 56 41 105q0 36 -15 59q-26 36 -69 36q-52 0 -127 -41l-29 57q94 46 150 46q52 0 82 -19q70 -46 70 -137q0 -70 -52 -144q-86 -113 -172 -211h235v-62zM389 17h-69v480l-81 -70l-41 47l123 106q0 4 68 4v-567zM228 -60h-69
q-111 165 -111 360q0 196 112 361h69q-113 -145 -113 -361q0 -215 112 -360zM841 -61h-70q112 145 112 361t-112 361h69q112 -166 112 -361q0 -196 -111 -361z" />
    <glyph glyph-name="uni2480" unicode="&#x2480;" horiz-adv-x="1000" 
d="M575 11q-71 0 -131 26l26 58q48 -22 108 -22q51 0 90 23.5t39 80.5q0 101 -141 101h-42v62l33 1q150 0 150 101q0 84 -101 84q-59 0 -116 -24l-24 58q67 28 143 28q57 0 103 -27q58 -40 58 -118q0 -99 -69 -131q8 -3 26 -24q43 -41 43 -112q0 -89 -68 -134
q-60 -31 -127 -31zM385 16h-68v479l-81 -70l-42 48l132 113l4 -4h55v-566zM228 -60h-69q-111 165 -111 360q0 196 112 361h69q-113 -145 -113 -361q0 -215 112 -360zM841 -61h-70q112 145 112 361t-112 361h69q112 -166 112 -361q0 -196 -111 -361z" />
    <glyph glyph-name="uni2481" unicode="&#x2481;" horiz-adv-x="1000" 
d="M646 209v263l-173 -263h173zM715 13h-69v134h-254v53l254 387v7h69v-385h77v-62h-77v-134zM359 12h-68v479l-82 -70l-41 48l128 110h63v-567zM228 -60h-69q-111 165 -111 360q0 196 112 361h69q-113 -145 -113 -361q0 -215 112 -360zM841 -61h-70q112 145 112 361
t-112 361h69q112 -166 112 -361q0 -196 -111 -361z" />
    <glyph glyph-name="uni2482" unicode="&#x2482;" horiz-adv-x="1000" 
d="M590 -6q-70 0 -140 34l27 57q57 -28 116 -28q39 0 72 19q47 29 47 104q0 111 -132 111q-66 -1 -72 -7l-40 -11l-1 296h287v-63h-224v-155q13 3 42 3q18 0 40 -2q56 -3 103 -37q59 -46 59 -135q0 -68 -24 -105q-53 -81 -160 -81zM374 2h-69v479l-81 -70l-41 47l128 110h63
v-566zM228 -60h-69q-111 165 -111 360q0 196 112 361h69q-113 -145 -113 -361q0 -215 112 -360zM841 -61h-70q112 145 112 361t-112 361h69q112 -166 112 -361q0 -196 -111 -361z" />
    <glyph glyph-name="uni2483" unicode="&#x2483;" horiz-adv-x="1000" 
d="M605 62q41 0 77 27.5t36 95.5t-36 95t-77 27q-40 0 -75 -26q-38 -28 -39 -97q2 -67 37.5 -94.5t76.5 -27.5zM605 0q-158 0 -177 185l1 10q0 147 6 202q9 71 49 118q60 68 165 68q48 0 114 -17l-15 -59q-57 14 -98 14q-158 0 -162 -192q38 41 117 41q158 0 176 -185
q0 -83 -48.5 -134t-127.5 -51zM361 8h-68v480l-82 -70l-41 47l123 106q2 4 68 4v-567zM228 -60h-69q-111 165 -111 360q0 196 112 361h69q-113 -145 -113 -361q0 -215 112 -360zM841 -61h-70q112 145 112 361t-112 361h69q112 -166 112 -361q0 -196 -111 -361z" />
    <glyph glyph-name="uni2484" unicode="&#x2484;" horiz-adv-x="999" 
d="M575 -20l-64 26l198 490h-258v63h333v-48l5 -2zM372 -14h-68v480l-82 -70l-41 47l123 106q2 4 68 4v-567zM228 -61h-69q-111 165 -111 361q0 195 112 361h69q-113 -145 -113 -361t112 -361zM841 -61h-70q112 145 112 360q0 216 -112 361h69q112 -165 112 -361
q0 -195 -111 -360z" />
    <glyph glyph-name="uni2485" unicode="&#x2485;" horiz-adv-x="1000" 
d="M607 346q26 10 61.5 34.5t35.5 55.5q0 81 -97 81t-97 -81q0 -31 35.5 -56t61.5 -34zM607 71q116 0 116 95q0 38 -42.5 67t-73.5 40q-31 -11 -73.5 -40t-42.5 -67q0 -95 116 -95zM607 2q-174 0 -185 164q0 92 104 144q-85 46 -85 126q0 141 166 150q155 0 165 -150
q0 -80 -85 -126q104 -52 104 -144q0 -154 -184 -164zM361 4h-69v480l-81 -71l-41 48l128 110h63v-567zM228 -61h-69q-111 165 -111 361q0 195 112 361h69q-113 -145 -113 -361t112 -361zM841 -61h-70q112 145 112 360q0 216 -112 361h69q112 -165 112 -361q0 -195 -111 -360
z" />
    <glyph glyph-name="uni2486" unicode="&#x2486;" horiz-adv-x="1000" 
d="M611 273q99 0 107 119q0 110 -107 119q-99 0 -107 -119q0 -110 107 -119zM543 -9q-49 0 -97 16l20 66q38 -13 74 -13q78 0 130 43q43 50 45 132q-33 -31 -104 -31q-158 0 -176 188q0 84 48.5 136t127.5 52q157 0 176 -188q0 -125 -8 -197q-11 -89 -64 -141
q-67 -63 -172 -63zM371 -9h-69v479l-81 -70l-41 47l127 110h64v-566zM228 -61h-69q-111 165 -111 361q0 195 112 361h69q-113 -145 -113 -361t112 -361zM841 -61h-70q112 145 112 360q0 216 -112 361h69q112 -165 112 -361q0 -195 -111 -360z" />
    <glyph glyph-name="uni2487" unicode="&#x2487;" horiz-adv-x="1000" 
d="M487 30h-293v54q112 141 188 249q37 56 37 99q0 39 -14 62q-20 34 -60 34t-109 -39l-31 54q83 47 140 47q45 0 71 -19q65 -44 65 -138q0 -64 -47 -135q-58 -83 -153 -206h206v-62zM677 79q22 0 45 14t39.5 61.5t16.5 149.5q0 101 -16.5 148.5t-39.5 61.5t-45 14
q-23 0 -46 -14t-39 -61.5t-16 -148.5q0 -102 16 -149.5t39 -61.5t46 -14zM680 17q-165 0 -165 283q0 290 159 290q164 0 164 -279q0 -294 -158 -294zM228 -61h-69q-111 165 -111 361q0 195 112 361h69q-113 -145 -113 -361t112 -361zM841 -61h-70q112 145 112 360
q0 216 -112 361h69q112 -165 112 -361q0 -195 -111 -360z" />
    <glyph glyph-name="uni249C" unicode="&#x249c;" horiz-adv-x="1000" 
d="M228 -61h-69q-111 165 -111 361q0 195 112 361h69q-113 -145 -113 -361t112 -361zM841 -61h-70q112 145 112 360q0 216 -112 361h69q112 -165 112 -361q0 -195 -111 -360zM594 149v139h-125q-26 -3 -43.5 -22t-17.5 -45q0 -65 83 -72h103zM663 84h-172q-138 0 -151 136
q0 56 37 94.5t91 38.5h126v25q0 69 -55 69h-164v69h164q43 0 83.5 -31t40.5 -107v-294z" />
    <glyph glyph-name="uni249D" unicode="&#x249d;" horiz-adv-x="999" 
d="M228 -61h-69q-111 165 -111 361q0 195 112 361h69q-113 -145 -113 -361t112 -361zM841 -61h-70q112 145 112 360q0 216 -112 361h69q112 -165 112 -361q0 -195 -111 -360zM541 64q44 0 64 30.5t25.5 67.5t5.5 54q0 148 -88 148h-137v-300h130zM541 2h-199v606h69v-182
h137q29 0 65.5 -14.5t63.5 -59.5t27 -136q0 -198 -163 -214z" />
    <glyph glyph-name="uni249E" unicode="&#x249e;" horiz-adv-x="1000" 
d="M228 -61h-69q-111 165 -111 361q0 195 112 361h69q-113 -145 -113 -361t112 -361zM841 -61h-70q112 145 112 360q0 216 -112 361h69q112 -165 112 -361q0 -195 -111 -360zM527 83q-93 0 -153.5 62t-60.5 157t60.5 157t153.5 62q58 0 112 -29l-33 -60q-39 21 -79 21
q-65 0 -105.5 -42t-40.5 -109t40.5 -109t105.5 -42q39 0 79 22l33 -61q-54 -29 -112 -29z" />
    <glyph glyph-name="uni249F" unicode="&#x249f;" horiz-adv-x="1000" 
d="M228 -61h-69q-111 165 -111 361q0 195 112 361h69q-113 -145 -113 -361t112 -361zM841 -61h-70q112 145 112 360q0 216 -112 361h69q112 -165 112 -361q0 -195 -111 -360zM605 75v299h-137q-13 0 -33.5 -7.5t-37.5 -37.5t-17 -103q0 -17 5.5 -54t25.5 -67t64 -30h130z
M674 12h-199q-151 0 -163 214q0 91 27 136t63.5 59.5t65.5 14.5h137v182h69v-606z" />
    <glyph glyph-name="uni24A0" unicode="&#x24a0;" horiz-adv-x="1000" 
d="M228 -61h-69q-111 165 -111 361q0 195 112 361h69q-113 -145 -113 -361t112 -361zM841 -61h-70q112 145 112 360q0 216 -112 361h69q112 -165 112 -361q0 -195 -111 -360zM608 341q-6 62 -36.5 84.5t-78.5 22.5q-102 0 -114 -107h229zM493 81q-27 0 -71 13.5t-79 60
t-35 144.5q0 97 35 143.5t79 60t71 13.5q185 0 185 -212v-27q-52 1 -301 1q5 -129 116 -129q59 0 119 26l28 -64q-73 -30 -147 -30z" />
    <glyph glyph-name="uni24A1" unicode="&#x24a1;" horiz-adv-x="1000" 
d="M228 -61h-69q-111 165 -111 361q0 195 112 361h69q-113 -145 -113 -361t112 -361zM841 -61h-70q112 145 112 360q0 216 -112 361h69q112 -165 112 -361q0 -195 -111 -360zM525 1h-69v356h-80v63h80v48q0 151 141 151l26 -1v-68q-64 0 -81 -16.5t-17 -65.5v-48h88v-63h-88
v-356z" />
    <glyph glyph-name="uni24A2" unicode="&#x24a2;" horiz-adv-x="1000" 
d="M228 -61h-69q-111 166 -111 361q0 196 112 361h69q-113 -145 -113 -361t112 -361zM841 -61h-70q112 145 112 360q0 216 -112 362h69q112 -166 112 -362q0 -195 -111 -360zM612 211v277h-130q-43 0 -63.5 -27t-26 -61.5t-5.5 -51.5q0 -137 81 -137h144zM486 18
q-61 0 -142 17l13 68q86 -17 135 -17q22 0 39 3q51 10 63 23q18 16 18 36h-137q-156 0 -156 200q0 187 162 203h200v-403q0 -52 -46 -89q-53 -41 -149 -41z" />
    <glyph glyph-name="uni24A3" unicode="&#x24a3;" horiz-adv-x="1000" 
d="M228 -61h-69q-111 166 -111 361q0 196 112 361h69q-113 -145 -113 -361t112 -361zM841 -61h-70q112 145 112 360q0 216 -112 362h69q112 -166 112 -362q0 -195 -111 -360zM681 -2h-68v270q0 91 -95 93q-36 0 -70.5 -28.5t-34.5 -134.5l-1 -200h-68v605h68v-210
q30 31 106 31q158 0 163 -156v-270z" />
    <glyph glyph-name="uni24A4" unicode="&#x24a4;" horiz-adv-x="1000" 
d="M228 -61h-69q-111 166 -111 361q0 196 112 361h69q-113 -145 -113 -361t112 -361zM841 -61h-70q112 145 112 360q0 216 -112 362h69q112 -166 112 -362q0 -195 -111 -360zM531 -2h-68v416h68v-416zM497 506q-18 0 -30.5 12.5t-12.5 30.5t12.5 30.5t30.5 12.5t30.5 -12.5
t12.5 -30.5t-12.5 -30.5t-30.5 -12.5z" />
    <glyph glyph-name="uni24A5" unicode="&#x24a5;" horiz-adv-x="999" 
d="M228 -53h-69q-111 165 -111 360q0 196 112 361h69q-113 -145 -113 -361q0 -215 112 -360zM841 -54h-70q112 145 112 360q0 216 -112 362h69q112 -166 112 -362q0 -195 -111 -360zM394 -69v69q71 0 78 23q3 13 3 436h68v-408q0 -17 -5 -45q-16 -75 -144 -75zM509 551
q-18 0 -30.5 12.5t-12.5 30.5t12.5 30.5t30.5 12.5t30.5 -12.5t12.5 -30.5t-12.5 -30.5t-30.5 -12.5z" />
    <glyph glyph-name="uni24A6" unicode="&#x24a6;" horiz-adv-x="999" 
d="M228 -61h-69q-111 166 -111 361q0 196 112 361h69q-113 -145 -113 -361t112 -361zM841 -61h-70q112 145 112 360q0 216 -112 362h69q112 -166 112 -362q0 -195 -111 -360zM698 14h-104l-169 150v-150h-68v606h68v-360l166 173h95l-212 -221z" />
    <glyph glyph-name="uni24A7" unicode="&#x24a7;" horiz-adv-x="1000" 
d="M228 -61h-69q-111 166 -111 361q0 196 112 361h69q-113 -145 -113 -361t112 -361zM841 -61h-70q112 145 112 360q0 216 -112 362h69q112 -166 112 -362q0 -195 -111 -360zM529 -2h-68v605h68v-605z" />
    <glyph glyph-name="uni24A8" unicode="&#x24a8;" horiz-adv-x="1000" 
d="M228 -61h-69q-111 166 -111 361q0 196 112 361h69q-113 -145 -113 -361t112 -361zM841 -61h-70q112 145 112 360q0 216 -112 362h69q112 -166 112 -362q0 -195 -111 -360zM783 82h-63v270q0 91 -80 91q-37 0 -66.5 -26.5t-32.5 -124.5v-210h-63v270q0 91 -82 91
q-39 0 -71 -26.5t-32 -134.5v-200h-63v419h63v-26q26 30 98 30q96 0 125 -57q32 57 119 57q143 0 148 -153v-270z" />
    <glyph glyph-name="uni24A9" unicode="&#x24a9;" horiz-adv-x="1000" 
d="M228 -61h-69q-111 166 -111 361q0 196 112 361h69q-113 -145 -113 -361t112 -361zM841 -61h-70q112 145 112 360q0 216 -112 362h69q112 -166 112 -362q0 -195 -111 -360zM671 92h-68v270q0 87 -85 87q-45 0 -79 -25.5t-34 -131.5v-200h-68v419h68v-23q29 30 105 30
q156 0 161 -156v-270z" />
    <glyph glyph-name="uni24AA" unicode="&#x24aa;" horiz-adv-x="1000" 
d="M228 -61h-69q-111 166 -111 361q0 196 112 361h69q-113 -145 -113 -361t112 -361zM841 -61h-70q112 145 112 360q0 216 -112 362h69q112 -166 112 -362q0 -195 -111 -360zM496 134q126 0 126 163q0 162 -126 163q-126 0 -126 -163q0 -162 126 -163zM496 72
q-186 0 -195 225q0 215 195 225q186 0 195 -225q0 -215 -195 -225z" />
    <glyph glyph-name="uni24AB" unicode="&#x24ab;" horiz-adv-x="999" 
d="M228 -61h-69q-111 166 -111 361q0 196 112 361h69q-113 -145 -113 -361t112 -361zM841 -61h-70q112 145 112 360q0 216 -112 362h69q112 -166 112 -362q0 -195 -111 -360zM562 163q12 0 33 7t37.5 37.5t16.5 102.5q0 18 -5.5 55t-25.5 67t-64 30h-130v-299h138zM424 -3
h-68v528h198q152 0 164 -214q0 -91 -27 -136.5t-64 -60t-65 -14.5h-138v-103z" />
    <glyph glyph-name="uni24AC" unicode="&#x24ac;" horiz-adv-x="999" 
d="M228 -61h-69q-111 165 -111 361q0 195 112 361h69q-113 -145 -113 -361t112 -361zM841 -61h-70q112 145 112 360q0 216 -112 361h69q112 -165 112 -361q0 -195 -111 -360zM597 163v299h-130q-44 0 -64 -30t-25 -67t-5 -55q0 -147 87 -147h137zM666 -4h-69v104h-137
q-29 0 -65.5 14.5t-63.5 60t-27 135.5q0 199 163 215h163v-1h36v-528z" />
    <glyph glyph-name="uni24AD" unicode="&#x24ad;" horiz-adv-x="1000" 
d="M228 -61h-69q-111 166 -111 361q0 196 112 361h69q-113 -145 -113 -361t112 -361zM841 -61h-70q112 145 112 360q0 216 -112 362h69q112 -166 112 -362q0 -195 -111 -360zM499 64h-69v419h69v-30q36 37 147 37v-69q-86 0 -116.5 -34.5t-30.5 -122.5v-200z" />
    <glyph glyph-name="uni24AE" unicode="&#x24ae;" horiz-adv-x="999" 
d="M228 -61h-69q-111 166 -111 361q0 196 112 361h69q-113 -145 -113 -361t112 -361zM841 -61h-70q112 145 112 360q0 216 -112 362h69q112 -166 112 -362q0 -195 -111 -360zM514 78h-135v69h135q44 0 54.5 15.5t10.5 34.5q0 24 -14 37.5t-68.5 36.5t-90 49t-35.5 79
q0 104 114 114h137v-69h-136q-47 0 -47 -45q0 -17 17 -29.5t71.5 -36t87.5 -51t33 -85.5q0 -113 -134 -119z" />
    <glyph glyph-name="uni24AF" unicode="&#x24af;" horiz-adv-x="999" 
d="M228 -61h-69q-111 166 -111 361q0 196 112 361h69q-113 -145 -113 -361t112 -361zM841 -61h-70q112 145 112 360q0 216 -112 362h69q112 -166 112 -362q0 -195 -111 -360zM625 34h-48q-127 0 -127 93v268h-80v62h80v112h68v-112h91v-62h-91q0 -281 3 -281q11 -11 59 -11
h45v-69z" />
    <glyph glyph-name="uni24B0" unicode="&#x24b0;" horiz-adv-x="1000" 
d="M228 -61h-69q-111 166 -111 361q0 196 112 361h69q-113 -145 -113 -361t112 -361zM841 -61h-70q112 145 112 360q0 216 -112 362h69q112 -166 112 -362q0 -195 -111 -360zM498 64q-157 0 -162 156v271h69v-271q0 -87 85 -87q44 0 78 25.5t34 139.5h1v193h68v-419h-68v22
q-30 -30 -105 -30z" />
    <glyph glyph-name="uni24B1" unicode="&#x24b1;" horiz-adv-x="1000" 
d="M228 -61h-69q-111 166 -111 361q0 196 112 361h69q-113 -145 -113 -361t112 -361zM841 -61h-70q112 145 112 360q0 216 -112 362h69q112 -166 112 -362q0 -195 -111 -360zM533 69h-64l-147 419h71l108 -319l108 319h72z" />
    <glyph glyph-name="uni24B2" unicode="&#x24b2;" horiz-adv-x="1000" 
d="M228 -61h-69q-111 166 -111 361q0 196 112 361h69q-113 -145 -113 -361t112 -361zM841 -61h-70q112 145 112 360q0 216 -112 362h69q112 -166 112 -362q0 -195 -111 -360zM682 54h-65l-109 323l-109 -323h-65l-129 417h71l92 -308l101 308h78l101 -308l92 308h71z" />
    <glyph glyph-name="uni24B3" unicode="&#x24b3;" horiz-adv-x="999" 
d="M228 -61h-69q-111 166 -111 361q0 196 112 361h69q-113 -145 -113 -361t112 -361zM841 -61h-70q112 145 112 360q0 216 -112 362h69q112 -166 112 -362q0 -195 -111 -360zM692 60h-76l-109 161l-109 -161h-76l148 217l-137 202h75l99 -146l98 146h76l-137 -202z" />
    <glyph glyph-name="uni24B4" unicode="&#x24b4;" horiz-adv-x="1000" 
d="M228 -61h-69q-111 166 -111 361q0 196 112 361h69q-113 -145 -113 -361t112 -361zM841 -61h-70q112 145 112 360q0 216 -112 362h69q112 -166 112 -362q0 -195 -111 -360zM356 -5v68q74 0 86 10q5 4 33 79l-136 374h73l98 -278l103 279h73l-173 -470q-19 -43 -58 -52.5
t-99 -9.5z" />
    <glyph glyph-name="uni24B5" unicode="&#x24b5;" horiz-adv-x="999" 
d="M228 -61h-69q-111 166 -111 361q0 196 112 361h69q-113 -145 -113 -361t112 -361zM841 -61h-70q112 145 112 360q0 216 -112 362h69q112 -166 112 -362q0 -195 -111 -360zM662 79h-317v58l227 298h-216v63h306v-58l-227 -298h227v-63z" />
    <glyph glyph-name="uni24D0" unicode="&#x24d0;" horiz-adv-x="1045" 
d="M523 -126q176 0 301 124.5t125 301.5t-125 302t-301 125q-179 0 -303 -126t-124 -301q0 -177 125 -301.5t302 -124.5zM523 -174q-197 0 -336 139t-139 335q0 197 139 336t336 139q196 0 335 -139t139 -336q0 -198 -140 -336t-334 -138zM614 150v139h-126q-26 -3 -43 -22
t-17 -46q0 -64 82 -71h104zM683 85h-173q-137 0 -151 136q0 56 37.5 94t91.5 38h126v26q0 69 -55 69h-164v69h164q43 0 83.5 -31t40.5 -107v-294z" />
    <glyph glyph-name="uni24D1" unicode="&#x24d1;" horiz-adv-x="1045" 
d="M523 -126q176 0 301 124.5t125 301.5t-125 302t-301 125q-179 0 -303 -126t-124 -301q0 -177 125 -301.5t302 -124.5zM523 -174q-197 0 -336 139t-139 335q0 197 139 336t336 139q196 0 335 -139t139 -336q0 -198 -140 -336t-334 -138zM559 70q44 0 64 30t25.5 67t5.5 55
q0 147 -88 147h-137v-299h130zM559 7h-163v1h-36v605h69v-181h137q29 0 65.5 -14.5t63.5 -59.5t27 -136q0 -198 -163 -215z" />
    <glyph glyph-name="uni24D2" unicode="&#x24d2;" horiz-adv-x="1045" 
d="M523 -126q176 0 301 124.5t125 301.5t-125 302t-301 125q-179 0 -303 -126t-124 -301q0 -177 125 -301.5t302 -124.5zM523 -174q-197 0 -336 139t-139 335q0 197 139 336t336 139q196 0 335 -139t139 -336q0 -198 -140 -336t-334 -138zM552 84q-93 0 -153.5 62t-60.5 157
t60.5 157t153.5 62q56 0 112 -29l-33 -61q-40 22 -79 22q-65 0 -105.5 -42t-40.5 -109t40.5 -109t105.5 -42q40 0 79 21l33 -60q-56 -29 -112 -29z" />
    <glyph glyph-name="uni24D3" unicode="&#x24d3;" horiz-adv-x="1045" 
d="M523 -126q176 0 301 124.5t125 301.5t-125 302t-301 125q-179 0 -303 -126t-124 -301q0 -177 125 -301.5t302 -124.5zM523 -174q-197 0 -336 139t-139 335q0 197 139 336t336 139q196 0 335 -139t139 -336q0 -198 -140 -336t-334 -138zM613 84v299h-137q-13 0 -33.5 -7.5
t-37.5 -37.5t-17 -103q0 -17 5.5 -54t25.5 -67t64 -30h130zM682 21h-199q-151 0 -163 214q0 91 27 136.5t63.5 59.5t65.5 14h137v182h69v-606z" />
    <glyph glyph-name="uni24D4" unicode="&#x24d4;" horiz-adv-x="1045" 
d="M523 -126q176 0 301 124.5t125 301.5t-125 302t-301 125q-179 0 -303 -126t-124 -301q0 -177 125 -301.5t302 -124.5zM523 -174q-197 0 -336 139t-139 335q0 197 139 336t336 139q196 0 335 -139t139 -336q0 -198 -140 -336t-334 -138zM641 341q-6 62 -36.5 85t-78.5 23
q-102 0 -114 -108h229zM526 81q-28 0 -72 13.5t-78.5 60.5t-34.5 144q0 98 34.5 144.5t78.5 60t72 13.5q185 0 185 -213v-27q-53 2 -301 2q5 -129 116 -129q31 0 55 4t64 22l28 -64q-76 -31 -147 -31z" />
    <glyph glyph-name="uni24D5" unicode="&#x24d5;" horiz-adv-x="1045" 
d="M523 -126q176 0 301 124.5t125 301.5t-125 302t-301 125q-179 0 -303 -126t-124 -301q0 -177 125 -301.5t302 -124.5zM523 -174q-197 0 -336 139t-139 335q0 197 139 336t336 139q196 0 335 -139t139 -336q0 -198 -140 -336t-334 -138zM544 2h-69v356h-80v62h80v48
q0 152 141 152l26 -1v-68q-63 0 -80.5 -16.5t-17.5 -66.5v-48h88v-62h-88v-356z" />
    <glyph glyph-name="uni24D6" unicode="&#x24d6;" horiz-adv-x="1045" 
d="M523 -126q176 0 301 124.5t125 301.5t-125 302t-301 125q-179 0 -303 -126t-124 -301q0 -177 125 -301.5t302 -124.5zM523 -174q-197 0 -336 139t-139 335q0 197 139 336t336 139q196 0 335 -139t139 -336q0 -198 -140 -336t-334 -138zM483 211l9 1h138v277h-131
q-43 -1 -63 -27.5t-25.5 -61.5t-5.5 -52q0 -137 78 -137zM504 18q-60 0 -143 20l16 65q82 -17 131 -17q23 0 40 4q51 10 63 22q19 17 19 37h-138q-156 0 -156 199q0 188 163 203h199v-402q0 -52 -44 -90q-54 -41 -150 -41z" />
    <glyph glyph-name="uni24D7" unicode="&#x24d7;" horiz-adv-x="1045" 
d="M523 -126q176 0 301 124.5t125 301.5t-125 302t-301 125q-179 0 -303 -126t-124 -301q0 -177 125 -301.5t302 -124.5zM523 -174q-197 0 -336 139t-139 335q0 197 139 336t336 139q196 0 335 -139t139 -336q0 -198 -140 -336t-334 -138zM709 -2h-68v270q0 91 -95 94
q-36 0 -71 -28.5t-35 -135.5v-200h-68v606h68v-210q30 30 106 30q158 0 163 -155v-271z" />
    <glyph glyph-name="uni24D8" unicode="&#x24d8;" horiz-adv-x="1045" 
d="M523 -126q176 0 301 124.5t125 301.5t-125 302t-301 125q-179 0 -303 -126t-124 -301q0 -177 125 -301.5t302 -124.5zM523 -174q-197 0 -336 139t-139 335q0 197 139 336t336 139q196 0 335 -139t139 -336q0 -198 -140 -336t-334 -138zM561 -2h-69v417h69v-417zM526 506
q-17 0 -29.5 12.5t-12.5 30.5t12.5 30.5t29.5 12.5q18 0 30.5 -12.5t12.5 -30.5t-12.5 -30.5t-30.5 -12.5z" />
    <glyph glyph-name="uni24D9" unicode="&#x24d9;" horiz-adv-x="1045" 
d="M523 -126q176 0 301 124.5t125 301.5t-125 302t-301 125q-179 0 -303 -126t-124 -301q0 -177 125 -301.5t302 -124.5zM523 -174q-197 0 -336 139t-139 335q0 197 139 336t336 139q196 0 335 -139t139 -336q0 -198 -140 -336t-334 -138zM428 -75v68q71 0 78 23q3 13 3 437
h69v-409q0 -17 -6 -45.5t-36 -51t-108 -22.5zM543 545q-18 0 -30.5 12t-12.5 30t12.5 30.5t30.5 12.5t30.5 -12.5t12.5 -30.5t-12.5 -30t-30.5 -12z" />
    <glyph glyph-name="uni24DA" unicode="&#x24da;" horiz-adv-x="1045" 
d="M523 -127q176 0 301 125t125 302q0 176 -125 301t-301 125q-179 0 -303 -125.5t-124 -300.5q0 -177 125 -302t302 -125zM523 -175q-197 0 -336 139t-139 336q0 196 139 335t336 139q196 0 335 -139t139 -335q0 -198 -140 -336.5t-334 -138.5zM732 14h-104l-169 151v-151
h-68v606h68v-360l166 173h95l-212 -221z" />
    <glyph glyph-name="uni24DB" unicode="&#x24db;" horiz-adv-x="1045" 
d="M523 -127q176 0 301 125t125 302q0 176 -125 301t-301 125q-179 0 -303 -125.5t-124 -300.5q0 -177 125 -302t302 -125zM523 -175q-197 0 -336 139t-139 336q0 196 139 335t336 139q196 0 335 -139t139 -335q0 -198 -140 -336.5t-334 -138.5zM562 -2h-69v605h69v-605z
" />
    <glyph glyph-name="uni24DC" unicode="&#x24dc;" horiz-adv-x="1045" 
d="M523 -127q176 0 301 125t125 302q0 176 -125 301t-301 125q-179 0 -303 -125.5t-124 -300.5q0 -177 125 -302t302 -125zM523 -175q-197 0 -336 139t-139 336q0 196 139 335t336 139q196 0 335 -139t139 -335q0 -198 -140 -336.5t-334 -138.5zM807 82h-63v270q0 91 -80 91
q-36 0 -66 -26.5t-33 -124.5v-210h-63v270q0 91 -81 91q-40 0 -72 -26.5t-32 -134.5v-200h-63v419h63v-26q27 30 98 30q96 0 125 -57q33 57 119 57q143 0 148 -153v-270z" />
    <glyph glyph-name="uni24DD" unicode="&#x24dd;" horiz-adv-x="1045" 
d="M523 -127q176 0 301 125t125 302q0 176 -125 301t-301 125q-179 0 -303 -125.5t-124 -300.5q0 -177 125 -302t302 -125zM523 -175q-197 0 -336 139t-139 336q0 196 139 335t336 139q196 0 335 -139t139 -335q0 -198 -140 -336.5t-334 -138.5zM697 90h-68v271q0 87 -88 87
q-42 0 -76 -26t-34 -131v-201h-69v419h69v-23q29 30 104 30q157 0 162 -155v-271z" />
    <glyph glyph-name="uni24DE" unicode="&#x24de;" horiz-adv-x="1045" 
d="M523 -127q176 0 301 125t125 302q0 176 -125 301t-301 125q-179 0 -303 -125.5t-124 -300.5q0 -177 125 -302t302 -125zM523 -175q-197 0 -336 139t-139 336q0 196 139 335t336 139q196 0 335 -139t139 -335q0 -198 -140 -336.5t-334 -138.5zM537 137q125 0 126 163
q0 162 -126 162t-126 -162t126 -163zM537 75q-186 0 -195 225q0 214 195 225q186 0 194 -225q0 -215 -194 -225z" />
    <glyph glyph-name="uni24DF" unicode="&#x24df;" horiz-adv-x="1045" 
d="M523 -127q176 0 301 125t125 302q0 176 -125 301t-301 125q-179 0 -303 -125.5t-124 -300.5q0 -177 125 -302t302 -125zM523 -175q-197 0 -336 139t-139 336q0 196 139 335t336 139q196 0 335 -139t139 -335q0 -198 -140 -336.5t-334 -138.5zM584 189q13 0 33.5 7
t37.5 37.5t17 102.5q0 18 -5.5 55t-25.5 67t-64 30h-130v-299h137zM447 22h-69v528h36v1h163q151 0 163 -215q0 -90 -27 -135.5t-63.5 -60t-65.5 -14.5h-137v-104z" />
    <glyph glyph-name="uni24E0" unicode="&#x24e0;" horiz-adv-x="1045" 
d="M523 -127q176 0 301 125t125 302q0 176 -125 301t-301 125q-179 0 -303 -125.5t-124 -300.5q0 -177 125 -302t302 -125zM523 -175q-197 0 -336 139t-139 336q0 196 139 335t336 139q196 0 335 -139t139 -335q0 -198 -140 -336.5t-334 -138.5zM613 186v299h-130
q-44 0 -64 -30t-25.5 -67.5t-5.5 -54.5q0 -147 88 -147h137zM682 19h-69v104h-137q-29 0 -65.5 14.5t-63.5 59.5t-27 136q0 198 163 214h199v-528z" />
    <glyph glyph-name="uni24E1" unicode="&#x24e1;" horiz-adv-x="1045" 
d="M523 -127q176 0 301 125t125 302q0 176 -125 301t-301 125q-179 0 -303 -125.5t-124 -300.5q0 -177 125 -302t302 -125zM523 -175q-197 0 -336 139t-139 336q0 196 139 335t336 139q196 0 335 -139t139 -335q0 -198 -140 -336.5t-334 -138.5zM525 77h-69v419h69v-30
q36 37 147 37v-68q-86 0 -116.5 -35t-30.5 -129v-194z" />
    <glyph glyph-name="uni24E2" unicode="&#x24e2;" horiz-adv-x="1045" 
d="M523 -127q176 0 301 125t125 302t-125 301.5t-301 124.5q-179 0 -303 -125.5t-124 -300.5q0 -177 125 -302t302 -125zM523 -175q-197 0 -336 139t-139 336q0 196 139 335t336 139q196 0 335 -139t139 -335q0 -198 -140 -336.5t-334 -138.5zM539 83h-135v68h135
q43 0 53.5 16t10.5 35q0 24 -14 37t-68.5 36.5t-90 49t-35.5 78.5q0 104 115 114h136v-68h-136q-46 0 -47 -46q0 -17 17 -29t71.5 -35.5t87.5 -51t33 -85.5q0 -114 -133 -119z" />
    <glyph glyph-name="uni24E3" unicode="&#x24e3;" horiz-adv-x="1045" 
d="M523 -127q176 0 301 125t125 302t-125 301.5t-301 124.5q-179 0 -303 -125.5t-124 -300.5q0 -177 125 -302t302 -125zM523 -175q-197 0 -336 139t-139 336q0 196 139 335t336 139q196 0 335 -139t139 -335q0 -198 -140 -336.5t-334 -138.5zM644 28h-47q-128 0 -128 93
v267h-80v63h80v112h69v-112h90v-63h-90q0 -277 3 -282q7 -10 74 -10l29 1v-69z" />
    <glyph glyph-name="uni24E4" unicode="&#x24e4;" horiz-adv-x="1045" 
d="M523 -126q176 0 301 124.5t125 301.5t-125 302t-301 125q-179 0 -303 -126t-124 -301q0 -177 125 -301.5t302 -124.5zM523 -174q-197 0 -336 139t-139 335q0 197 139 336t336 139q196 0 335 -139t139 -336q0 -198 -140 -336t-334 -138zM513 64q-157 0 -162 156v270h68
v-270q0 -87 86 -87q44 0 78 25.5t34 131.5v200h69v-419h-69v23q-30 -30 -104 -30z" />
    <glyph glyph-name="uni24E5" unicode="&#x24e5;" horiz-adv-x="1045" 
d="M523 -126q176 0 301 124.5t125 301.5t-125 302t-301 125q-179 0 -303 -126t-124 -301q0 -177 125 -301.5t302 -124.5zM523 -174q-197 0 -336 139t-139 335q0 197 139 336t336 139q196 0 335 -139t139 -336q0 -198 -140 -336t-334 -138zM554 65h-64l-147 420h71l108 -319
l108 319h71z" />
    <glyph glyph-name="uni24E6" unicode="&#x24e6;" horiz-adv-x="1045" 
d="M523 -126q176 0 301 124.5t125 301.5t-125 302t-301 125q-179 0 -303 -126t-124 -301q0 -177 125 -301.5t302 -124.5zM523 -174q-197 0 -336 139t-139 335q0 197 139 336t336 139q196 0 335 -139t139 -336q0 -198 -140 -336t-334 -138zM704 50h-65l-109 323l-109 -323
h-65l-129 417h71l92 -308l101 308h78l101 -308l92 308h71z" />
    <glyph glyph-name="uni24E7" unicode="&#x24e7;" horiz-adv-x="1045" 
d="M523 -126q176 0 301 124.5t125 301.5t-125 302t-301 125q-179 0 -303 -126t-124 -301q0 -177 125 -301.5t302 -124.5zM523 -174q-197 0 -336 139t-139 335q0 197 139 336t336 139q196 0 335 -139t139 -336q0 -198 -140 -336t-334 -138zM706 60h-75l-110 161l-109 -161
h-76l148 217l-137 201h76l98 -145l99 145h75l-137 -201z" />
    <glyph glyph-name="uni24E8" unicode="&#x24e8;" horiz-adv-x="1045" 
d="M523 -126q176 0 301 124.5t125 301.5t-125 302t-301 125q-179 0 -303 -126t-124 -301q0 -177 125 -301.5t302 -124.5zM523 -174q-197 0 -336 139t-139 335q0 197 139 336t336 139q196 0 335 -139t139 -336q0 -198 -140 -336t-334 -138zM382 -11v69q74 0 86 10q5 3 33 78
l-136 375h73l98 -278l103 279h73l-173 -470q-19 -43 -58 -53t-99 -10z" />
    <glyph glyph-name="uni24E9" unicode="&#x24e9;" horiz-adv-x="1045" 
d="M523 -126q176 0 301 124.5t125 301.5t-125 302t-301 125q-179 0 -303 -126t-124 -301q0 -177 125 -301.5t302 -124.5zM523 -174q-197 0 -336 139t-139 335q0 197 139 336t336 139q196 0 335 -139t139 -336q0 -198 -140 -336t-334 -138zM685 79h-317v57l226 299h-215v62
h305v-57l-226 -299h227v-62z" />
    <glyph glyph-name="SF100000" unicode="&#x2500;" horiz-adv-x="130" 
 />
    <glyph glyph-name="uni2501" unicode="&#x2501;" horiz-adv-x="130" 
 />
    <glyph glyph-name="SF110000" unicode="&#x2502;" horiz-adv-x="130" 
 />
    <glyph glyph-name="uni2503" unicode="&#x2503;" horiz-adv-x="130" 
 />
    <glyph glyph-name="SF010000" unicode="&#x250c;" horiz-adv-x="130" 
 />
    <glyph glyph-name="uni250D" unicode="&#x250d;" horiz-adv-x="130" 
 />
    <glyph glyph-name="uni250E" unicode="&#x250e;" horiz-adv-x="130" 
 />
    <glyph glyph-name="uni250F" unicode="&#x250f;" horiz-adv-x="130" 
 />
    <glyph glyph-name="SF030000" unicode="&#x2510;" horiz-adv-x="130" 
 />
    <glyph glyph-name="uni2511" unicode="&#x2511;" horiz-adv-x="130" 
 />
    <glyph glyph-name="uni2512" unicode="&#x2512;" horiz-adv-x="130" 
 />
    <glyph glyph-name="uni2513" unicode="&#x2513;" horiz-adv-x="130" 
 />
    <glyph glyph-name="SF020000" unicode="&#x2514;" horiz-adv-x="130" 
 />
    <glyph glyph-name="uni2515" unicode="&#x2515;" horiz-adv-x="130" 
 />
    <glyph glyph-name="uni2516" unicode="&#x2516;" horiz-adv-x="130" 
 />
    <glyph glyph-name="uni2517" unicode="&#x2517;" horiz-adv-x="130" 
 />
    <glyph glyph-name="SF040000" unicode="&#x2518;" horiz-adv-x="130" 
 />
    <glyph glyph-name="uni2519" unicode="&#x2519;" horiz-adv-x="130" 
 />
    <glyph glyph-name="uni251A" unicode="&#x251a;" horiz-adv-x="130" 
 />
    <glyph glyph-name="uni251B" unicode="&#x251b;" horiz-adv-x="130" 
 />
    <glyph glyph-name="SF080000" unicode="&#x251c;" horiz-adv-x="130" 
 />
    <glyph glyph-name="uni251D" unicode="&#x251d;" horiz-adv-x="130" 
 />
    <glyph glyph-name="uni251E" unicode="&#x251e;" horiz-adv-x="130" 
 />
    <glyph glyph-name="uni251F" unicode="&#x251f;" horiz-adv-x="130" 
 />
    <glyph glyph-name="uni2520" unicode="&#x2520;" horiz-adv-x="130" 
 />
    <glyph glyph-name="uni2521" unicode="&#x2521;" horiz-adv-x="130" 
 />
    <glyph glyph-name="uni2522" unicode="&#x2522;" horiz-adv-x="130" 
 />
    <glyph glyph-name="uni2523" unicode="&#x2523;" horiz-adv-x="130" 
 />
    <glyph glyph-name="SF090000" unicode="&#x2524;" horiz-adv-x="130" 
 />
    <glyph glyph-name="uni2525" unicode="&#x2525;" horiz-adv-x="130" 
 />
    <glyph glyph-name="uni2526" unicode="&#x2526;" horiz-adv-x="130" 
 />
    <glyph glyph-name="uni2527" unicode="&#x2527;" horiz-adv-x="130" 
 />
    <glyph glyph-name="uni2528" unicode="&#x2528;" horiz-adv-x="130" 
 />
    <glyph glyph-name="uni2529" unicode="&#x2529;" horiz-adv-x="130" 
 />
    <glyph glyph-name="uni252A" unicode="&#x252a;" horiz-adv-x="130" 
 />
    <glyph glyph-name="uni252B" unicode="&#x252b;" horiz-adv-x="130" 
 />
    <glyph glyph-name="SF060000" unicode="&#x252c;" horiz-adv-x="130" 
 />
    <glyph glyph-name="uni252D" unicode="&#x252d;" horiz-adv-x="130" 
 />
    <glyph glyph-name="uni252E" unicode="&#x252e;" horiz-adv-x="130" 
 />
    <glyph glyph-name="uni252F" unicode="&#x252f;" horiz-adv-x="130" 
 />
    <glyph glyph-name="uni2530" unicode="&#x2530;" horiz-adv-x="130" 
 />
    <glyph glyph-name="uni2531" unicode="&#x2531;" horiz-adv-x="130" 
 />
    <glyph glyph-name="uni2532" unicode="&#x2532;" horiz-adv-x="130" 
 />
    <glyph glyph-name="uni2533" unicode="&#x2533;" horiz-adv-x="130" 
 />
    <glyph glyph-name="SF070000" unicode="&#x2534;" horiz-adv-x="130" 
 />
    <glyph glyph-name="uni2535" unicode="&#x2535;" horiz-adv-x="130" 
 />
    <glyph glyph-name="uni2536" unicode="&#x2536;" horiz-adv-x="130" 
 />
    <glyph glyph-name="uni2537" unicode="&#x2537;" horiz-adv-x="130" 
 />
    <glyph glyph-name="uni2538" unicode="&#x2538;" horiz-adv-x="130" 
 />
    <glyph glyph-name="uni2539" unicode="&#x2539;" horiz-adv-x="130" 
 />
    <glyph glyph-name="uni253A" unicode="&#x253a;" horiz-adv-x="130" 
 />
    <glyph glyph-name="uni253B" unicode="&#x253b;" horiz-adv-x="130" 
 />
    <glyph glyph-name="SF050000" unicode="&#x253c;" horiz-adv-x="130" 
 />
    <glyph glyph-name="uni253D" unicode="&#x253d;" horiz-adv-x="130" 
 />
    <glyph glyph-name="uni253E" unicode="&#x253e;" horiz-adv-x="130" 
 />
    <glyph glyph-name="uni253F" unicode="&#x253f;" horiz-adv-x="130" 
 />
    <glyph glyph-name="uni2540" unicode="&#x2540;" horiz-adv-x="130" 
 />
    <glyph glyph-name="uni2541" unicode="&#x2541;" horiz-adv-x="130" 
 />
    <glyph glyph-name="uni2542" unicode="&#x2542;" horiz-adv-x="130" 
 />
    <glyph glyph-name="uni2543" unicode="&#x2543;" horiz-adv-x="130" 
 />
    <glyph glyph-name="uni2544" unicode="&#x2544;" horiz-adv-x="130" 
 />
    <glyph glyph-name="uni2545" unicode="&#x2545;" horiz-adv-x="130" 
 />
    <glyph glyph-name="uni2546" unicode="&#x2546;" horiz-adv-x="130" 
 />
    <glyph glyph-name="uni2547" unicode="&#x2547;" horiz-adv-x="130" 
 />
    <glyph glyph-name="uni2548" unicode="&#x2548;" horiz-adv-x="130" 
 />
    <glyph glyph-name="uni2549" unicode="&#x2549;" horiz-adv-x="130" 
 />
    <glyph glyph-name="uni254A" unicode="&#x254a;" horiz-adv-x="130" 
 />
    <glyph glyph-name="uni254B" unicode="&#x254b;" horiz-adv-x="130" 
 />
    <glyph glyph-name="shade" unicode="&#x2592;" horiz-adv-x="933" 
d="M176 562q-15 0 -25 10.5t-10 25.5t10 25.5t25 10.5q16 0 26 -10.5t10 -25.5t-10 -25.5t-26 -10.5zM176 444q-15 0 -25 10.5t-10 25.5t10 25.5t25 10.5q16 0 26 -10.5t10 -25.5t-10 -25.5t-26 -10.5zM176 327q-15 0 -25 10.5t-10 25.5t10 25.5t25 10.5q16 0 26 -10.5
t10 -25.5t-10 -25.5t-26 -10.5zM176 210q-15 0 -25 10.5t-10 25.5t10 25t25 10q16 0 26 -10t10 -25t-10 -25.5t-26 -10.5zM176 92q-15 0 -25 10.5t-10 25.5t10 25.5t25 10.5q16 0 26 -10.5t10 -25.5t-10 -25.5t-26 -10.5zM176 -25q-15 0 -25 10.5t-10 25.5t10 25.5t25 10.5
q16 0 26 -10.5t10 -25.5t-10 -25.5t-26 -10.5zM294 562q-15 0 -25 10.5t-10 25.5t10 25.5t25 10.5q16 0 26 -10.5t10 -25.5t-10 -25.5t-26 -10.5zM294 444q-15 0 -25 10.5t-10 25.5t10 25.5t25 10.5q16 0 26 -10.5t10 -25.5t-10 -25.5t-26 -10.5zM294 327q-15 0 -25 10.5
t-10 25.5t10 25.5t25 10.5q16 0 26 -10.5t10 -25.5t-10 -25.5t-26 -10.5zM294 210q-15 0 -25 10.5t-10 25.5t10 25t25 10q16 0 26 -10t10 -25t-10 -25.5t-26 -10.5zM294 92q-15 0 -25 10.5t-10 25.5t10 25.5t25 10.5q16 0 26 -10.5t10 -25.5t-10 -25.5t-26 -10.5zM294 -25
q-15 0 -25 10.5t-10 25.5t10 25.5t25 10.5q16 0 26 -10.5t10 -25.5t-10 -25.5t-26 -10.5zM412 562q-15 0 -25 10.5t-10 25.5t10 25.5t25 10.5q16 0 26 -10.5t10 -25.5t-10 -25.5t-26 -10.5zM412 444q-15 0 -25 10.5t-10 25.5t10 25.5t25 10.5q16 0 26 -10.5t10 -25.5
t-10 -25.5t-26 -10.5zM412 327q-15 0 -25 10.5t-10 25.5t10 25.5t25 10.5q16 0 26 -10.5t10 -25.5t-10 -25.5t-26 -10.5zM412 210q-15 0 -25 10.5t-10 25.5t10 25t25 10q16 0 26 -10t10 -25t-10 -25.5t-26 -10.5zM412 92q-15 0 -25 10.5t-10 25.5t10 25.5t25 10.5
q16 0 26 -10.5t10 -25.5t-10 -25.5t-26 -10.5zM412 -25q-15 0 -25 10.5t-10 25.5t10 25.5t25 10.5q16 0 26 -10.5t10 -25.5t-10 -25.5t-26 -10.5zM530 562q-15 0 -25.5 10.5t-10.5 25.5t10.5 25.5t25.5 10.5t25.5 -10.5t10.5 -25.5t-10.5 -25.5t-25.5 -10.5zM530 444
q-15 0 -25.5 10.5t-10.5 25.5t10.5 25.5t25.5 10.5t25.5 -10.5t10.5 -25.5t-10.5 -25.5t-25.5 -10.5zM530 327q-15 0 -25.5 10.5t-10.5 25.5t10.5 25.5t25.5 10.5t25.5 -10.5t10.5 -25.5t-10.5 -25.5t-25.5 -10.5zM530 210q-15 0 -25.5 10.5t-10.5 25.5t10.5 25t25.5 10
t25.5 -10t10.5 -25t-10.5 -25.5t-25.5 -10.5zM530 92q-15 0 -25.5 10.5t-10.5 25.5t10.5 25.5t25.5 10.5t25.5 -10.5t10.5 -25.5t-10.5 -25.5t-25.5 -10.5zM530 -25q-15 0 -25.5 10.5t-10.5 25.5t10.5 25.5t25.5 10.5t25.5 -10.5t10.5 -25.5t-10.5 -25.5t-25.5 -10.5z
M648 562q-15 0 -25 10.5t-10 25.5t10 25.5t25 10.5t25.5 -10.5t10.5 -25.5t-10.5 -25.5t-25.5 -10.5zM648 444q-15 0 -25 10.5t-10 25.5t10 25.5t25 10.5t25.5 -10.5t10.5 -25.5t-10.5 -25.5t-25.5 -10.5zM648 327q-15 0 -25 10.5t-10 25.5t10 25.5t25 10.5t25.5 -10.5
t10.5 -25.5t-10.5 -25.5t-25.5 -10.5zM648 210q-15 0 -25 10.5t-10 25.5t10 25t25 10t25.5 -10t10.5 -25t-10.5 -25.5t-25.5 -10.5zM648 92q-15 0 -25 10.5t-10 25.5t10 25.5t25 10.5t25.5 -10.5t10.5 -25.5t-10.5 -25.5t-25.5 -10.5zM648 -25q-15 0 -25 10.5t-10 25.5
t10 25.5t25 10.5t25.5 -10.5t10.5 -25.5t-10.5 -25.5t-25.5 -10.5zM766 562q-15 0 -25.5 10.5t-10.5 25.5t10.5 25.5t25.5 10.5t25.5 -10.5t10.5 -25.5t-10.5 -25.5t-25.5 -10.5zM766 444q-15 0 -25.5 10.5t-10.5 25.5t10.5 25.5t25.5 10.5t25.5 -10.5t10.5 -25.5
t-10.5 -25.5t-25.5 -10.5zM766 327q-15 0 -25.5 10.5t-10.5 25.5t10.5 25.5t25.5 10.5t25.5 -10.5t10.5 -25.5t-10.5 -25.5t-25.5 -10.5zM766 210q-15 0 -25.5 10.5t-10.5 25.5t10.5 25t25.5 10t25.5 -10t10.5 -25t-10.5 -25.5t-25.5 -10.5zM766 92q-15 0 -25.5 10.5
t-10.5 25.5t10.5 25.5t25.5 10.5t25.5 -10.5t10.5 -25.5t-10.5 -25.5t-25.5 -10.5zM766 -25q-15 0 -25.5 10.5t-10.5 25.5t10.5 25.5t25.5 10.5t25.5 -10.5t10.5 -25.5t-10.5 -25.5t-25.5 -10.5zM834 -68v735h-735v-735h735zM885 -118h-837v836h837v-836z" />
    <glyph glyph-name="filledbox" unicode="&#x25a0;" horiz-adv-x="862" 
d="M814 -83h-766v766h766v-766z" />
    <glyph glyph-name="H22073" unicode="&#x25a1;" horiz-adv-x="859" 
d="M760 -30v660h-661v-660h661zM811 -81h-763v762h763v-762z" />
    <glyph glyph-name="uni25A3" unicode="&#x25a3;" horiz-adv-x="929" 
d="M829 -66v731h-730v-731h730zM880 -117h-832v833h832v-833zM721 42h-514v515h514v-515z" />
    <glyph glyph-name="uni25A4" unicode="&#x25a4;" horiz-adv-x="938" 
d="M839 602v68h-740v-68h740zM839 489v73h-740v-73h740zM839 376v74h-740v-74h740zM839 264v73h-740v-73h740zM839 151v73h-740v-73h740zM839 38v74h-740v-74h740zM839 -69v68h-740v-68h740zM890 -120h-842v841h842v-841z" />
    <glyph glyph-name="uni25A5" unicode="&#x25a5;" horiz-adv-x="937" 
d="M839 -70v740h-69v-740h69zM731 -70v740h-74v-740h74zM618 -70v740h-73v-740h73zM505 -70v740h-73v-740h73zM393 -70v740h-73v-740h73zM280 -70v740h-73v-740h73zM168 -70v740h-69v-740h69zM890 -121h-842v841h842v-841z" />
    <glyph glyph-name="uni25A6" unicode="&#x25a6;" horiz-adv-x="937" 
d="M839 601v69h-69v-69h69zM839 488v73h-69v-73h69zM839 375v74h-69v-74h69zM839 263v73h-69v-73h69zM839 150v74h-69v-74h69zM839 38v73h-69v-73h69zM839 -70v68h-69v-68h69zM731 601v69h-74v-69h74zM731 488v73h-74v-73h74zM731 375v74h-74v-74h74zM731 263v73h-74v-73h74
zM731 150v74h-74v-74h74zM731 38v73h-74v-73h74zM731 -70v68h-74v-68h74zM618 601v69h-73v-69h73zM618 488v73h-73v-73h73zM618 375v74h-73v-74h73zM618 263v73h-73v-73h73zM618 150v74h-73v-74h73zM618 38v73h-73v-73h73zM618 -70v68h-73v-68h73zM505 601v69h-73v-69h73z
M505 488v73h-73v-73h73zM505 375v74h-73v-74h73zM505 263v73h-73v-73h73zM505 150v74h-73v-74h73zM505 38v73h-73v-73h73zM505 -70v68h-73v-68h73zM393 601v69h-73v-69h73zM393 488v73h-73v-73h73zM393 375v74h-73v-74h73zM393 263v73h-73v-73h73zM393 150v74h-73v-74h73z
M393 38v73h-73v-73h73zM393 -70v68h-73v-68h73zM280 601v69h-73v-69h73zM280 488v73h-73v-73h73zM280 375v74h-73v-74h73zM280 263v73h-73v-73h73zM280 150v74h-73v-74h73zM280 38v73h-73v-73h73zM280 -70v68h-73v-68h73zM168 601v69h-69v-69h69zM168 488v73h-69v-73h69z
M168 375v74h-69v-74h69zM168 263v73h-69v-73h69zM168 150v74h-69v-74h69zM168 38v73h-69v-73h69zM168 -70v68h-69v-68h69zM890 -121h-842v841h842v-841z" />
    <glyph glyph-name="uni25A7" unicode="&#x25a7;" horiz-adv-x="940" 
d="M839 521v147h-148zM839 337v112l-220 219h-112zM839 152v112l-404 404h-112zM839 -32v112l-589 588h-112zM806 -71l-707 706v-112l595 -594h112zM621 -71l-522 522v-112l410 -410h112zM437 -71l-338 338v-112l226 -226h112zM253 -71l-154 153v-153h154zM890 -122h-842
v841h213l5 6l6 -6h172l6 6l6 -6h434v-433l4 -4l-4 -4v-400z" />
    <glyph glyph-name="uni25A8" unicode="&#x25a8;" horiz-adv-x="938" 
d="M247 -70l592 592v112l-704 -704h112zM431 -70l408 407v112l-520 -519h112zM615 -70l224 223v112l-335 -335h111zM839 -70v151l-151 -151h151zM99 -34l703 704h-112l-591 -592v-112zM99 151l519 519h-112l-407 -407v-112zM99 335l334 335h-112l-222 -223v-112zM99 520
l150 150h-150v-150zM890 -121h-842v841h842v-841z" />
    <glyph glyph-name="uni25A9" unicode="&#x25a9;" horiz-adv-x="938" 
d="M99 -42l56 56l-56 56v-112zM99 148l56 56l-56 56v-112zM99 339l56 56l-56 56v-112zM99 529l56 56l-56 56v-112zM183 613l57 57h-114zM278 518l67 67l-67 67l-67 -67zM373 613l57 57h-114zM468 518l67 67l-67 67l-67 -67zM563 613l57 57h-113zM658 518l67 67l-67 67
l-67 -67zM753 613l57 57h-113zM839 528v114l-58 -57zM839 338v114l-57 -57zM839 147v115l-58 -58zM839 -43v115l-58 -58zM810 -70l-57 56l-56 -56h113zM658 -53l67 67l-67 67l-67 -67zM620 -70l-57 56l-56 -56h113zM468 -53l67 67l-67 67l-67 -67zM430 -70l-57 56l-56 -56
h113zM278 -53l67 67l-67 67l-67 -67zM183 42l67 67l-67 67l-67 -67zM183 232l67 68l-67 67l-67 -67zM183 423l67 67l-67 67l-67 -67zM278 328l67 67l-67 67l-67 -67zM373 423l67 67l-67 67l-67 -67zM468 328l67 67l-67 67l-67 -67zM563 423l67 67l-67 67l-67 -67zM658 328
l68 67l-68 67l-67 -67zM754 423l67 67l-68 67l-67 -67zM754 232l67 68l-67 67l-68 -67zM753 42l68 67l-67 67l-68 -67zM658 137l68 67l-68 68l-67 -68zM563 42l67 67l-67 67l-67 -67zM563 232l67 68l-67 67l-67 -67zM468 137l67 67l-67 68l-67 -68zM373 42l67 67l-67 67
l-67 -67zM373 232l67 68l-67 67l-67 -67zM278 137l67 67l-67 68l-67 -68zM240 -70l-57 56l-56 -56h113zM890 -121h-842v841h842v-841z" />
    <glyph glyph-name="triagup" unicode="&#x25b2;" horiz-adv-x="979" 
d="M933 -46h-887l443 699z" />
    <glyph glyph-name="uni25B3" unicode="&#x25b3;" horiz-adv-x="984" 
d="M845 3l-353 556l-353 -556h706zM938 -48h-892l446 703z" />
    <glyph glyph-name="uni25B6" unicode="&#x25b6;" horiz-adv-x="793" 
d="M48 -144v887l699 -443z" />
    <glyph glyph-name="uni25B7" unicode="&#x25b7;" horiz-adv-x="797" 
d="M99 -53l557 353l-557 352v-705zM48 -147v893l703 -446z" />
    <glyph glyph-name="triagdn" unicode="&#x25bc;" horiz-adv-x="979" 
d="M489 -53l-443 699h887z" />
    <glyph glyph-name="uni25BD" unicode="&#x25bd;" horiz-adv-x="985" 
d="M492 41l353 556h-706zM492 -55l-446 703h892z" />
    <glyph glyph-name="uni25C0" unicode="&#x25c0;" horiz-adv-x="793" 
d="M745 -144l-699 444l699 443v-887z" />
    <glyph glyph-name="uni25C1" unicode="&#x25c1;" horiz-adv-x="797" 
d="M698 -53v705l-556 -352zM749 -146l-703 446l703 446v-892z" />
    <glyph glyph-name="uni25C6" unicode="&#x25c6;" horiz-adv-x="1091" 
d="M546 -199l-499 499l499 498l498 -498z" />
    <glyph glyph-name="uni25C7" unicode="&#x25c7;" horiz-adv-x="1089" 
d="M544 -125l425 425l-425 425l-425 -425zM544 -198l-497 498l497 497l498 -497z" />
    <glyph glyph-name="uni25C8" unicode="&#x25c8;" horiz-adv-x="1088" 
d="M544 -125l425 425l-425 425l-425 -425zM544 -198l-497 498l497 497l498 -497zM544 25l-274 275l274 274l275 -274z" />
    <glyph glyph-name="circle" unicode="&#x25cb;" horiz-adv-x="938" 
d="M469 -70q153 0 262 108.5t109 261.5t-109 261.5t-262 108.5t-261.5 -108.5t-108.5 -261.5t108.5 -261.5t261.5 -108.5zM469 -121q-174 0 -297.5 123.5t-123.5 297.5t123.5 297.5t297.5 123.5q175 0 298 -123.5t123 -297.5t-123 -297.5t-298 -123.5z" />
    <glyph glyph-name="uni25CE" unicode="&#x25ce;" horiz-adv-x="984" 
d="M492 -93q162 0 277.5 115.5t115.5 277.5q0 163 -115.5 278t-277.5 115t-277.5 -115t-115.5 -278q0 -162 115.5 -277.5t277.5 -115.5zM492 -144q-184 0 -314 130t-130 314t130 314t314 130t314 -130t130 -314t-130 -314t-314 -130zM492 72q94 0 161.5 67t67.5 161
q0 95 -67.5 162t-161.5 67t-161.5 -67t-67.5 -162q0 -94 67.5 -161t161.5 -67zM492 21q-116 0 -198 81.5t-82 197.5t82 198t198 82t198 -82t82 -198t-82 -197.5t-198 -81.5z" />
    <glyph glyph-name="H18533" unicode="&#x25cf;" horiz-adv-x="934" 
d="M467 -119q-174 0 -296.5 122.5t-122.5 296.5t122.5 296.5t296.5 122.5t296.5 -122.5t122.5 -296.5t-122.5 -296.5t-296.5 -122.5z" />
    <glyph glyph-name="uni25D0" unicode="&#x25d0;" horiz-adv-x="984" 
d="M499 -93q158 3 271 115q115 116 115 278q0 163 -114.5 277t-271.5 124v-794zM492 -144q-184 0 -314 130t-130 314t130 314t314 130t314 -130t130 -314t-130 -314t-314 -130z" />
    <glyph glyph-name="uni25D1" unicode="&#x25d1;" horiz-adv-x="984" 
d="M489 -101v794q-159 0 -274.5 -115t-115.5 -278q0 -162 114.5 -276.5t275.5 -124.5zM491 -144q-183 0 -313 130t-130 314t130 314t313 130q185 0 315 -130t130 -314t-130 -314t-315 -130z" />
    <glyph glyph-name="uni2605" unicode="&#x2605;" horiz-adv-x="1042" 
d="M816 -151l-295 215l-295 -215l113 346l-295 215h365l112 346l112 -346h365l-295 -215z" />
    <glyph glyph-name="uni2606" unicode="&#x2606;" horiz-adv-x="1054" 
d="M728 -24l-77 237l201 146h-248l-77 238l-78 -238h-248l201 -146l-77 -237l202 146zM825 -157l-298 217l-299 -217l115 351l-299 216h369l114 351l113 -351h369l-298 -216z" />
    <glyph glyph-name="uni260E" unicode="&#x260e;" horiz-adv-x="1085" 
d="M327 398l-2 -4q18 73 18 97q-37 -7 -37 -19q0 -3 9 -22q15 -25 15 -34zM614 478v27q-25 1 -72 1q-46 0 -72 -1v-27h144zM540 41q69 0 117.5 48.5t48.5 117.5q0 68 -48.5 117t-117.5 49q-68 0 -117 -49t-49 -117q0 -69 49 -117.5t117 -48.5zM755 418q0 8 14 32
q10 17 10 22q0 12 -38 19q0 -23 14 -73zM966 -60h-848v26q0 74 27 98q3 124 73 189q64 50 92 113q-14 -21 -137 -47q-54 -12 -76 -12l-11 1q-20 1 -30 18q-8 21 -8 67q0 268 494 268q185 0 274 -26q221 -67 221 -249q-3 -63 -22 -74q-11 -5 -28 -5q-21 0 -75 12
q-117 24 -137 48q29 -65 91 -114q70 -65 73 -189q27 -24 27 -124z" />
    <glyph glyph-name="uni260F" unicode="&#x260f;" horiz-adv-x="1085" 
d="M541 58q61 0 105 43.5t44 105.5q0 61 -44 105t-105 44q-62 0 -105.5 -44t-43.5 -105q0 -62 43.5 -105.5t105.5 -43.5zM541 7q-83 0 -141.5 58.5t-58.5 141.5t58.5 141.5t141.5 58.5t141.5 -58.5t58.5 -141.5t-58.5 -141.5t-141.5 -58.5zM755 419q0 8 13 31q10 17 10 22
q0 12 -36 19q0 -23 13 -72zM985 358q2 5 2 24t-4 45q-8 51 -51 92q-51 44 -132.5 67.5t-256.5 23.5t-256.5 -23.5t-132.5 -67.5q-43 -41 -51 -92q-3 -26 -3 -45t2 -24q21 0 62 10q97 23 116 40q-1 5 -9 17q-15 27 -15 48q0 15 9 33q41 51 278 51q128 0 207.5 -16t79.5 -69
q0 -20 -15 -47q-8 -12 -9 -17q20 -17 115 -40q42 -10 64 -10zM615 478v27q-26 1 -72 1t-72 -1v-27h144zM915 -9q-3 29 -14.5 100t-66.5 123q-84 68 -124 173q-19 75 -19 112l-25 2v-74h-246v74l-25 -2q0 -37 -19 -112q-40 -105 -124 -173q-55 -52 -81 -223h744zM967 -60
h-848q0 215 100 312q61 50 92 117q-14 -15 -82 -37q-82 -25 -131 -25l-11 1q-20 1 -30 18q-9 23 -9 62q0 180 221 247q89 26 274 26q494 0 494 -268q0 -69 -22 -81q-9 -5 -27 -5q-25 0 -61 8q-122 25 -154 55q33 -69 94 -117q70 -65 85 -154t15 -159zM330 418q14 50 14 73
q-38 -7 -38 -19q0 -5 10 -22q14 -24 14 -32z" />
    <glyph glyph-name="uni261C" unicode="&#x261c;" horiz-adv-x="956" 
d="M359 389q1 3 8.5 10.5t13.5 19.5t7 13l-275 -6q-18 -2 -19 -13q0 -17 265 -24zM552 166q158 0 209 64h40v131l-15 1q0 -22 -19 -22q-13 0 -21 12q-27 49 -68 65t-105 16h-46q-89 -3 -107 -39q-3 -7 -18 -25q17 5 34 20q23 26 31 26t16 -5.5t8 -15.5q5 -7 13 -7
q12 0 31 15q7 5 16 5q21 0 21 -21q0 -14 -12 -22q53 -53 156 -53q22 0 22 -22q0 -23 -22 -23q-132 0 -201 80h-3q3 -3 5 -28q0 -16 -4 -20q22 -13 22 -46q0 -15 -4 -20q23 -15 23 -44q0 -20 -2 -22zM442 170q41 2 64 14q2 1 2 4q-1 12 -24 12q-37 -8 -80 -8q-18 0 -35 1
q-3 0 -5 -10q0 -13 78 -13zM400 237q90 0 90 17q0 13 -35 15q-32 -4 -56 -4q-44 0 -56 -3q-2 0 -4 -9q0 -3 3 -8q4 -8 58 -8zM358 309l43 1q59 0 71 9q-4 17 -36 17q-11 -6 -29 -8q-41 0 -50 15q-42 0 -42 -24q0 -10 43 -10zM863 204v192h-17v-192h17zM520 121
q-119 0 -161 9q-40 13 -40 54q0 15 3 19q-28 12 -28 50q0 15 3 20q-28 11 -28 51l1 23q-119 5 -164 12q-58 12 -58 55q0 23 19 39t45 18q31 0 174 4q108 3 287 3q52 0 102.5 -12.5t88.5 -58.5l37 -1v35h107v-282h-107v25h-21q-74 -63 -260 -63z" />
    <glyph glyph-name="uni261E" unicode="&#x261e;" horiz-adv-x="955" 
d="M597 389q265 7 265 24q-1 11 -19 13l-275 6q1 -1 7 -13t13.5 -19.5t8.5 -10.5zM404 166q-2 2 -2 22q0 29 23 44q-4 5 -4 20q0 33 22 46q-4 4 -4 20q2 25 5 28h-3q-69 -80 -201 -80q-22 0 -22 23q0 22 22 22q103 0 156 53q-12 8 -12 22q0 21 21 21q9 0 16 -5
q19 -15 31 -15q8 0 13 7q0 10 8 15.5t16 5.5t31 -26q17 -15 34 -20q-15 18 -18 25q-18 36 -107 39h-46q-64 0 -105 -16t-68 -65q-8 -12 -21 -12q-19 0 -19 22l-15 -1v-131h40q51 -64 209 -64zM533 170q59 0 59 13q-2 10 -5 10q-17 -1 -35 -1q-43 0 -80 8q-23 0 -24 -12
q0 -3 2 -4q24 -13 83 -14zM556 237q54 0 58 8q3 5 3 8q-2 9 -4 9q-12 3 -56 3q-24 0 -56 4q-35 -2 -35 -15q0 -17 90 -17zM598 309q43 0 43 10q0 24 -42 24q-9 -15 -50 -15q-18 2 -29 8q-32 0 -36 -17q12 -9 71 -9zM110 204v192h-17v-192h17zM436 121q-186 0 -260 63h-21
v-25h-107v282h107v-35l37 1q38 46 88.5 58.5t102.5 12.5q179 0 287 -3q143 -4 174 -4q26 -2 45 -18t19 -39q0 -43 -58 -55q-45 -7 -164 -12l1 -23q0 -40 -28 -51q3 -5 3 -20q0 -38 -28 -50q3 -4 3 -19q0 -41 -40 -54q-42 -9 -161 -9z" />
    <glyph glyph-name="spade" unicode="&#x2660;" horiz-adv-x="826" 
d="M412 -170q-136 0 -136 27q18 30 44 136q7 29 8 44q-55 -31 -115 -31q-40 0 -76 17q-89 43 -89 159t110 274t206 262l49 56l49 -56q96 -104 206 -262t110 -274t-90 -159q-37 -18 -76 -18q-61 0 -116 32q1 -14 8 -44q26 -106 44 -136q0 -27 -136 -27z" />
    <glyph glyph-name="uni2661" unicode="&#x2661;" horiz-adv-x="879" 
d="M440 -65l39 38q301 317 301 535q0 63 -27 99.5t-63 52t-60 15.5q-42 0 -86.5 -37t-79.5 -174q-4 -20 -24 -20q-21 0 -25 20q-34 137 -78.5 174t-87.5 37q-24 0 -60 -15.5t-63 -52t-27 -99.5q0 -235 341 -573zM440 -126q-14 0 -75 64q-317 313 -317 570q0 113 69 165.5
t132 52.5q141 0 191 -163q49 163 190 163q63 0 132 -52.5t69 -165.5q0 -257 -317 -570q-61 -64 -74 -64z" />
    <glyph glyph-name="club" unicode="&#x2663;" horiz-adv-x="996" 
d="M538 -165h-79q-88 0 -88 22q0 8 2.5 51t11 91t8.5 47q-62 -59 -155 -59q-65 0 -118 46q-65 57 -72 163q1 104 63 158.5t120 54.5q61 0 95 -15t60 -33q3 -2 6 -2q10 0 10 10q0 14 -24.5 34t-56 61.5t-31.5 118.5q0 121 118 167q47 17 81 17q52 0 99 -17q118 -46 118 -167
q0 -78 -31.5 -119t-56 -61t-24.5 -33q1 -11 10 -11q2 0 14 7q53 43 147 43q58 0 120 -54.5t63 -158.5q-7 -106 -72 -163q-53 -46 -118 -46q-93 0 -155 59q0 1 8.5 -47t11 -91t2.5 -51q0 -22 -87 -22z" />
    <glyph glyph-name="uni2664" unicode="&#x2664;" horiz-adv-x="815" 
d="M406 -111q58 0 70 3q-10 31 -34 134l-9 86q0 27 26 27q7 0 13 -4q82 -49 149 -50q95 0 95 108q0 145 -288 481l-21 24l-21 -24q-287 -336 -287 -481q0 -106 95 -108q63 0 147 49q6 4 13 4q25 0 25 -26q-8 -109 -43 -220q13 -3 70 -3zM406 -162q-97 0 -116 18
q-11 9 -11 22q0 6 3 13q5 13 38 147q4 11 5 30q-67 -34 -131 -34q-140 0 -146 159q0 179 300 514l41 46q8 9 18 9q12 0 20 -9l39 -46q301 -332 301 -514q0 -77 -43 -119q-39 -40 -103 -40q-67 0 -133 34l4 -32q33 -132 39 -145q3 -7 3 -13q0 -8 -4 -15q-13 -25 -124 -25z
" />
    <glyph glyph-name="heart" unicode="&#x2665;" horiz-adv-x="884" 
d="M442 -133q-196 185 -303 364q-91 153 -91 288q0 112 68.5 161.5t124.5 49.5q65 0 119 -36.5t82 -150.5q27 114 81 150.5t119 36.5q57 0 125 -49.5t68 -161.5q0 -135 -91 -288q-107 -179 -302 -364z" />
    <glyph glyph-name="uni2667" unicode="&#x2667;" horiz-adv-x="989" 
d="M494 -114q70 0 77 2q0 15 -4 61.5t-12.5 95t-22.5 74.5q-3 7 -3 13q2 25 25 25q11 0 21 -9q1 -2 21 -24q79 -77 157 -77q49 0 91 36q46 42 46 123q0 65 -37 105q-43 42 -103 42q-54 0 -87 -16q-48 -22 -58 -32q-13 -5 -22 -5q-23 0 -38 24q-11 23 -11 51q0 34 38 62
q26 18 53 50t27 84q0 78 -53.5 110t-95.5 32q-36 0 -72 -12q-94 -29 -94 -130q0 -52 26.5 -84t53.5 -50q22 -16 30 -30t8 -35q0 -25 -11 -48q-15 -24 -38 -24q-15 0 -28 10q-63 43 -140 43q-58 0 -102 -42q-37 -40 -37 -102q0 -84 46 -126q42 -36 91 -36q79 0 157 77
q20 22 21 24q10 9 21 9q8 0 14 -4q11 -8 11 -22q0 -7 -4 -12q-13 -26 -21.5 -74.5t-12.5 -95t-5 -61.5q9 -2 77 -2zM503 -165q-74 0 -105.5 4.5t-31.5 34.5q0 1 1.5 32.5t6 76.5t9.5 65q-35 -30 -116 -50q-15 -2 -31 -2q-66 0 -123 49q-63 54 -65 163q0 83 52 137
q61 59 138 59q95 0 168 -52h-1l-2 2q1 3 1 19q0 6 -2 10t-16 13q-31 23 -65.5 63.5t-34.5 111.5q0 100 68.5 146.5t131.5 46.5h17q62 0 131 -46.5t69 -146.5q0 -71 -35 -111.5t-65 -63.5q-18 -15 -18 -18q0 -18 3 -24l6 6q60 44 156 44q78 0 138 -59q53 -55 53 -146
q-7 -104 -65 -153.5t-123 -49.5q-16 0 -32 2q-80 19 -114 50q4 -20 8.5 -65t6 -76.5t1.5 -32.5q0 -30 -31 -34.5t-89 -4.5z" />
    <glyph glyph-name="uni2668" unicode="&#x2668;" horiz-adv-x="951" 
d="M326 -8q-11 0 -21.5 25t-10.5 52q0 32 19 91q15 50 15 78q0 44 -28 126q-21 66 -21 104q0 48 30 89q30 47 35 124q0 12 11 12q11 -2 11 -7t1 -6q2 -19 2 -36q0 -64 -36 -125q-10 -20 -10 -44q0 -34 25 -105.5t25 -129.5q0 -51 -22 -110q-13 -40 -15.5 -52t-5.5 -21
t-3 -17q0 -14 10 -36q0 -12 -11 -12zM459 -24q-6 0 -10 6q-15 28 -15 58q0 47 30 112q25 49 25 93q0 36 -37 147q-19 51 -22 100q2 52 33 115q26 45 26 83q0 20 -6 40q0 13 12 13q10 0 10 -9q15 -30 15 -64q0 -39 -27 -94q-19 -35 -19 -76q4 -47 26 -106q36 -98 36 -152
q0 -47 -30 -108q-37 -67 -37 -127q0 -8 2 -17q0 -14 -12 -14zM583 -3q-11 0 -11 33q0 29 10.5 56t38.5 87q17 40 21 79q-1 45 -16 86l-11 30q-30 64 -30 131q0 37 20 85q19 39 19 81l-1 16l6 13l13 -8q10 -28 10 -54q0 -30 -17 -85q-7 -19 -7 -33q0 -67 35 -148
q22 -63 22 -109q-2 -42 -19 -83l-45 -92q-24 -34 -26 -74q0 -11 -12 -11zM470 -139q-97 0 -191 20q-130 25 -193 93q-38 39 -38 83q0 97 174 176q18 6 36 6q23 0 23 -15q0 -11 -11 -13q-81 -23 -140 -86q-33 -32 -33 -61q3 -39 47 -63q77 -48 167 -62q79 -12 160 -12
q109 0 188 14.5t145 62.5q54 40 54 90q0 8 -2 16q-16 67 -108 84q-41 10 -41 23q0 11 12 12q115 -10 155 -76q29 -43 29 -83q0 -72 -79 -123q-139 -85 -303 -85z" />
    <glyph glyph-name="uni2669" unicode="&#x2669;" horiz-adv-x="331" 
d="M132 -108h-8q-40 0 -63 27q-13 20 -13 44q0 57 62 108q51 34 102 38v602h69v-633q2 -11 2 -23q0 -71 -63 -129q-44 -32 -88 -34z" />
    <glyph glyph-name="musicalnote" unicode="&#x266a;" horiz-adv-x="570" 
d="M132 -109h-8q-39 0 -62 27q-14 20 -14 45q0 58 62 107q51 35 103 39q0 566 -1 575q0 27 26 27q14 0 31.5 -27t80.5 -84q68 -59 120 -129.5t52 -160.5q-5 -104 -104 -182q-51 -40 -70 -40q-12 0 -12 10q0 8 10 15.5t32 35.5q64 76 69 167q-1 40 -33 70.5t-74.5 50.5
t-58.5 25v-385q2 -12 2 -25q0 -70 -63 -127q-43 -32 -88 -34z" />
    <glyph glyph-name="uni266C" unicode="&#x266c;" horiz-adv-x="764" 
d="M281 448l365 74v44l-365 -74v-44zM132 -100h-8q-40 0 -63 27q-13 20 -13 44q0 57 62 107q51 35 102 39v487l502 100v-507q2 -12 2 -24q0 -70 -63 -128q-46 -34 -93 -34q-41 0 -65 28q-14 19 -14 44q0 58 63 107q50 35 102 39v168l-365 -75v-236q2 -11 2 -23
q0 -71 -63 -129q-44 -32 -88 -34z" />
    <glyph glyph-name="uni266D" unicode="&#x266d;" horiz-adv-x="468" 
d="M142 -2q45 0 104 42q76 66 76 177q0 44 -15 82q-23 47 -72 47q-62 0 -95 -85v-263h2zM48 -78v756h92v-330q43 69 131 69q85 0 124 -70q25 -53 25 -111q0 -149 -119 -239q-101 -69 -209 -73z" />
    <glyph glyph-name="uni266F" unicode="&#x266f;" horiz-adv-x="627" 
d="M376 217l24 167h-142l-24 -167h142zM401 -76h-65l33 237h-142l-33 -237h-64l32 237h-112v56h120l23 167h-111v56h118l33 236h65l-33 -236h142l33 236h64l-32 -236h105v-56h-112l-24 -167h104v-56h-111z" />
    <glyph glyph-name="uni3002" unicode="&#x3002;" horiz-adv-x="130" 
 />
    <glyph glyph-name="uni3008" unicode="&#x3008;" horiz-adv-x="580" 
d="M484 -152l-434 452l434 452l46 -44l-391 -408l391 -408z" />
    <glyph glyph-name="uni3009" unicode="&#x3009;" horiz-adv-x="580" 
d="M96 -152l-46 44l391 408l-391 408l46 44l434 -452z" />
    <glyph glyph-name="uni3013" unicode="&#x3013;" horiz-adv-x="648" 
d="M598 372h-548v72h548v-72zM598 156h-548v72h548v-72z" />
    <glyph glyph-name="uni301C" unicode="&#x301c;" horiz-adv-x="617" 
d="M426 219q-63 0 -145 44q-56 28 -91 28q-48 0 -91 -65l-49 43q38 58 95 85q20 9 45 9q49 0 122 -36.5t115 -36.5q53 0 91 61l50 -42q-60 -90 -142 -90z" />
    <glyph glyph-name="uni3041" unicode="&#x3041;" horiz-adv-x="130" 
 />
    <glyph glyph-name="uni3042" unicode="&#x3042;" horiz-adv-x="130" 
 />
    <glyph glyph-name="uni3043" unicode="&#x3043;" horiz-adv-x="130" 
 />
    <glyph glyph-name="uni3044" unicode="&#x3044;" horiz-adv-x="130" 
 />
    <glyph glyph-name="uni3045" unicode="&#x3045;" horiz-adv-x="130" 
 />
    <glyph glyph-name="uni3046" unicode="&#x3046;" horiz-adv-x="130" 
 />
    <glyph glyph-name="uni3047" unicode="&#x3047;" horiz-adv-x="130" 
 />
    <glyph glyph-name="uni3048" unicode="&#x3048;" horiz-adv-x="130" 
 />
    <glyph glyph-name="uni3049" unicode="&#x3049;" horiz-adv-x="130" 
 />
    <glyph glyph-name="uni304A" unicode="&#x304a;" horiz-adv-x="130" 
 />
    <glyph glyph-name="uni304B" unicode="&#x304b;" horiz-adv-x="130" 
 />
    <glyph glyph-name="uni304C" unicode="&#x304c;" horiz-adv-x="130" 
 />
    <glyph glyph-name="uni304D" unicode="&#x304d;" horiz-adv-x="130" 
 />
    <glyph glyph-name="uni304E" unicode="&#x304e;" horiz-adv-x="130" 
 />
    <glyph glyph-name="uni304F" unicode="&#x304f;" horiz-adv-x="130" 
 />
    <glyph glyph-name="uni3050" unicode="&#x3050;" horiz-adv-x="130" 
 />
    <glyph glyph-name="uni3051" unicode="&#x3051;" horiz-adv-x="130" 
 />
    <glyph glyph-name="uni3052" unicode="&#x3052;" horiz-adv-x="130" 
 />
    <glyph glyph-name="uni3053" unicode="&#x3053;" horiz-adv-x="130" 
 />
    <glyph glyph-name="uni3054" unicode="&#x3054;" horiz-adv-x="130" 
 />
    <glyph glyph-name="uni3055" unicode="&#x3055;" horiz-adv-x="130" 
 />
    <glyph glyph-name="uni3056" unicode="&#x3056;" horiz-adv-x="130" 
 />
    <glyph glyph-name="uni3057" unicode="&#x3057;" horiz-adv-x="130" 
 />
    <glyph glyph-name="uni3058" unicode="&#x3058;" horiz-adv-x="130" 
 />
    <glyph glyph-name="uni3059" unicode="&#x3059;" horiz-adv-x="130" 
 />
    <glyph glyph-name="uni305A" unicode="&#x305a;" horiz-adv-x="130" 
 />
    <glyph glyph-name="uni305B" unicode="&#x305b;" horiz-adv-x="130" 
 />
    <glyph glyph-name="uni305C" unicode="&#x305c;" horiz-adv-x="130" 
 />
    <glyph glyph-name="uni305D" unicode="&#x305d;" horiz-adv-x="130" 
 />
    <glyph glyph-name="uni305E" unicode="&#x305e;" horiz-adv-x="130" 
 />
    <glyph glyph-name="uni305F" unicode="&#x305f;" horiz-adv-x="130" 
 />
    <glyph glyph-name="uni3060" unicode="&#x3060;" horiz-adv-x="130" 
 />
    <glyph glyph-name="uni3061" unicode="&#x3061;" horiz-adv-x="130" 
 />
    <glyph glyph-name="uni3062" unicode="&#x3062;" horiz-adv-x="130" 
 />
    <glyph glyph-name="uni3063" unicode="&#x3063;" horiz-adv-x="130" 
 />
    <glyph glyph-name="uni3064" unicode="&#x3064;" horiz-adv-x="130" 
 />
    <glyph glyph-name="uni3065" unicode="&#x3065;" horiz-adv-x="130" 
 />
    <glyph glyph-name="uni3066" unicode="&#x3066;" horiz-adv-x="130" 
 />
    <glyph glyph-name="uni3067" unicode="&#x3067;" horiz-adv-x="130" 
 />
    <glyph glyph-name="uni3068" unicode="&#x3068;" horiz-adv-x="130" 
 />
    <glyph glyph-name="uni3069" unicode="&#x3069;" horiz-adv-x="130" 
 />
    <glyph glyph-name="uni306A" unicode="&#x306a;" horiz-adv-x="130" 
 />
    <glyph glyph-name="uni306B" unicode="&#x306b;" horiz-adv-x="130" 
 />
    <glyph glyph-name="uni306C" unicode="&#x306c;" horiz-adv-x="130" 
 />
    <glyph glyph-name="uni306D" unicode="&#x306d;" horiz-adv-x="130" 
 />
    <glyph glyph-name="uni306E" unicode="&#x306e;" horiz-adv-x="130" 
 />
    <glyph glyph-name="uni306F" unicode="&#x306f;" horiz-adv-x="130" 
 />
    <glyph glyph-name="uni3070" unicode="&#x3070;" horiz-adv-x="130" 
 />
    <glyph glyph-name="uni3071" unicode="&#x3071;" horiz-adv-x="130" 
 />
    <glyph glyph-name="uni3072" unicode="&#x3072;" horiz-adv-x="130" 
 />
    <glyph glyph-name="uni3073" unicode="&#x3073;" horiz-adv-x="130" 
 />
    <glyph glyph-name="uni3074" unicode="&#x3074;" horiz-adv-x="130" 
 />
    <glyph glyph-name="uni3075" unicode="&#x3075;" horiz-adv-x="130" 
 />
    <glyph glyph-name="uni3076" unicode="&#x3076;" horiz-adv-x="130" 
 />
    <glyph glyph-name="uni3077" unicode="&#x3077;" horiz-adv-x="130" 
 />
    <glyph glyph-name="uni3078" unicode="&#x3078;" horiz-adv-x="130" 
 />
    <glyph glyph-name="uni3079" unicode="&#x3079;" horiz-adv-x="130" 
 />
    <glyph glyph-name="uni307A" unicode="&#x307a;" horiz-adv-x="130" 
 />
    <glyph glyph-name="uni307B" unicode="&#x307b;" horiz-adv-x="130" 
 />
    <glyph glyph-name="uni307C" unicode="&#x307c;" horiz-adv-x="130" 
 />
    <glyph glyph-name="uni307D" unicode="&#x307d;" horiz-adv-x="130" 
 />
    <glyph glyph-name="uni307E" unicode="&#x307e;" horiz-adv-x="130" 
 />
    <glyph glyph-name="uni307F" unicode="&#x307f;" horiz-adv-x="130" 
 />
    <glyph glyph-name="uni3080" unicode="&#x3080;" horiz-adv-x="130" 
 />
    <glyph glyph-name="uni3081" unicode="&#x3081;" horiz-adv-x="130" 
 />
    <glyph glyph-name="uni3082" unicode="&#x3082;" horiz-adv-x="130" 
 />
    <glyph glyph-name="uni3083" unicode="&#x3083;" horiz-adv-x="130" 
 />
    <glyph glyph-name="uni3084" unicode="&#x3084;" horiz-adv-x="130" 
 />
    <glyph glyph-name="uni3085" unicode="&#x3085;" horiz-adv-x="130" 
 />
    <glyph glyph-name="uni3086" unicode="&#x3086;" horiz-adv-x="130" 
 />
    <glyph glyph-name="uni3087" unicode="&#x3087;" horiz-adv-x="130" 
 />
    <glyph glyph-name="uni3088" unicode="&#x3088;" horiz-adv-x="130" 
 />
    <glyph glyph-name="uni3089" unicode="&#x3089;" horiz-adv-x="130" 
 />
    <glyph glyph-name="uni308A" unicode="&#x308a;" horiz-adv-x="130" 
 />
    <glyph glyph-name="uni308B" unicode="&#x308b;" horiz-adv-x="130" 
 />
    <glyph glyph-name="uni308C" unicode="&#x308c;" horiz-adv-x="130" 
 />
    <glyph glyph-name="uni308D" unicode="&#x308d;" horiz-adv-x="130" 
 />
    <glyph glyph-name="uni308E" unicode="&#x308e;" horiz-adv-x="130" 
 />
    <glyph glyph-name="uni308F" unicode="&#x308f;" horiz-adv-x="130" 
 />
    <glyph glyph-name="uni3090" unicode="&#x3090;" horiz-adv-x="130" 
 />
    <glyph glyph-name="uni3091" unicode="&#x3091;" horiz-adv-x="130" 
 />
    <glyph glyph-name="uni3092" unicode="&#x3092;" horiz-adv-x="130" 
 />
    <glyph glyph-name="uni3093" unicode="&#x3093;" horiz-adv-x="130" 
 />
    <glyph glyph-name="uni30A1" unicode="&#x30a1;" horiz-adv-x="130" 
 />
    <glyph glyph-name="uni30A2" unicode="&#x30a2;" horiz-adv-x="130" 
 />
    <glyph glyph-name="uni30A3" unicode="&#x30a3;" horiz-adv-x="130" 
 />
    <glyph glyph-name="uni30A4" unicode="&#x30a4;" horiz-adv-x="130" 
 />
    <glyph glyph-name="uni30A5" unicode="&#x30a5;" horiz-adv-x="130" 
 />
    <glyph glyph-name="uni30A6" unicode="&#x30a6;" horiz-adv-x="130" 
 />
    <glyph glyph-name="uni30A7" unicode="&#x30a7;" horiz-adv-x="130" 
 />
    <glyph glyph-name="uni30A8" unicode="&#x30a8;" horiz-adv-x="130" 
 />
    <glyph glyph-name="uni30A9" unicode="&#x30a9;" horiz-adv-x="130" 
 />
    <glyph glyph-name="uni30AA" unicode="&#x30aa;" horiz-adv-x="130" 
 />
    <glyph glyph-name="uni30AB" unicode="&#x30ab;" horiz-adv-x="130" 
 />
    <glyph glyph-name="uni30AC" unicode="&#x30ac;" horiz-adv-x="130" 
 />
    <glyph glyph-name="uni30AD" unicode="&#x30ad;" horiz-adv-x="130" 
 />
    <glyph glyph-name="uni30AE" unicode="&#x30ae;" horiz-adv-x="130" 
 />
    <glyph glyph-name="uni30AF" unicode="&#x30af;" horiz-adv-x="130" 
 />
    <glyph glyph-name="uni30B0" unicode="&#x30b0;" horiz-adv-x="130" 
 />
    <glyph glyph-name="uni30B1" unicode="&#x30b1;" horiz-adv-x="130" 
 />
    <glyph glyph-name="uni30B2" unicode="&#x30b2;" horiz-adv-x="130" 
 />
    <glyph glyph-name="uni30B3" unicode="&#x30b3;" horiz-adv-x="130" 
 />
    <glyph glyph-name="uni30B4" unicode="&#x30b4;" horiz-adv-x="130" 
 />
    <glyph glyph-name="uni30B5" unicode="&#x30b5;" horiz-adv-x="130" 
 />
    <glyph glyph-name="uni30B6" unicode="&#x30b6;" horiz-adv-x="130" 
 />
    <glyph glyph-name="uni30B7" unicode="&#x30b7;" horiz-adv-x="130" 
 />
    <glyph glyph-name="uni30B8" unicode="&#x30b8;" horiz-adv-x="130" 
 />
    <glyph glyph-name="uni30B9" unicode="&#x30b9;" horiz-adv-x="130" 
 />
    <glyph glyph-name="uni30BA" unicode="&#x30ba;" horiz-adv-x="130" 
 />
    <glyph glyph-name="uni30BB" unicode="&#x30bb;" horiz-adv-x="130" 
 />
    <glyph glyph-name="uni30BC" unicode="&#x30bc;" horiz-adv-x="130" 
 />
    <glyph glyph-name="uni30BD" unicode="&#x30bd;" horiz-adv-x="130" 
 />
    <glyph glyph-name="uni30BE" unicode="&#x30be;" horiz-adv-x="130" 
 />
    <glyph glyph-name="uni30BF" unicode="&#x30bf;" horiz-adv-x="130" 
 />
    <glyph glyph-name="uni30C0" unicode="&#x30c0;" horiz-adv-x="130" 
 />
    <glyph glyph-name="uni30C1" unicode="&#x30c1;" horiz-adv-x="130" 
 />
    <glyph glyph-name="uni30C2" unicode="&#x30c2;" horiz-adv-x="130" 
 />
    <glyph glyph-name="uni30C3" unicode="&#x30c3;" horiz-adv-x="130" 
 />
    <glyph glyph-name="uni30C4" unicode="&#x30c4;" horiz-adv-x="130" 
 />
    <glyph glyph-name="uni30C5" unicode="&#x30c5;" horiz-adv-x="130" 
 />
    <glyph glyph-name="uni30C6" unicode="&#x30c6;" horiz-adv-x="130" 
 />
    <glyph glyph-name="uni30C7" unicode="&#x30c7;" horiz-adv-x="130" 
 />
    <glyph glyph-name="uni30C8" unicode="&#x30c8;" horiz-adv-x="130" 
 />
    <glyph glyph-name="uni30C9" unicode="&#x30c9;" horiz-adv-x="130" 
 />
    <glyph glyph-name="uni30CA" unicode="&#x30ca;" horiz-adv-x="130" 
 />
    <glyph glyph-name="uni30CB" unicode="&#x30cb;" horiz-adv-x="130" 
 />
    <glyph glyph-name="uni30CC" unicode="&#x30cc;" horiz-adv-x="130" 
 />
    <glyph glyph-name="uni30CD" unicode="&#x30cd;" horiz-adv-x="130" 
 />
    <glyph glyph-name="uni30CE" unicode="&#x30ce;" horiz-adv-x="130" 
 />
    <glyph glyph-name="uni30CF" unicode="&#x30cf;" horiz-adv-x="130" 
 />
    <glyph glyph-name="uni30D0" unicode="&#x30d0;" horiz-adv-x="130" 
 />
    <glyph glyph-name="uni30D1" unicode="&#x30d1;" horiz-adv-x="130" 
 />
    <glyph glyph-name="uni30D2" unicode="&#x30d2;" horiz-adv-x="130" 
 />
    <glyph glyph-name="uni30D3" unicode="&#x30d3;" horiz-adv-x="130" 
 />
    <glyph glyph-name="uni30D4" unicode="&#x30d4;" horiz-adv-x="130" 
 />
    <glyph glyph-name="uni30D5" unicode="&#x30d5;" horiz-adv-x="130" 
 />
    <glyph glyph-name="uni30D6" unicode="&#x30d6;" horiz-adv-x="130" 
 />
    <glyph glyph-name="uni30D7" unicode="&#x30d7;" horiz-adv-x="130" 
 />
    <glyph glyph-name="uni30D8" unicode="&#x30d8;" horiz-adv-x="130" 
 />
    <glyph glyph-name="uni30D9" unicode="&#x30d9;" horiz-adv-x="130" 
 />
    <glyph glyph-name="uni30DA" unicode="&#x30da;" horiz-adv-x="130" 
 />
    <glyph glyph-name="uni30DB" unicode="&#x30db;" horiz-adv-x="130" 
 />
    <glyph glyph-name="uni30DC" unicode="&#x30dc;" horiz-adv-x="130" 
 />
    <glyph glyph-name="uni30DD" unicode="&#x30dd;" horiz-adv-x="130" 
 />
    <glyph glyph-name="uni30DE" unicode="&#x30de;" horiz-adv-x="130" 
 />
    <glyph glyph-name="uni30DF" unicode="&#x30df;" horiz-adv-x="130" 
 />
    <glyph glyph-name="uni30E0" unicode="&#x30e0;" horiz-adv-x="130" 
 />
    <glyph glyph-name="uni30E1" unicode="&#x30e1;" horiz-adv-x="130" 
 />
    <glyph glyph-name="uni30E2" unicode="&#x30e2;" horiz-adv-x="130" 
 />
    <glyph glyph-name="uni30E3" unicode="&#x30e3;" horiz-adv-x="130" 
 />
    <glyph glyph-name="uni30E4" unicode="&#x30e4;" horiz-adv-x="130" 
 />
    <glyph glyph-name="uni30E5" unicode="&#x30e5;" horiz-adv-x="130" 
 />
    <glyph glyph-name="uni30E6" unicode="&#x30e6;" horiz-adv-x="130" 
 />
    <glyph glyph-name="uni30E7" unicode="&#x30e7;" horiz-adv-x="130" 
 />
    <glyph glyph-name="uni30E8" unicode="&#x30e8;" horiz-adv-x="130" 
 />
    <glyph glyph-name="uni30E9" unicode="&#x30e9;" horiz-adv-x="130" 
 />
    <glyph glyph-name="uni30EA" unicode="&#x30ea;" horiz-adv-x="130" 
 />
    <glyph glyph-name="uni30EB" unicode="&#x30eb;" horiz-adv-x="130" 
 />
    <glyph glyph-name="uni30EC" unicode="&#x30ec;" horiz-adv-x="130" 
 />
    <glyph glyph-name="uni30ED" unicode="&#x30ed;" horiz-adv-x="130" 
 />
    <glyph glyph-name="uni30EE" unicode="&#x30ee;" horiz-adv-x="130" 
 />
    <glyph glyph-name="uni30EF" unicode="&#x30ef;" horiz-adv-x="130" 
 />
    <glyph glyph-name="uni30F0" unicode="&#x30f0;" horiz-adv-x="130" 
 />
    <glyph glyph-name="uni30F1" unicode="&#x30f1;" horiz-adv-x="130" 
 />
    <glyph glyph-name="uni30F2" unicode="&#x30f2;" horiz-adv-x="130" 
 />
    <glyph glyph-name="uni30F3" unicode="&#x30f3;" horiz-adv-x="130" 
 />
    <glyph glyph-name="uni30F4" unicode="&#x30f4;" horiz-adv-x="130" 
 />
    <glyph glyph-name="uni30F5" unicode="&#x30f5;" horiz-adv-x="130" 
 />
    <glyph glyph-name="uni30F6" unicode="&#x30f6;" horiz-adv-x="130" 
 />
    <glyph glyph-name="uni30FB" unicode="&#x30fb;" horiz-adv-x="401" 
d="M202 248q-22 0 -37 15t-15 37t15 37t37 15q21 0 36 -15t15 -37t-15 -37t-36 -15z" />
    <glyph glyph-name="uni3131" unicode="&#x3131;" horiz-adv-x="643" 
d="M116 -66l-18 70q243 59 333 292q39 115 39 203h-326v62h364q14 0 25.5 -10.5t11.5 -31.5q0 -119 -44 -245q-104 -269 -385 -340z" />
    <glyph glyph-name="uni3132" unicode="&#x3132;" horiz-adv-x="714" 
d="M152 -15l-55 46q190 219 190 457v12h-142v62h178q38 0 38 -49q0 -23 -3 -75q-18 -240 -206 -453zM402 -66l-58 44q120 152 159 296.5t39 225.5h-136v62h172q38 0 38 -46q0 -24 -5 -88q-7 -89 -53 -222.5t-156 -271.5z" />
    <glyph glyph-name="uni3133" unicode="&#x3133;" horiz-adv-x="1014" 
d="M440 76h-80v294h-262v65h302q17 0 28.5 -11t11.5 -27v-321zM891 65q-133 68 -186 186q-54 -118 -181 -183l-32 65q123 60 161 189q13 45 14 59v56h76v-56q0 -13 13 -59q37 -129 160 -188z" />
    <glyph glyph-name="uni3134" unicode="&#x3134;" horiz-adv-x="741" 
d="M228 -41q-81 0 -96 2t-24.5 12t-9.5 24v539h73v-505q27 -2 55 -2q244 0 382 67l35 -61q-152 -76 -415 -76z" />
    <glyph glyph-name="uni3135" unicode="&#x3135;" horiz-adv-x="970" 
d="M424 80h-286q-16 0 -28 11t-12 27v315h79v-288h247v-65zM844 61q-115 58 -166 162q-51 -104 -161 -160l-31 67q108 51 142 167q12 42 12 80h-156v64h388v-64h-156q0 -39 11 -80q35 -116 144 -167z" />
    <glyph glyph-name="uni3136" unicode="&#x3136;" horiz-adv-x="1015" 
d="M430 23h-292q-17 0 -28.5 10.5t-11.5 27.5v317h79v-289h253v-66zM820 449h-273v61h273v-61zM917 320h-468v55h468v-55zM685 53q50 0 83.5 25t33.5 50q0 23 -33.5 48t-83.5 25q-49 0 -82.5 -25t-33.5 -48q0 -25 33.5 -50t82.5 -25zM685 -7q-79 2 -133 41t-54 94
q0 54 54 92.5t133 38.5q81 0 134.5 -38.5t53.5 -92.5q0 -55 -53.5 -94t-134.5 -41z" />
    <glyph glyph-name="uni3137" unicode="&#x3137;" horiz-adv-x="722" 
d="M277 -38q-63 0 -103.5 4.5t-44.5 6.5q-31 4 -31 34v491q0 16 10.5 25.5t26.5 9.5h386v-60h-350v-444q39 -5 94 -5q40 0 91 3q120 7 238 56l31 -54q-147 -67 -348 -67z" />
    <glyph glyph-name="uni3138" unicode="&#x3138;" horiz-adv-x="783" 
d="M190 -40q-70 0 -88 32q-4 9 -4 17v492q0 16 10.5 25.5t26.5 9.5h187v-70h-151v-434q9 -1 19 -1q38 0 148 23l17 -69q-102 -25 -165 -25zM494 -35q-101 0 -101 44v492q0 15 10.5 25t25.5 10h188v-70h-151v-429q13 -2 29 -2q52 0 173 25l18 -68q-128 -27 -192 -27z" />
    <glyph glyph-name="uni3139" unicode="&#x3139;" horiz-adv-x="733" 
d="M136 -50q-15 0 -26 10t-11 25v283q0 14 10.5 24t25.5 10h302v178h-339v67h374q15 0 25.5 -10t10.5 -24v-241q0 -14 -10.5 -24.5t-25.5 -10.5h-302v-218q356 21 437 51l29 -60q-44 -18 -155 -31t-214.5 -20.5t-130.5 -8.5z" />
    <glyph glyph-name="uni313A" unicode="&#x313a;" horiz-adv-x="936" 
d="M832 36h-77v363h-238v69h277q16 0 27 -11t11 -27v-394zM451 36h-313q-16 0 -27.5 11t-11.5 26v176q0 16 11.5 26.5t27.5 10.5h230v112h-270v69h308q16 0 27.5 -11t11.5 -26v-176q0 -16 -11.5 -26t-27.5 -10h-231v-113h276v-69z" />
    <glyph glyph-name="uni313B" unicode="&#x313b;" horiz-adv-x="935" 
d="M440 36h-303q-16 0 -27.5 10.5t-11.5 26.5v176q0 16 11.5 26.5t27.5 10.5h221v112h-260v69h299q15 0 26.5 -11t11.5 -26v-176q0 -16 -11.5 -26t-26.5 -10h-222v-113h265v-69zM760 104v295h-178v-295h178zM801 36h-256q-16 0 -27.5 10.5t-11.5 26.5v357q0 16 11.5 27
t27.5 11h254q16 0 27 -11t11 -27v-357q0 -30 -36 -37z" />
    <glyph glyph-name="uni313C" unicode="&#x313c;" horiz-adv-x="933" 
d="M441 35h-304q-16 0 -27.5 10t-11.5 26v176q0 16 11.5 27t27.5 11h221v111h-260v69h299q16 0 27.5 -11t11.5 -25v-177q0 -15 -11.5 -25.5t-27.5 -10.5h-222v-113h266v-68zM759 102v151h-175v-151h175zM800 34h-254q-16 0 -27.5 10.5t-11.5 26.5v399h77v-150h175v150h76
v-399q0 -16 -11 -26.5t-24 -10.5z" />
    <glyph glyph-name="uni313D" unicode="&#x313d;" horiz-adv-x="1011" 
d="M881 28q-129 81 -182 221q-55 -140 -178 -218l-38 63q127 74 165 238q12 54 12 68v75h76v-75q0 -14 13.5 -70t53 -125t111.5 -112zM434 36h-294q-16 0 -28 10.5t-12 26.5v170q0 17 12 28t28 11h210v126h-252v61h292q16 0 27.5 -11.5t11.5 -27.5v-170q0 -16 -11.5 -27
t-27.5 -11h-210v-127h254v-59z" />
    <glyph glyph-name="uni313E" unicode="&#x313e;" horiz-adv-x="955" 
d="M448 31h-308q-16 0 -28 11t-12 27v173q0 17 12 28t28 11h224v129h-266v61h306q16 0 28 -11.5t12 -27.5v-173q0 -16 -12 -27t-28 -11h-224v-131h268v-59zM851 33h-292q-17 0 -28.5 10.5t-11.5 26.5v363q0 16 11.5 27.5t28.5 11.5h292v-61h-252v-126h252v-61h-252v-132h252
v-59z" />
    <glyph glyph-name="uni313F" unicode="&#x313f;" horiz-adv-x="984" 
d="M452 36h-309q-16 0 -28 10.5t-12 27.5v170q0 16 12 27.5t28 11.5h224v125h-269v61h309q16 0 28 -11.5t12 -27.5v-170q0 -16 -12 -27t-28 -11h-224v-127h269v-59zM886 407h-351v63h351v-63zM886 32h-356v63h44v234h80v-234h102v234h79v-234h51v-63z" />
    <glyph glyph-name="uni3140" unicode="&#x3140;" horiz-adv-x="1015" 
d="M843 450h-274v55h274v-55zM917 328h-422v55h422v-55zM709 53q49 0 82 28.5t33 51.5t-33 51t-82 28t-82.5 -28t-33.5 -51t33.5 -51.5t82.5 -28.5zM709 -1q-80 2 -134 40.5t-54 93.5q0 54 54 93t134 39q79 0 133 -39t54 -93q0 -55 -54 -93.5t-133 -40.5zM441 16h-303
q-16 0 -28 11.5t-12 26.5v171q0 16 12 27t28 11h218v126h-258v61h298q17 0 28.5 -11.5t11.5 -26.5v-171q0 -15 -11.5 -26.5t-28.5 -11.5h-219v-126h264v-61z" />
    <glyph glyph-name="uni3141" unicode="&#x3141;" horiz-adv-x="620" 
d="M453 23v452h-287v-452h287zM486 -41h-351q-15 0 -26 10t-11 25v509q0 15 11 25t26 10h351q15 0 25.5 -10t10.5 -25v-509q0 -15 -10.5 -25t-25.5 -10z" />
    <glyph glyph-name="uni3142" unicode="&#x3142;" horiz-adv-x="606" 
d="M437 20v237h-268v-237h268zM472 -42h-338q-15 0 -25.5 10t-10.5 24v547h71v-220h268v220h71v-547q0 -14 -10.5 -24t-25.5 -10z" />
    <glyph glyph-name="uni3143" unicode="&#x3143;" horiz-adv-x="724" 
d="M561 25v225h-102v-225h102zM592 -42h-164q-14 0 -24 10t-10 23v548h65v-222h102v222h65v-548q0 -13 -10 -23t-24 -10zM265 25v225h-103v-225h103zM296 -42h-163q-14 0 -24.5 10t-10.5 23v548h64v-222h103v222h65v-548q0 -13 -10 -23t-24 -10z" />
    <glyph glyph-name="uni3144" unicode="&#x3144;" horiz-adv-x="1025" 
d="M549 26l-41 67q124 73 159 238q13 53 13 68v72h76v-69q0 -13 13 -71t51.5 -127.5t107.5 -110.5l-38 -62q-118 76 -171 215q-53 -139 -170 -220zM370 95v169h-193v-169h193zM412 35h-274q-17 0 -28.5 11t-11.5 27v395h79v-144h193v144h80v-395q0 -16 -12 -27t-26 -11z" />
    <glyph glyph-name="uni3145" unicode="&#x3145;" horiz-adv-x="791" 
d="M124 -78l-27 64q179 73 234 255q25 89 25 181q0 45 -2 152h74l2 -155q0 -83 28 -175q57 -180 235 -252l-26 -65q-190 74 -272 283q-80 -213 -271 -288z" />
    <glyph glyph-name="uni3146" unicode="&#x3146;" horiz-adv-x="836" 
d="M395 -77l-47 47q52 49 85 129q-86 73 -126 185q-38 -200 -163 -333l-47 48q106 100 146 310q24 130 24 200v64h67v-99q0 -4 7.5 -56.5t32.5 -122t83 -129.5q42 158 42 345v62h67q0 -54 3 -198q0 -67 18 -144q38 -155 152 -238l-39 -53q-127 97 -169 244
q-40 -164 -136 -261z" />
    <glyph glyph-name="uni3147" unicode="&#x3147;" horiz-adv-x="667" 
d="M334 -6q68 0 117 76t49 178q0 103 -49 178t-117 75q-69 0 -118 -75t-49 -178q0 -102 49 -178t118 -76zM334 -72q-99 0 -167.5 92.5t-68.5 227.5t68.5 227.5t167.5 92.5t167 -92.5t68 -227.5t-68 -227.5t-167 -92.5z" />
    <glyph glyph-name="uni3148" unicode="&#x3148;" horiz-adv-x="674" 
d="M546 -66q-161 95 -209 271q-48 -176 -208 -271l-32 59q131 67 179 246q26 102 26 175v82h-189v65h447v-65h-189v-82q1 -73 28 -175q47 -179 178 -246z" />
    <glyph glyph-name="uni3149" unicode="&#x3149;" horiz-adv-x="754" 
d="M382 129q53 107 57 146l-1 225h-111v-229q18 -75 55 -142zM589 -28q-78 105 -114 185q-36 -88 -110 -179l-56 43q15 19 32 43q-30 37 -52 89q-36 -79 -112 -181l-60 40q65 87 95 147.5t36 91.5t6 32v217h-131v62h517v-62h-129l1 -217q12 -63 42 -123.5t95 -147.5z" />
    <glyph glyph-name="uni314A" unicode="&#x314a;" horiz-adv-x="687" 
d="M558 -91q-167 98 -215 279q-47 -181 -215 -279l-31 60q76 38 120 108q91 144 91 347h-195v55h195v108h70v-108h194v-55h-195q0 -100 29 -204q49 -182 183 -251z" />
    <glyph glyph-name="uni314B" unicode="&#x314b;" horiz-adv-x="643" 
d="M116 -65l-18 70q244 75 315 251h-271v71h299q29 102 29 163h-326v71h364q14 0 25.5 -10.5t11.5 -31.5q0 -119 -44 -245q-104 -268 -385 -339z" />
    <glyph glyph-name="uni314C" unicode="&#x314c;" horiz-adv-x="722" 
d="M305 -41q-178 0 -198 23q-9 10 -9 23v496q0 15 11 25t26 10h386v-70h-350v-176h350v-70h-350v-184q39 -5 94 -5q40 0 91 3q120 6 238 56l31 -63q-171 -68 -320 -68z" />
    <glyph glyph-name="uni314D" unicode="&#x314d;" horiz-adv-x="698" 
d="M448 -1v498h-198v-498h198zM600 -67h-502v66h79v498h-79v67h502v-67h-79v-498h79v-66z" />
    <glyph glyph-name="uni314E" unicode="&#x314e;" horiz-adv-x="679" 
d="M581 412h-483v69h207v110h69v-110h207v-69zM340 -28q63 0 107.5 45.5t44.5 109.5t-44.5 109t-107.5 45t-107.5 -45t-44.5 -109t44.5 -109.5t107.5 -45.5zM340 -94q-91 0 -156 64.5t-65 156.5q0 91 65 155.5t156 64.5t156 -64.5t65 -155.5q0 -92 -65 -156.5t-156 -64.5z
" />
    <glyph glyph-name="uni314F" unicode="&#x314f;" horiz-adv-x="441" 
d="M170 -201h-72v900h72v-352h173v-62h-173v-486z" />
    <glyph glyph-name="uni3150" unicode="&#x3150;" horiz-adv-x="464" 
d="M366 -201h-73v486h-122v-442h-73v834h73v-331h122v353h73v-900z" />
    <glyph glyph-name="uni3151" unicode="&#x3151;" horiz-adv-x="442" 
d="M171 -201h-73v900h73v-239h173v-62h-173v-203h173v-61h-173v-335z" />
    <glyph glyph-name="uni3152" unicode="&#x3152;" horiz-adv-x="464" 
d="M293 195v203h-122v-203h122zM366 -201h-73v335h-122v-291h-73v834h73v-217h122v239h73v-900z" />
    <glyph glyph-name="uni3153" unicode="&#x3153;" horiz-adv-x="455" 
d="M357 -201h-73v488h-186v61h186v351h73v-900z" />
    <glyph glyph-name="uni3154" unicode="&#x3154;" horiz-adv-x="639" 
d="M355 -156h-73v442h-184v62h184v329h73v-833zM541 -201h-74v900h74v-900z" />
    <glyph glyph-name="uni3155" unicode="&#x3155;" horiz-adv-x="464" 
d="M366 -201h-73v362h-195v61h195v171h-195v62h195v244h73v-900z" />
    <glyph glyph-name="uni3156" unicode="&#x3156;" horiz-adv-x="631" 
d="M533 -201h-73v900h73v-900zM348 -157h-74v318h-176v61h176v171h-176v61h176v223h74v-834z" />
    <glyph glyph-name="uni3157" unicode="&#x3157;" horiz-adv-x="1048" 
d="M950 -118h-852v61h386v357h73v-357h393v-61z" />
    <glyph glyph-name="uni3158" unicode="&#x3158;" horiz-adv-x="1102" 
d="M830 -201h-73v900h73v-353h174v-61h-174v-486zM105 -69l-7 71l252 27v204h73v-197l287 30l7 -69z" />
    <glyph glyph-name="uni3159" unicode="&#x3159;" horiz-adv-x="1015" 
d="M917 -201h-73v486h-122v-455h-73v158l-544 -57l-7 71l217 23v217h74v-210l260 28v617h73v-331h122v353h73v-900z" />
    <glyph glyph-name="uni315A" unicode="&#x315a;" horiz-adv-x="934" 
d="M836 -201h-73v900h73v-900zM105 -69l-7 71l252 27v204h73v-197l287 30l7 -70z" />
    <glyph glyph-name="uni315B" unicode="&#x315b;" horiz-adv-x="1048" 
d="M950 -118h-852v61h251v357h73v-357h194v357h74v-357h260v-61z" />
    <glyph glyph-name="uni315C" unicode="&#x315c;" horiz-adv-x="1048" 
d="M559 -201h-73v309h-388v62h852v-62h-391v-309z" />
    <glyph glyph-name="uni315D" unicode="&#x315d;" horiz-adv-x="964" 
d="M866 -201h-73v188h-183v61h183v651h73v-900zM436 -185h-74v313l-257 -27l-7 62l612 64l7 -62l-281 -29v-321z" />
    <glyph glyph-name="uni315E" unicode="&#x315e;" horiz-adv-x="1008" 
d="M910 -201h-74v900h74v-900zM723 -179h-73v141h-156v62h156v150l-273 -29v-302h-73v295l-199 -20l-7 60l552 58v441h73v-856z" />
    <glyph glyph-name="uni315F" unicode="&#x315f;" horiz-adv-x="971" 
d="M873 -201h-73v900h73v-900zM443 -184h-74v311l-264 -27l-7 62l642 67l9 -61l-306 -32v-320z" />
    <glyph glyph-name="uni3160" unicode="&#x3160;" horiz-adv-x="1048" 
d="M727 -201h-73v308h-259v-308h-74v308h-223v62h852v-62h-223v-308z" />
    <glyph glyph-name="uni3161" unicode="&#x3161;" horiz-adv-x="1048" 
d="M950 -118h-852v63h852v-63z" />
    <glyph glyph-name="uni3162" unicode="&#x3162;" horiz-adv-x="945" 
d="M847 -201h-74v900h74v-900zM105 -64l-7 61l627 66l8 -61z" />
    <glyph glyph-name="uni3163" unicode="&#x3163;" horiz-adv-x="269" 
d="M171 -201h-73v900h73v-900z" />
    <glyph glyph-name="uni3165" unicode="&#x3165;" horiz-adv-x="130" 
 />
    <glyph glyph-name="uni3166" unicode="&#x3166;" horiz-adv-x="130" 
 />
    <glyph glyph-name="uni3167" unicode="&#x3167;" horiz-adv-x="130" 
 />
    <glyph glyph-name="uni3168" unicode="&#x3168;" horiz-adv-x="130" 
 />
    <glyph glyph-name="uni3169" unicode="&#x3169;" horiz-adv-x="130" 
 />
    <glyph glyph-name="uni316A" unicode="&#x316a;" horiz-adv-x="130" 
 />
    <glyph glyph-name="uni316B" unicode="&#x316b;" horiz-adv-x="130" 
 />
    <glyph glyph-name="uni316C" unicode="&#x316c;" horiz-adv-x="130" 
 />
    <glyph glyph-name="uni316D" unicode="&#x316d;" horiz-adv-x="130" 
 />
    <glyph glyph-name="uni316E" unicode="&#x316e;" horiz-adv-x="130" 
 />
    <glyph glyph-name="uni316F" unicode="&#x316f;" horiz-adv-x="130" 
 />
    <glyph glyph-name="uni3170" unicode="&#x3170;" horiz-adv-x="130" 
 />
    <glyph glyph-name="uni3171" unicode="&#x3171;" horiz-adv-x="130" 
 />
    <glyph glyph-name="uni3172" unicode="&#x3172;" horiz-adv-x="130" 
 />
    <glyph glyph-name="uni3173" unicode="&#x3173;" horiz-adv-x="130" 
 />
    <glyph glyph-name="uni3174" unicode="&#x3174;" horiz-adv-x="130" 
 />
    <glyph glyph-name="uni3175" unicode="&#x3175;" horiz-adv-x="130" 
 />
    <glyph glyph-name="uni3176" unicode="&#x3176;" horiz-adv-x="130" 
 />
    <glyph glyph-name="uni3177" unicode="&#x3177;" horiz-adv-x="130" 
 />
    <glyph glyph-name="uni3178" unicode="&#x3178;" horiz-adv-x="130" 
 />
    <glyph glyph-name="uni3179" unicode="&#x3179;" horiz-adv-x="130" 
 />
    <glyph glyph-name="uni317A" unicode="&#x317a;" horiz-adv-x="130" 
 />
    <glyph glyph-name="uni317B" unicode="&#x317b;" horiz-adv-x="130" 
 />
    <glyph glyph-name="uni317C" unicode="&#x317c;" horiz-adv-x="130" 
 />
    <glyph glyph-name="uni317D" unicode="&#x317d;" horiz-adv-x="130" 
 />
    <glyph glyph-name="uni317E" unicode="&#x317e;" horiz-adv-x="130" 
 />
    <glyph glyph-name="uni317F" unicode="&#x317f;" horiz-adv-x="130" 
 />
    <glyph glyph-name="uni3180" unicode="&#x3180;" horiz-adv-x="130" 
 />
    <glyph glyph-name="uni3181" unicode="&#x3181;" horiz-adv-x="130" 
 />
    <glyph glyph-name="uni3182" unicode="&#x3182;" horiz-adv-x="130" 
 />
    <glyph glyph-name="uni3183" unicode="&#x3183;" horiz-adv-x="130" 
 />
    <glyph glyph-name="uni3184" unicode="&#x3184;" horiz-adv-x="130" 
 />
    <glyph glyph-name="uni3185" unicode="&#x3185;" horiz-adv-x="130" 
 />
    <glyph glyph-name="uni3186" unicode="&#x3186;" horiz-adv-x="130" 
 />
    <glyph glyph-name="uni3187" unicode="&#x3187;" horiz-adv-x="130" 
 />
    <glyph glyph-name="uni3188" unicode="&#x3188;" horiz-adv-x="130" 
 />
    <glyph glyph-name="uni3189" unicode="&#x3189;" horiz-adv-x="130" 
 />
    <glyph glyph-name="uni318A" unicode="&#x318a;" horiz-adv-x="130" 
 />
    <glyph glyph-name="uni318B" unicode="&#x318b;" horiz-adv-x="130" 
 />
    <glyph glyph-name="uni318C" unicode="&#x318c;" horiz-adv-x="130" 
 />
    <glyph glyph-name="uni318D" unicode="&#x318d;" horiz-adv-x="401" 
d="M202 250q-21 0 -35.5 14.5t-14.5 35.5t14.5 35.5t35.5 14.5q20 0 34.5 -14.5t14.5 -35.5t-14.5 -35.5t-34.5 -14.5z" />
    <glyph glyph-name="uni318E" unicode="&#x318e;" horiz-adv-x="130" 
 />
    <glyph glyph-name="uni3200" unicode="&#x3200;" horiz-adv-x="1000" 
d="M228 -61h-69q-111 166 -111 361q0 196 112 361h69q-113 -145 -113 -361t112 -361zM841 -61h-70q112 145 112 360q0 216 -112 362h69q112 -166 112 -362q0 -195 -111 -360zM696 99h-69v334h-343v61h378q14 0 24 -10t10 -24v-361z" />
    <glyph glyph-name="uni3201" unicode="&#x3201;" horiz-adv-x="1000" 
d="M228 -61h-69q-111 166 -111 361q0 196 112 361h69q-113 -145 -113 -361t112 -361zM841 -61h-70q112 145 112 360q0 216 -112 362h69q112 -166 112 -362q0 -195 -111 -360zM720 103h-370q-14 0 -24 10.5t-10 24.5v355h69v-327h335v-63z" />
    <glyph glyph-name="uni3202" unicode="&#x3202;" horiz-adv-x="999" 
d="M228 -61h-69q-111 166 -111 361q0 196 112 361h69q-113 -145 -113 -361t112 -361zM841 -61h-70q112 145 112 360q0 216 -112 362h69q112 -166 112 -362q0 -195 -111 -360zM702 104h-370q-14 0 -24 10.5t-10 24.5v322q0 15 10 25t24 10h364v-60h-329v-272h335v-60z" />
    <glyph glyph-name="uni3203" unicode="&#x3203;" horiz-adv-x="999" 
d="M228 -61h-69q-111 166 -111 361q0 196 112 361h69q-113 -145 -113 -361t112 -361zM841 -61h-70q112 145 112 360q0 216 -112 362h69q112 -166 112 -362q0 -195 -111 -360zM700 89h-366q-14 0 -24 10t-10 24v173q0 14 10 24t24 10h294v122h-328v59h362q14 0 24 -9.5
t10 -24.5v-172q0 -14 -10 -24t-24 -10h-293v-122h331v-60z" />
    <glyph glyph-name="uni3204" unicode="&#x3204;" horiz-adv-x="1000" 
d="M228 -61h-69q-111 165 -111 361q0 195 112 361h69q-113 -145 -113 -361t112 -361zM841 -61h-70q112 145 112 360q0 216 -112 361h69q112 -165 112 -361q0 -195 -111 -360zM629 174v252h-258v-252h258zM663 111h-327q-14 0 -24 10t-10 24v309q0 14 10 24t24 10h327
q15 0 25 -10t10 -24v-309q0 -14 -10 -24t-25 -10z" />
    <glyph glyph-name="uni3205" unicode="&#x3205;" horiz-adv-x="1000" 
d="M228 -61h-69q-111 165 -111 361q0 195 112 361h69q-113 -145 -113 -361t112 -361zM841 -61h-70q112 145 112 360q0 216 -112 361h69q112 -165 112 -361q0 -195 -111 -360zM634 155v138h-268v-138h268zM667 93h-334q-14 0 -23.5 10t-9.5 24v380h66v-151h268v151h65v-380
q0 -14 -9.5 -24t-22.5 -10z" />
    <glyph glyph-name="uni3206" unicode="&#x3206;" horiz-adv-x="1000" 
d="M228 -61h-69q-111 165 -111 361q0 195 112 361h69q-113 -145 -113 -361t112 -361zM841 -61h-70q112 145 112 360q0 216 -112 361h69q112 -165 112 -361q0 -195 -111 -360zM316 90l-27 56q176 65 176 259l-1 103h69l2 -105q1 -189 179 -254l-26 -56q-135 46 -187 159
q-50 -115 -185 -162z" />
    <glyph glyph-name="uni3207" unicode="&#x3207;" horiz-adv-x="999" 
d="M228 -61h-69q-111 165 -111 361q0 195 112 361h69q-113 -145 -113 -361t112 -361zM841 -61h-70q112 145 112 360q0 216 -112 361h69q112 -165 112 -361q0 -195 -111 -360zM500 165q60 0 102.5 40.5t42.5 94.5t-42.5 94.5t-102.5 40.5q-59 0 -101.5 -40.5t-42.5 -94.5
t42.5 -94.5t101.5 -40.5zM500 106q-87 0 -148 56t-61 138t61 137.5t148 55.5t147.5 -55.5t60.5 -137.5t-60.5 -138t-147.5 -56z" />
    <glyph glyph-name="uni3208" unicode="&#x3208;" horiz-adv-x="1000" 
d="M228 -61h-69q-111 165 -111 361q0 195 112 361h69q-113 -145 -113 -361t112 -361zM841 -61h-70q112 145 112 360q0 216 -112 361h69q112 -165 112 -361q0 -195 -111 -360zM316 107l-27 56q177 65 177 263h-173v65h414v-65h-172q2 -60 18 -108q37 -105 161 -152l-25 -56
q-135 46 -187 159q-51 -115 -186 -162z" />
    <glyph glyph-name="uni3209" unicode="&#x3209;" horiz-adv-x="1000" 
d="M228 -61h-69q-111 165 -111 361q0 195 112 361h69q-113 -145 -113 -361t112 -361zM841 -61h-70q112 145 112 360q0 216 -112 361h69q112 -165 112 -361q0 -195 -111 -360zM302 72l-29 59q170 63 188 233h-186v68h188l-1 106h73l1 -106h183v-68h-179q20 -167 189 -229
l-27 -61q-144 51 -201 174q-55 -126 -199 -176z" />
    <glyph glyph-name="uni320A" unicode="&#x320a;" horiz-adv-x="1000" 
d="M228 -61h-69q-111 165 -111 361q0 195 112 361h69q-113 -145 -113 -361t112 -361zM841 -61h-70q112 145 112 360q0 216 -112 361h69q112 -165 112 -361q0 -195 -111 -360zM702 97h-69v183h-324v63h324v97h-336v62h371q15 0 24.5 -9.5t9.5 -24.5v-371z" />
    <glyph glyph-name="uni320B" unicode="&#x320b;" horiz-adv-x="1000" 
d="M228 -61h-69q-111 165 -111 361q0 195 112 361h69q-113 -145 -113 -361t112 -361zM841 -61h-70q112 145 112 360q0 216 -112 361h69q112 -165 112 -361q0 -195 -111 -360zM699 107h-364q-14 0 -24 10t-10 25v316q0 14 10 24t24 10h362v-60h-327v-101h326v-59h-326v-105
h329v-60z" />
    <glyph glyph-name="uni320C" unicode="&#x320c;" horiz-adv-x="1000" 
d="M228 -61h-69q-111 165 -111 361q0 195 112 361h69q-113 -145 -113 -361t112 -361zM841 -61h-70q112 145 112 360q0 216 -112 361h69q112 -165 112 -361q0 -195 -111 -360zM579 188v223h-159v-223h159zM730 125h-460v63h81v223h-71v63h439v-63h-71v-223h82v-63z" />
    <glyph glyph-name="uni320D" unicode="&#x320d;" horiz-adv-x="1000" 
d="M228 -61h-69q-111 165 -111 361q0 195 112 361h69q-113 -145 -113 -361t112 -361zM841 -61h-70q112 145 112 360q0 216 -112 361h69q112 -165 112 -361q0 -195 -111 -360zM500 126q41 0 70 28t29 66q0 39 -29 67t-70 28t-70.5 -28t-29.5 -67q0 -38 29.5 -66t70.5 -28z
M500 61q-69 0 -118.5 46.5t-49.5 112.5t49.5 113t118.5 47t119 -47t50 -113t-50 -112.5t-119 -46.5zM683 404h-367v66h149v75h70v-75h148v-66z" />
    <glyph glyph-name="uni320E" unicode="&#x320e;" horiz-adv-x="1000" 
d="M228 -60h-69q-111 165 -111 360q0 196 112 361h69q-113 -145 -113 -361q0 -215 112 -360zM841 -61h-70q112 145 112 361t-112 361h69q112 -165 112 -361t-111 -361zM702 -22h-66v645h66v-245h116v-61h-116v-339zM223 99l-17 65q166 42 225 201q27 78 27 129h-219v61h253
q13 0 23.5 -9.5t10.5 -28.5q0 -84 -30 -174q-72 -192 -273 -244z" />
    <glyph glyph-name="uni320F" unicode="&#x320f;" horiz-adv-x="1000" 
d="M228 -60h-69q-111 165 -111 360q0 196 112 361h69q-113 -145 -113 -361q0 -215 112 -360zM841 -61h-70q112 145 112 361t-112 361h69q112 -165 112 -361t-111 -361zM702 -22h-67v645h67v-246h115v-60h-115v-339zM338 140q-55 0 -66.5 1.5t-20.5 11t-9 22.5v385h67v-353
l28 -1q162 0 259 51l33 -60q-112 -57 -291 -57z" />
    <glyph glyph-name="uni3210" unicode="&#x3210;" horiz-adv-x="1000" 
d="M228 -60h-69q-111 165 -111 360q0 196 112 361h69q-113 -145 -113 -361q0 -215 112 -360zM841 -61h-70q112 145 112 361t-112 361h69q112 -165 112 -361t-111 -361zM364 139q-83 0 -102 8q-27 4 -27 32v343q0 14 9.5 23.5t24.5 9.5h268v-60h-235v-292q19 -3 54 -3
q26 0 60 2q81 5 164 43l30 -55q-109 -51 -246 -51zM692 -22h-68v645h68v-246h116v-60h-116v-339z" />
    <glyph glyph-name="uni3211" unicode="&#x3211;" horiz-adv-x="1000" 
d="M228 -60h-69q-111 165 -111 360q0 196 112 361h69q-113 -145 -113 -361q0 -215 112 -360zM841 -61h-70q112 145 112 361t-112 361h69q112 -165 112 -361t-111 -361zM266 120q-14 0 -24 9.5t-10 24.5v197q0 14 9.5 24t23.5 10h193v104h-227v66h260q14 0 24 -9.5t10 -23.5
v-168q0 -14 -10 -24t-24 -10h-192v-132q227 14 288 38l28 -60q-40 -17 -117 -26q-135 -17 -232 -20zM689 -22h-67v645h67v-245h116v-61h-116v-339z" />
    <glyph glyph-name="uni3212" unicode="&#x3212;" horiz-adv-x="999" 
d="M228 -61h-69q-111 165 -111 361t112 361h69q-113 -145 -113 -361t112 -361zM841 -61h-70q112 145 112 361t-112 361h69q112 -165 112 -361t-111 -361zM471 152v296h-173v-296h173zM502 89h-235q-14 0 -23.5 9.5t-9.5 24.5v354q0 14 9.5 24t23.5 10h235q14 0 24 -10
t10 -24v-354q0 -15 -10 -24.5t-24 -9.5zM691 -22h-67v645h67v-245h116v-62h-116v-338z" />
    <glyph glyph-name="uni3213" unicode="&#x3213;" horiz-adv-x="999" 
d="M228 -60h-69q-111 165 -111 360q0 196 112 361h69q-113 -145 -113 -361q0 -215 112 -360zM841 -61h-70q112 145 112 361t-112 361h69q112 -165 112 -361t-111 -361zM464 199v146h-159v-146h159zM498 136h-227q-14 0 -23.5 10t-9.5 24v391h67v-154h159v154h68v-391
q0 -14 -10 -24t-24 -10zM696 -22h-67v645h67v-245h116v-61h-116v-339z" />
    <glyph glyph-name="uni3214" unicode="&#x3214;" horiz-adv-x="1000" 
d="M228 -60h-69q-111 165 -111 360q0 196 112 361h69q-113 -145 -113 -361q0 -215 112 -360zM841 -61h-70q112 145 112 361t-112 361h69q112 -165 112 -361t-111 -361zM700 -22h-67v645h67v-246h115v-60h-115v-339zM213 93l-25 61q176 75 176 299l-1 115h68q1 -173 19 -236
q38 -123 161 -173l-24 -63q-138 56 -187 184q-49 -131 -187 -187z" />
    <glyph glyph-name="uni3215" unicode="&#x3215;" horiz-adv-x="1000" 
d="M228 -60h-69q-111 165 -111 360q0 196 112 361h69q-113 -145 -113 -361q0 -215 112 -360zM841 -61h-70q112 145 112 361t-112 361h69q112 -165 112 -361t-111 -361zM380 179q41 0 72 50t31 118t-31 117.5t-72 49.5q-40 0 -71 -49.5t-31 -117.5t31 -118t71 -50zM380 114
q-70 0 -118 68t-48 165t48 164.5t118 67.5q71 0 119 -67.5t48 -164.5t-48 -165t-119 -68zM702 -22h-67v645h67v-246h116v-60h-116v-339z" />
    <glyph glyph-name="uni3216" unicode="&#x3216;" horiz-adv-x="1000" 
d="M228 -60h-69q-111 165 -111 360q0 196 112 361h69q-113 -145 -113 -361q0 -215 112 -360zM841 -61h-70q112 145 112 361t-112 361h69q112 -165 112 -361t-111 -361zM706 -22h-67v645h67v-245h116v-61h-116v-339zM549 96q-116 72 -144 170q-28 -99 -143 -170l-29 59
q91 47 122 169q18 70 18 120v48h-126v63h317v-63h-126v-48q0 -50 18 -119q32 -123 123 -170z" />
    <glyph glyph-name="uni3217" unicode="&#x3217;" horiz-adv-x="1000" 
d="M228 -60h-69q-111 165 -111 360q0 196 112 361h69q-113 -145 -113 -361q0 -215 112 -360zM841 -61h-70q112 145 112 361t-112 361h69q112 -165 112 -361t-111 -361zM704 -22h-67v645h67v-245h116v-61h-116v-339zM257 108l-28 59q94 49 126 173q18 71 18 131h-130v56h130
v76h65v-76h130v-56h-130q0 -61 19 -130q32 -125 126 -174l-30 -58q-119 72 -148 174q-28 -102 -148 -175z" />
    <glyph glyph-name="uni3218" unicode="&#x3218;" horiz-adv-x="1000" 
d="M228 -60h-69q-111 165 -111 360q0 196 112 361h69q-113 -145 -113 -361q0 -215 112 -360zM841 -61h-70q112 145 112 360q0 216 -112 362h69q112 -166 112 -362q0 -195 -111 -360zM232 98l-17 65q165 53 209 160h-177v68h202q17 61 17 95h-218v68h253q34 0 34 -39
q0 -83 -30 -174q-71 -190 -273 -243zM710 -22h-67v645h67v-245h116v-62h-116v-338z" />
    <glyph glyph-name="uni3219" unicode="&#x3219;" horiz-adv-x="1000" 
d="M228 -61h-69q-111 165 -111 360q0 196 112 362h69q-113 -146 -113 -362q0 -215 112 -360zM841 -61h-70q112 145 112 360q0 216 -112 361h69q112 -165 112 -361q0 -195 -111 -360zM394 135q-125 0 -140 20q-7 8 -7 21v346q0 14 9.5 23.5t23.5 9.5h268v-67h-234v-104h234
v-68h-234v-110q19 -3 54 -3q26 0 60 2q80 5 164 42l29 -61q-125 -51 -227 -51zM703 -23h-67v645h67v-245h116v-61h-116v-339z" />
    <glyph glyph-name="uni321A" unicode="&#x321a;" horiz-adv-x="1000" 
d="M228 -61h-69q-111 165 -111 360q0 196 112 362h69q-113 -146 -113 -362q0 -215 112 -360zM841 -61h-70q112 145 112 360q0 216 -112 361h69q112 -165 112 -361q0 -195 -111 -360zM474 162v329h-114v-329h114zM594 97h-354v65h52v329h-52v64h354v-64h-53v-329h53v-65z
M715 -23h-67v645h67v-246h116v-60h-116v-339z" />
    <glyph glyph-name="uni321B" unicode="&#x321b;" horiz-adv-x="1000" 
d="M228 -61h-69q-111 165 -111 360q0 196 112 362h69q-113 -146 -113 -362q0 -215 112 -360zM841 -61h-70q112 145 112 360q0 216 -112 361h69q112 -165 112 -361q0 -195 -111 -360zM563 459h-342v66h139v77h65v-77h138v-66zM392 171q39 0 66 29t27 70q0 40 -27 69t-66 29
q-37 0 -64.5 -29t-27.5 -69q0 -41 27.5 -70t64.5 -29zM392 107q-64 0 -110 47.5t-46 115.5q0 67 46 114.5t110 47.5q65 0 111.5 -47.5t46.5 -114.5q0 -68 -46.5 -115.5t-111.5 -47.5zM699 -23h-67v645h67v-246h115v-60h-115v-339z" />
    <glyph glyph-name="uni321C" unicode="&#x321c;" horiz-adv-x="1000" 
d="M228 -61h-69q-111 165 -111 360q0 196 112 362h69q-113 -146 -113 -362q0 -215 112 -360zM841 -61h-70q112 145 112 360q0 216 -112 361h69q112 -165 112 -361q0 -195 -111 -360zM538 -4h-67v187h-260v68h589v-68h-262v-187zM761 301q-200 33 -256 126q-55 -92 -256 -126
l-9 65q232 35 232 169h-205v62h477v-62h-207v-13q0 -44 46 -87q58 -50 186 -69z" />
    <glyph glyph-name="uni3260" unicode="&#x3260;" horiz-adv-x="1045" 
d="M523 -126q176 0 301 125t125 301q0 177 -125 302t-301 125q-179 0 -303 -125.5t-124 -301.5t125 -301t302 -125zM523 -174q-197 0 -336 139t-139 335q0 197 139 336t336 139q196 0 335 -139t139 -336q0 -198 -140 -336t-334 -138zM724 95h-69v334h-344v60h378
q15 0 25 -10t10 -24v-360z" />
    <glyph glyph-name="uni3261" unicode="&#x3261;" horiz-adv-x="1045" 
d="M523 -126q176 0 301 125t125 301q0 177 -125 302t-301 125q-179 0 -303 -125.5t-124 -301.5t125 -301t302 -125zM523 -174q-197 0 -336 139t-139 335q0 197 139 336t336 139q196 0 335 -139t139 -336q0 -198 -140 -336t-334 -138zM746 109h-370q-14 0 -24 10t-10 24v356
h69v-327h335v-63z" />
    <glyph glyph-name="uni3262" unicode="&#x3262;" horiz-adv-x="1045" 
d="M523 -126q176 0 301 125t125 301q0 177 -125 302t-301 125q-179 0 -303 -125.5t-124 -301.5t125 -301t302 -125zM523 -174q-197 0 -336 139t-139 335q0 197 139 336t336 139q196 0 335 -139t139 -336q0 -198 -140 -336t-334 -138zM735 110h-370q-14 0 -24 10t-10 24v323
q0 14 10 24t24 10h364v-60h-330v-272h336v-59z" />
    <glyph glyph-name="uni3263" unicode="&#x3263;" horiz-adv-x="1045" 
d="M523 -126q176 0 301 125t125 301q0 177 -125 302t-301 125q-179 0 -303 -125.5t-124 -301.5t125 -301t302 -125zM523 -174q-197 0 -336 139t-139 335q0 197 139 336t336 139q196 0 335 -139t139 -336q0 -198 -140 -336t-334 -138zM733 94h-366q-14 0 -24.5 10t-10.5 25
v172q0 14 10.5 24.5t24.5 10.5h293v122h-327v59h362q14 0 24 -9.5t10 -25.5v-171q0 -15 -10 -25t-24 -10h-294v-122h332v-60z" />
    <glyph glyph-name="uni3264" unicode="&#x3264;" horiz-adv-x="1045" 
d="M523 -126q176 0 301 125t125 301q0 177 -125 302t-301 125q-179 0 -303 -125.5t-124 -301.5t125 -301t302 -125zM523 -174q-197 0 -336 139t-139 335q0 197 139 336t336 139q196 0 335 -139t139 -336q0 -198 -140 -336t-334 -138zM658 180v251h-258v-251h258zM693 117
h-327q-15 0 -25 10t-10 24v309q0 14 10 24t25 10h327q14 0 24 -10t10 -24v-309q0 -14 -10 -24t-24 -10z" />
    <glyph glyph-name="uni3265" unicode="&#x3265;" horiz-adv-x="1045" 
d="M523 -127q176 0 301 125t125 302q0 176 -125 301t-301 125q-179 0 -303 -125.5t-124 -300.5q0 -177 125 -302t302 -125zM523 -175q-197 0 -336 139t-139 336q0 196 139 335t336 139q196 0 335 -139t139 -335q0 -198 -140 -336.5t-334 -138.5zM665 161v138h-268v-138h268z
M698 98h-334q-14 0 -23.5 10t-9.5 24v380h66v-151h268v151h65v-380q0 -14 -9.5 -24t-22.5 -10z" />
    <glyph glyph-name="uni3266" unicode="&#x3266;" horiz-adv-x="1045" 
d="M523 -127q176 0 301 125t125 302q0 176 -125 301t-301 125q-179 0 -303 -125.5t-124 -300.5q0 -177 125 -302t302 -125zM523 -175q-197 0 -336 139t-139 336q0 196 139 335t336 139q196 0 335 -139t139 -335q0 -198 -140 -336.5t-334 -138.5zM340 95l-27 56
q177 65 177 259l-2 103h70l1 -105q1 -189 180 -253l-26 -57q-136 47 -187 159q-51 -115 -186 -162z" />
    <glyph glyph-name="uni3267" unicode="&#x3267;" horiz-adv-x="1045" 
d="M523 -127q176 0 301 125t125 302q0 176 -125 301t-301 125q-179 0 -303 -125.5t-124 -300.5q0 -177 125 -302t302 -125zM523 -175q-197 0 -336 139t-139 336q0 196 139 335t336 139q196 0 335 -139t139 -335q0 -198 -140 -336.5t-334 -138.5zM523 170q59 0 102 40.5
t43 94.5t-43 94.5t-102 40.5t-102 -40.5t-43 -94.5t43 -94.5t102 -40.5zM523 111q-87 0 -148 56t-61 138t61 137.5t148 55.5t147.5 -55.5t60.5 -137.5t-60.5 -138t-147.5 -56z" />
    <glyph glyph-name="uni3268" unicode="&#x3268;" horiz-adv-x="1045" 
d="M523 -127q176 0 301 125t125 302q0 176 -125 301t-301 125q-179 0 -303 -125.5t-124 -300.5q0 -177 125 -302t302 -125zM523 -175q-197 0 -336 139t-139 336q0 196 139 335t336 139q196 0 335 -139t139 -335q0 -198 -140 -336.5t-334 -138.5zM342 112l-27 56
q177 65 177 263h-173v65h414v-65h-172q2 -60 18 -108q37 -105 162 -151l-26 -57q-136 47 -187 159q-52 -116 -186 -162z" />
    <glyph glyph-name="uni3269" unicode="&#x3269;" horiz-adv-x="1045" 
d="M523 -127q176 0 301 125t125 302q0 176 -125 301t-301 125q-179 0 -303 -125.5t-124 -300.5q0 -177 125 -302t302 -125zM523 -175q-197 0 -336 139t-139 336q0 196 139 335t336 139q196 0 335 -139t139 -335q0 -198 -140 -336.5t-334 -138.5zM326 77l-28 59
q170 63 187 233h-186v68h189l-2 106h73l2 -106h182v-68h-179q20 -167 190 -229l-27 -59q-145 49 -201 172q-55 -125 -200 -176z" />
    <glyph glyph-name="uni326A" unicode="&#x326a;" horiz-adv-x="1045" 
d="M523 -127q176 0 301 125t125 302q0 176 -125 301t-301 125q-179 0 -303 -125.5t-124 -300.5q0 -177 125 -302t302 -125zM523 -175q-197 0 -336 139t-139 336q0 196 139 335t336 139q196 0 335 -139t139 -335q0 -198 -140 -336.5t-334 -138.5zM732 102h-69v183h-325v63
h325v97h-336v62h370q15 0 25 -9.5t10 -24.5v-371z" />
    <glyph glyph-name="uni326B" unicode="&#x326b;" horiz-adv-x="1045" 
d="M523 -127q176 0 301 125t125 302q0 176 -125 301t-301 125q-179 0 -303 -125.5t-124 -300.5q0 -177 125 -302t302 -125zM523 -175q-197 0 -336 139t-139 336q0 196 139 335t336 139q196 0 335 -139t139 -335q0 -198 -140 -336.5t-334 -138.5zM726 112h-363q-14 0 -24 10
t-10 25v316q0 14 10 24t24 10h362v-60h-327v-101h326v-59h-326v-105h328v-60z" />
    <glyph glyph-name="uni326C" unicode="&#x326c;" horiz-adv-x="1045" 
d="M523 -127q176 0 301 125t125 302q0 176 -125 301t-301 125q-179 0 -303 -125.5t-124 -300.5q0 -177 125 -302t302 -125zM523 -175q-197 0 -336 139t-139 336q0 196 139 335t336 139q196 0 335 -139t139 -335q0 -198 -140 -336.5t-334 -138.5zM607 193v224h-159v-224h159z
M758 130h-461v63h82v224h-71v62h439v-62h-71v-224h82v-63z" />
    <glyph glyph-name="uni326D" unicode="&#x326d;" horiz-adv-x="1045" 
d="M523 -127q176 0 301 125t125 302q0 176 -125 301t-301 125q-179 0 -303 -125.5t-124 -300.5q0 -177 125 -302t302 -125zM523 -175q-197 0 -336 139t-139 336q0 196 139 335t336 139q196 0 335 -139t139 -335q0 -198 -140 -336.5t-334 -138.5zM528 131q41 0 70 28t29 67
q0 38 -29 66t-70 28t-70.5 -28t-29.5 -66q0 -39 29.5 -67t70.5 -28zM528 66q-69 0 -119 46.5t-50 113.5q0 65 50 112t119 47t119 -47t50 -112q0 -67 -50 -113.5t-119 -46.5zM711 409h-367v66h149v75h69v-75h149v-66z" />
    <glyph glyph-name="uni326E" unicode="&#x326e;" horiz-adv-x="1045" 
d="M523 -126q176 0 301 124.5t125 301.5t-125 302t-301 125q-179 0 -303 -126t-124 -301q0 -177 125 -301.5t302 -124.5zM523 -174q-197 0 -336 139t-139 335q0 197 139 336t336 139q196 0 335 -139t139 -336q0 -198 -140 -336t-334 -138zM725 -22h-66v645h66v-246h116v-61
h-116v-338zM246 99l-17 65q166 42 225 201q26 78 26 129h-218v61h253q13 0 23 -10t10 -28q0 -84 -29 -174q-71 -192 -273 -244z" />
    <glyph glyph-name="uni326F" unicode="&#x326f;" horiz-adv-x="1045" 
d="M523 -126q176 0 301 125t125 301q0 177 -125 302t-301 125q-179 0 -303 -125.5t-124 -301.5t125 -301t302 -125zM523 -174q-197 0 -336 139t-139 335q0 197 139 336t336 139q196 0 335 -139t139 -336q0 -198 -140 -336t-334 -138zM723 -22h-67v645h67v-246h116v-61h-116
v-338zM359 140q-55 0 -66.5 1.5t-20.5 10.5t-9 23v385h67v-353l28 -1q162 0 259 51l33 -60q-112 -57 -291 -57z" />
    <glyph glyph-name="uni3270" unicode="&#x3270;" horiz-adv-x="1045" 
d="M523 -126q176 0 301 125t125 301q0 177 -125 302t-301 125q-179 0 -303 -125.5t-124 -301.5t125 -301t302 -125zM523 -174q-197 0 -336 139t-139 335q0 197 139 336t336 139q196 0 335 -139t139 -336q0 -198 -140 -336t-334 -138zM387 139q-83 0 -102 8q-27 4 -27 32v343
q0 14 9.5 23.5t23.5 9.5h268v-60h-234v-292q19 -3 54 -3q26 0 60 2q80 5 164 43l30 -55q-109 -51 -246 -51zM714 -22h-67v645h67v-246h117v-61h-117v-338z" />
    <glyph glyph-name="uni3271" unicode="&#x3271;" horiz-adv-x="1045" 
d="M523 -127q176 0 301 125t125 302t-125 301.5t-301 124.5q-179 0 -303 -125.5t-124 -300.5q0 -177 125 -302t302 -125zM523 -175q-197 0 -336 139t-139 336q0 196 139 335t336 139q196 0 335 -139t139 -335q0 -198 -140 -336.5t-334 -138.5zM306 119q-14 0 -24.5 10
t-10.5 24v197q0 14 10 24t24 10h192v105h-227v66h261q14 0 23.5 -10t9.5 -24v-168q0 -14 -9.5 -24t-23.5 -10h-193v-132q228 15 288 39l29 -61q-42 -16 -117 -25q-135 -17 -232 -21zM728 -23h-67v645h67v-245h116v-61h-116v-339z" />
    <glyph glyph-name="uni3272" unicode="&#x3272;" horiz-adv-x="1045" 
d="M523 -127q176 0 301 125t125 302q0 176 -125 301t-301 125q-179 0 -303 -125.5t-124 -300.5q0 -177 125 -302t302 -125zM523 -175q-197 0 -336 139t-139 336q0 196 139 335t336 139q196 0 335 -139t139 -335q0 -198 -140 -336.5t-334 -138.5zM497 193v297h-173v-297h173z
M528 130h-235q-13 0 -23 9.5t-10 24.5v355q0 14 9.5 23.5t23.5 9.5h235q14 0 24 -9.5t10 -23.5v-355q0 -15 -10 -24.5t-24 -9.5zM717 -25h-67v646h67v-246h116v-61h-116v-339z" />
    <glyph glyph-name="uni3273" unicode="&#x3273;" horiz-adv-x="1045" 
d="M523 -126q176 0 301 125t125 301q0 177 -125 302t-301 125q-179 0 -303 -125.5t-124 -301.5t125 -301t302 -125zM523 -174q-197 0 -336 139t-139 335q0 197 139 336t336 139q196 0 335 -139t139 -336q0 -198 -140 -336t-334 -138zM489 199v145h-160v-145h160zM522 136
h-226q-14 0 -24 10t-10 24v391h67v-154h160v154h67v-391q0 -14 -10 -24t-24 -10zM721 -22h-68v645h68v-245h115v-62h-115v-338z" />
    <glyph glyph-name="uni3274" unicode="&#x3274;" horiz-adv-x="1045" 
d="M523 -127q176 0 301 125t125 302t-125 301.5t-301 124.5q-179 0 -303 -125.5t-124 -300.5q0 -177 125 -302t302 -125zM523 -175q-197 0 -336 139t-139 336q0 196 139 335t336 139q196 0 335 -139t139 -335q0 -198 -140 -336.5t-334 -138.5zM226 93l-25 61q176 74 176 299
l-1 115h68q1 -63 1 -118.5t18 -117.5q38 -123 161 -174l-24 -62q-138 56 -188 184q-49 -132 -186 -187zM713 -23h-67v645h67v-245h115v-61h-115v-339z" />
    <glyph glyph-name="uni3275" unicode="&#x3275;" horiz-adv-x="1045" 
d="M523 -126q176 0 301 125t125 301q0 177 -125 302t-301 125q-179 0 -303 -125.5t-124 -301.5t125 -301t302 -125zM523 -174q-197 0 -336 139t-139 335q0 197 139 336t336 139q196 0 335 -139t139 -336q0 -198 -140 -336t-334 -138zM388 179q41 0 72 50t31 118t-31 117.5
t-72 49.5q-40 0 -71 -49.5t-31 -117.5t31 -118t71 -50zM388 114q-70 0 -118 68t-48 165t48 164t118 67q71 0 119 -67t48 -164t-48 -165t-119 -68zM710 -22h-67v645h67v-246h116v-61h-116v-338z" />
    <glyph glyph-name="uni3276" unicode="&#x3276;" horiz-adv-x="1045" 
d="M523 -127q176 0 301 125t125 302t-125 301.5t-301 124.5q-179 0 -303 -125.5t-124 -300.5q0 -177 125 -302t302 -125zM523 -175q-197 0 -336 139t-139 336q0 196 139 335t336 139q196 0 335 -139t139 -335q0 -198 -140 -336.5t-334 -138.5zM726 -23h-68v645h68v-245h116
v-61h-116v-339zM569 96q-116 72 -144 169q-28 -98 -143 -169l-30 58q91 48 123 170q18 69 18 119v49h-127v63h318v-63h-127v-49q1 -50 18 -120q32 -121 123 -169z" />
    <glyph glyph-name="uni3277" unicode="&#x3277;" horiz-adv-x="1045" 
d="M523 -127q176 0 301 125t125 302t-125 301.5t-301 124.5q-179 0 -303 -125.5t-124 -300.5q0 -177 125 -302t302 -125zM523 -175q-197 0 -336 139t-139 336q0 196 139 335t336 139q196 0 335 -139t139 -335q0 -198 -140 -336.5t-334 -138.5zM720 -23h-67v645h67v-245h116
v-61h-116v-339zM569 108q-118 72 -147 174q-29 -102 -148 -174l-29 59q94 47 126 172q18 72 18 131h-130v57h130v76h66v-76h129v-57h-130q0 -60 19 -129q32 -126 126 -174z" />
    <glyph glyph-name="uni3278" unicode="&#x3278;" horiz-adv-x="1045" 
d="M523 -127q176 0 301 125t125 302t-125 301.5t-301 124.5q-179 0 -303 -125.5t-124 -300.5q0 -177 125 -302t302 -125zM523 -175q-197 0 -336 139t-139 336q0 196 139 335t336 139q196 0 335 -139t139 -335q0 -198 -140 -336.5t-334 -138.5zM731 -23h-67v645h67v-245h116
v-61h-116v-339zM253 98l-16 64q164 55 208 161h-177v67h202q17 62 18 96h-219v67h253q34 0 34 -38q0 -84 -30 -174q-72 -191 -273 -243z" />
    <glyph glyph-name="uni3279" unicode="&#x3279;" horiz-adv-x="1045" 
d="M523 -127q176 0 301 125t125 302q0 176 -125 301t-301 125q-179 0 -303 -125.5t-124 -300.5q0 -177 125 -302t302 -125zM523 -175q-197 0 -336 139t-139 336q0 196 139 335t336 139q196 0 335 -139t139 -335q0 -198 -140 -336.5t-334 -138.5zM417 135q-125 0 -140 20
q-8 8 -8 21v346q0 14 10 23.5t24 9.5h268v-67h-234v-104h234v-67h-234v-111q19 -3 53 -3q27 0 61 2q80 5 164 43l29 -62q-125 -51 -227 -51zM726 -23h-67v645h67v-245h116v-61h-116v-339z" />
    <glyph glyph-name="uni327A" unicode="&#x327a;" horiz-adv-x="1045" 
d="M523 -126q176 0 301 124.5t125 301.5t-125 302t-301 125q-179 0 -303 -126t-124 -301q0 -177 125 -301.5t302 -124.5zM523 -174q-197 0 -336 139t-139 335q0 197 139 336t336 139q196 0 335 -139t139 -336q0 -198 -140 -336t-334 -138zM742 -23h-68v646h68v-246h115v-61
h-115v-339zM500 162v329h-114v-329h114zM620 98h-354v64h52v329h-52v65h354v-65h-53v-329h53v-64z" />
    <glyph glyph-name="uni327B" unicode="&#x327b;" horiz-adv-x="1045" 
d="M523 -127q176 0 301 125t125 302q0 176 -125 301t-301 125q-179 0 -303 -125.5t-124 -300.5q0 -177 125 -302t302 -125zM523 -175q-197 0 -336 139t-139 336q0 196 139 335t336 139q196 0 335 -139t139 -335q0 -198 -140 -336.5t-334 -138.5zM419 171q38 0 65 29t27 70
q0 40 -27 69t-65 29t-65.5 -29t-27.5 -69q0 -41 27.5 -70t65.5 -29zM419 107q-65 0 -111 47.5t-46 115.5q0 67 46 114.5t111 47.5t111 -47.5t46 -114.5q0 -68 -46 -115.5t-111 -47.5zM589 459h-341v66h138v77h65v-77h138v-66zM725 -23h-67v645h67v-246h115v-60h-115v-339z
" />
    <glyph glyph-name="uni327F" unicode="&#x327f;" horiz-adv-x="1011" 
d="M505 -158q-159 0 -281 96t-165 260l49 12q39 -147 148 -232t249 -85q168 0 285 116.5t122 280.5h-246v51h295l2 -41q0 -190 -134.5 -324t-323.5 -134zM416 54h-62v518h62v-243l194 239l49 -40l-156 -192q41 -56 180 -239l-50 -39l-171 227l-46 -56v-175zM260 288h-212
l1 26q7 184 138 314q139 130 319 130q142 0 258 -80.5t172 -222.5l-47 -18q-51 127 -154.5 198.5t-228.5 71.5q-161 0 -275.5 -107t-129.5 -261h159v-51z" />
    <glyph glyph-name="uni33C2" unicode="&#x33c2;" horiz-adv-x="1139" 
d="M415 25q7 0 7 7t-7 7t-7 -7t7 -7zM415 4q-12 0 -20 8t-8 20t8 20t20 8t20 -8t8 -20t-8 -20t-20 -8zM1063 25q7 0 7 7t-7 7t-7 -7t7 -7zM1063 4q-12 0 -20 8t-8 20t8 20t20 8t20 -8t8 -20t-8 -20t-20 -8zM154 46q78 0 121 158v122h-39q-40 0 -80 -27q-56 -46 -56 -149
q0 -46 18 -80q12 -24 36 -24zM326 -23h-51v93q-46 -75 -120 -75q-52 0 -83 50q-23 48 -23 107q0 126 78 190q48 32 91 34l26 1q24 0 31 -2v48q0 127 -81 142q-63 0 -98 -49q-4 -4 -13 -12l-36 35l9 9q50 68 138 68q119 0 132 -193v-446zM974 -23h-51v429q0 63 -24 98t-51 35
q-26 0 -50.5 -29t-28.5 -101v-432h-51v431q-2 63 -26 97t-50 34q-28 0 -53 -29.5t-29 -102.5v-430h-51v646h51v-68q29 35 82 35q62 0 100 -70q30 70 106 70q47 0 86.5 -47.5t39.5 -136.5v-429z" />
    <glyph glyph-name="uni33C7" unicode="&#x33c7;" horiz-adv-x="974" 
d="M897 -74q7 0 7 7t-7 7q-6 0 -6 -7t6 -7zM897 -95q-11 0 -19.5 8t-8.5 20q0 11 8.5 19.5t19.5 8.5q12 0 20.5 -8.5t8.5 -19.5q0 -12 -8.5 -20t-20.5 -8zM287 -109q-104 0 -173 110q-66 114 -66 299q0 181 66 296q70 113 173 113q55 0 111 -46l-33 -39q-42 34 -78 34
q-82 0 -135 -99.5t-53 -258.5q0 -163 52 -260.5t136 -97.5q36 0 78 35l33 -40q-56 -46 -111 -46zM673 -58q98 0 108 238q0 107 -31 172t-77 65q-95 0 -109 -238q0 -110 30 -173.5t79 -63.5zM673 -109q-146 0 -160 288q0 129 43.5 209t116.5 80q143 0 159 -288
q0 -131 -43 -210t-116 -79z" />
    <glyph glyph-name="uni33D8" unicode="&#x33d8;" horiz-adv-x="1138" 
d="M199 8q99 0 99 256q0 255 -99 255t-99 -255q0 -256 99 -256zM99 -254h-51v848h51v-76q25 52 100 52q150 0 150 -306q0 -125 -22.5 -191t-57.5 -91t-70 -25q-75 0 -100 53v-264zM414 -5q6 0 6 7t-6 7q-7 0 -7 -7t7 -7zM414 -26q-12 0 -20 8t-8 20t8 20t20 8q11 0 19.5 -8
t8.5 -20t-8.5 -20t-19.5 -8zM1062 -5q7 0 7 7t-7 7t-7 -7t7 -7zM1062 -26q-12 0 -20 8t-8 20t8 20t20 8t20 -8t8 -20t-8 -20t-20 -8zM972 -53h-51v429q0 63 -24 98t-50 35t-50.5 -29t-29.5 -99l1 -434h-51l-1 433q-2 62 -25.5 95.5t-50.5 33.5t-52 -29.5t-30 -102.5v-430
h-51v646h51v-69q30 36 82 36q63 0 101 -70q30 70 106 70q47 0 86 -47.5t39 -136.5v-429z" />
    <glyph glyph-name="uniAC00" unicode="&#xac00;" 
d="M60 8l-18 73q264 64 362 323q44 127 44 227h-356v63h395q14 0 25.5 -10.5t11.5 -33.5q0 -131 -47 -269q-113 -295 -417 -373zM802 -186h-73v987h73v-388h177v-63h-177v-536z" />
    <glyph glyph-name="uniAC01" unicode="&#xac01;" 
d="M825 -186h-76v270h-590v60h628q16 0 27 -10.5t11 -25.5v-294zM824 234h-76v567h76v-252h154v-64h-154v-251zM54 241l-12 72q278 45 376 219q36 68 42 136h-370v64h408q39 0 39 -43q0 -97 -51 -192q-101 -197 -432 -256z" />
    <glyph glyph-name="uniAC02" unicode="&#xac02;" 
 />
    <glyph glyph-name="uniAC03" unicode="&#xac03;" 
 />
    <glyph glyph-name="uniAC04" unicode="&#xac04;" 
d="M54 226l-12 73q278 47 376 226q38 71 41 140h-369v64h409q38 0 38 -43q0 -101 -51 -196q-101 -202 -432 -264zM825 101h-76v700h76v-290h153v-63h-153v-347zM843 -173h-636q-15 0 -26 10.5t-11 25.5v250h75v-223h598v-63z" />
    <glyph glyph-name="uniAC05" unicode="&#xac05;" 
 />
    <glyph glyph-name="uniAC06" unicode="&#xac06;" 
 />
    <glyph glyph-name="uniAC07" unicode="&#xac07;" 
d="M835 -186h-629q-15 0 -26 10.5t-11 25.5v258q0 15 11 25.5t26 10.5h620v-59h-582v-213h591v-58zM824 234h-76v567h76v-265h154v-63h-154v-239zM54 238l-12 73q248 49 332 159t85 197h-369v64h408q35 0 39 -42q0 -98 -51 -193q-101 -198 -432 -258z" />
    <glyph glyph-name="uniAC08" unicode="&#xac08;" 
d="M824 295h-76v506h76v-218h154v-63h-154v-225zM53 275l-11 73q242 45 328 146.5t88 184.5h-368v64h408q15 0 27 -11t12 -31q0 -93 -52 -184q-101 -187 -432 -242zM831 -186h-634q-15 0 -26 10.5t-11 25.5v156q0 15 11 26t26 11h552v111h-588v58h626q16 0 27 -10t11 -26
v-155q0 -15 -11 -26t-27 -11h-552v-111h596v-59z" />
    <glyph glyph-name="uniAC09" unicode="&#xac09;" 
d="M825 -186h-76v337h-214v61h252q16 0 27 -10.5t11 -25.5v-362zM480 -187h-285q-15 0 -26.5 10.5t-11.5 25.5v154q0 15 11.5 26t26.5 11h210v118h-249v53h282q15 0 26.5 -10t11.5 -26v-153q0 -15 -11.5 -26t-26.5 -11h-210v-118h252v-54zM53 274l-11 72q243 46 328.5 147.5
t87.5 184.5h-368v64h408q15 0 27 -11t12 -31q0 -93 -52 -184q-101 -187 -432 -242zM824 293h-76v508h76v-229h154v-62h-154v-217z" />
    <glyph glyph-name="uniAC0A" unicode="&#xac0a;" 
d="M466 -186h-276q-16 0 -27 10.5t-11 25.5v158q0 15 11 25t27 10h199v111h-237v58h271q16 0 27 -10t11 -26v-155q0 -15 -11 -26t-27 -11h-199v-111h242v-59zM824 294h-76v507h76v-222h154v-64h-154v-221zM53 275l-11 72q242 46 328 147.5t88 184.5h-368v64h408q15 0 27 -11
t12 -31q0 -93 -52 -184q-101 -187 -432 -242zM748 -128v282h-153v-282h153zM786 -186h-229q-16 0 -27 10.5t-11 25.5v327q0 15 11 25.5t27 10.5h229q16 0 27 -10.5t11 -25.5v-327q0 -15 -11 -25.5t-27 -10.5z" />
    <glyph glyph-name="uniAC0B" unicode="&#xac0b;" 
d="M824 294h-76v507h76v-222h154v-64h-154v-221zM748 -125v146h-151v-146h151zM786 -186h-227q-15 0 -26.5 10.5t-11.5 25.5v367h76v-136h151v136h76v-367q0 -15 -11 -25.5t-27 -10.5zM468 -186h-277q-16 0 -27 10.5t-11 25.5v156q0 15 11 26t27 11h197v111h-235v58h273
q15 0 26 -10t11 -26v-155q0 -15 -11 -26t-26 -11h-197v-111h239v-59zM53 275l-11 72q242 46 328 147.5t88 184.5h-368v64h408q15 0 27 -11t12 -31q0 -93 -52 -184q-101 -187 -432 -242z" />
    <glyph glyph-name="uniAC0C" unicode="&#xac0c;" 
 />
    <glyph glyph-name="uniAC0D" unicode="&#xac0d;" 
 />
    <glyph glyph-name="uniAC0E" unicode="&#xac0e;" 
 />
    <glyph glyph-name="uniAC0F" unicode="&#xac0f;" 
 />
    <glyph glyph-name="uniAC10" unicode="&#xac10;" 
d="M54 238l-12 73q248 49 332 159t85 197h-369v64h408q39 0 39 -43q0 -97 -51 -192q-99 -196 -432 -258zM748 -123v202h-513v-202h513zM786 -186h-589q-15 0 -26 10.5t-11 25.5v256q0 16 11 26.5t26 10.5h589q16 0 27 -10.5t11 -26.5v-256q0 -15 -11 -25.5t-27 -10.5z
M824 233h-76v567h76v-254h154v-62h-154v-251z" />
    <glyph glyph-name="uniAC11" unicode="&#xac11;" 
d="M824 266h-76v534h76v-219h154v-63h-154v-252zM748 -123v140h-513v-140h513zM786 -186h-589q-15 0 -26 10.5t-11 25.5v333h75v-102h513v102h76v-333q0 -15 -11 -25.5t-27 -10.5zM53 275l-11 72q242 46 328 148t88 185h-368v64h408q15 0 27 -11t12 -31q0 -93 -52 -184
q-99 -187 -432 -243z" />
    <glyph glyph-name="uniAC12" unicode="&#xac12;" 
d="M410 -125v150h-170v-150h170zM448 -183h-246q-16 0 -27 10.5t-11 25.5v362h76v-132h170v132h76v-362q0 -15 -11.5 -25.5t-26.5 -10.5zM53 278l-11 72q242 46 328 148t88 185h-368v64h408q15 0 27 -11t12 -31q0 -93 -52 -184q-99 -187 -432 -243zM824 296h-76v507h76v-218
h154v-63h-154v-226zM570 -189l-36 61q112 68 144 217q11 47 11 61v67h73v-64q0 -12 12 -64t46.5 -115t96.5 -102l-35 -60q-110 70 -156 193q-46 -123 -156 -194z" />
    <glyph glyph-name="uniAC13" unicode="&#xac13;" 
d="M825 161h-76v642h76v-274h154v-63h-154v-305zM889 -188q-291 87 -353 220q-63 -133 -353 -220l-18 67q236 60 307 182q27 45 28 59v45h72v-45q0 -14 26.5 -58.5t99 -96.5t208.5 -86zM55 189l-13 72q252 55 335 178.5t83 218.5h-369v64h408q16 0 27.5 -11t11.5 -33
q0 -107 -51 -207q-99 -215 -432 -282z" />
    <glyph glyph-name="uniAC14" unicode="&#xac14;" 
d="M825 254h-76v550h76v-234h154v-62h-154v-254zM531 -188l-12 27q-123 69 -171 165q-48 -120 -196 -192l-27 61q133 60 171 186q15 46 15 59v50h69v-50q1 -11 13 -49q35 -105 158 -171q60 42 89 88.5t39 83.5t11 48v50h69q0 -26 3 -58q0 -11 12 -51q34 -113 156 -172
l-29 -60q-129 67 -176 173q-49 -118 -194 -188zM54 230l-12 72q249 51 333 164t84 202h-369v63h409q38 0 38 -43q0 -100 -51 -195q-99 -201 -432 -263z" />
    <glyph glyph-name="uniAC15" unicode="&#xac15;" 
d="M824 233h-76v568h76v-254h154v-62h-154v-252zM54 239l-12 73q248 50 332 159.5t85 195.5h-369v64h408q35 0 39 -42q0 -99 -51 -192q-101 -198 -432 -258zM528 -126q126 0 201.5 43.5t75.5 78.5q0 37 -75.5 80t-201.5 43t-201 -43t-75 -80q0 -35 75 -78.5t201 -43.5z
M528 -186q-150 0 -249 52.5t-99 129.5q0 78 99 131t249 53t249.5 -53t99.5 -131q0 -77 -99.5 -129.5t-249.5 -52.5z" />
    <glyph glyph-name="uniAC16" unicode="&#xac16;" 
d="M845 -197q-281 76 -344 189q-61 -113 -344 -189l-14 68q127 28 197 71.5t96.5 80.5t29.5 50v25h-297v59h665v-59h-296v-25q1 -13 27 -50t97 -80.5t199 -71.5zM54 250l-12 73q248 50 332 159.5t85 195.5h-369v64h408q35 0 39 -42q0 -99 -51 -192q-101 -198 -432 -258z
M824 244h-76v568h76v-248h154v-64h-154v-256z" />
    <glyph glyph-name="uniAC17" unicode="&#xac17;" 
d="M53 276l-11 72q244 46 329.5 148.5t86.5 185.5h-368v64h408q15 0 27 -11t12 -31l-1 -22q-4 -77 -51 -163q-99 -187 -432 -243zM681 184h-318v58h318v-58zM873 -187q-291 67 -348 165q-59 -98 -350 -165l-13 68q121 24 190.5 57t98.5 62.5t36 51.5h-304v58h679v-58h-301
q8 -23 37.5 -52.5t99 -62.5t188.5 -56zM824 272h-76v530h76v-219h154v-64h-154v-247z" />
    <glyph glyph-name="uniAC18" unicode="&#xac18;" 
 />
    <glyph glyph-name="uniAC19" unicode="&#xac19;" 
d="M53 272l-11 72q242 47 328 149t88 185h-368v64h408q15 0 27 -11t12 -31l-1 -22q-4 -78 -51 -162q-99 -187 -432 -244zM826 -186h-621q-15 0 -26.5 10.5t-11.5 25.5v316q0 15 11.5 26t26.5 11h619v-60h-581v-105h580v-58h-580v-108h583v-58zM824 289h-76v511h76v-225h154
v-63h-154v-223z" />
    <glyph glyph-name="uniAC1A" unicode="&#xac1a;" 
d="M667 -123v218h-297v-218h297zM876 -186h-715v63h133v218h-115v63h679v-63h-115v-218h133v-63zM53 270l-11 72q243 45 328.5 145.5t87.5 184.5h-368v63h408q15 0 27 -10.5t12 -31.5l-1 -21q-4 -77 -51 -161q-101 -185 -432 -241zM824 248h-76v552h76v-261h154v-63h-154
v-228z" />
    <glyph glyph-name="uniAC1B" unicode="&#xac1b;" 
d="M824 316h-76v488h76v-202h154v-62h-154v-224zM700 232h-326v58h326v-58zM53 279l-11 72q243 46 328.5 147.5t87.5 184.5h-368v64h408q15 0 27 -11t12 -31q0 -93 -52 -184q-101 -187 -432 -242zM538 -122q111 0 172 30t61 53q0 24 -61 54.5t-172 30.5q-112 0 -173 -30.5
t-61 -54.5q0 -23 61 -53t173 -30zM538 -190q-131 0 -217 44.5t-86 106.5q0 87 200 145h-245v59h695v-59h-244q199 -58 199 -145q0 -62 -86 -106.5t-216 -44.5z" />
    <glyph glyph-name="uniAC1C" unicode="&#xac1c;" 
d="M68 9l-21 71q151 47 230 151.5t105.5 215t27.5 185.5h-316v63h354q15 0 26.5 -10.5t11.5 -33.5q0 -130 -42 -268q-102 -296 -376 -374zM910 -186h-74v536h-139v-488h-74v914h74v-364h139v389h74v-987z" />
    <glyph glyph-name="uniAC1D" unicode="&#xac1d;" 
d="M909 232h-76v253h-141v-244h-76v543h76v-236h141v253h76v-569zM62 223l-15 72q237 47 322 226q34 75 36 144h-315v64h355q14 0 26 -11t12 -28l-4 -61q-5 -58 -41 -139q-87 -204 -376 -267zM909 -186h-76v266h-605v64h643q16 0 27 -10.5t11 -26.5v-293z" />
    <glyph glyph-name="uniAC1E" unicode="&#xac1e;" 
 />
    <glyph glyph-name="uniAC1F" unicode="&#xac1f;" 
 />
    <glyph glyph-name="uniAC20" unicode="&#xac20;" 
d="M913 -180h-647q-15 0 -26 10t-11 27v249h75v-223h609v-63zM904 92h-76v356h-141v-346h-76v675h76v-265h141v283h76v-703zM57 206l-15 72q237 48 322 231q34 78 37 150h-315v63h354q14 0 26.5 -11t12.5 -31q0 -95 -46 -202q-88 -207 -376 -272z" />
    <glyph glyph-name="uniAC21" unicode="&#xac21;" 
 />
    <glyph glyph-name="uniAC22" unicode="&#xac22;" 
 />
    <glyph glyph-name="uniAC23" unicode="&#xac23;" 
d="M57 221l-15 73q214 50 286 165t73 205h-315v64h354q14 0 26 -11t12 -27q0 -98 -45 -201q-88 -205 -376 -268zM904 232h-76v260h-141v-251h-76v543h76v-229h141v246h76v-569zM914 -186h-643q-16 0 -27 10.5t-11 25.5v256q0 17 11 27t27 10h635v-58h-597v-213h605v-58z" />
    <glyph glyph-name="uniAC24" unicode="&#xac24;" 
d="M905 292h-76v228h-140v-218h-76v482h76v-201h140v218h76v-509zM913 -186h-649q-16 0 -27 10.5t-11 25.5v156q0 15 11 26t27 11h567v111h-604v58h642q16 0 27 -10.5t11 -25.5v-155q0 -15 -11 -26t-27 -11h-567v-111h611v-59zM58 261l-14 71q211 48 284 154.5t74 191.5
h-315v64h354q15 0 27 -10.5t12 -30.5q0 -89 -45 -188q-88 -193 -377 -252z" />
    <glyph glyph-name="uniAC25" unicode="&#xac25;" 
 />
    <glyph glyph-name="uniAC26" unicode="&#xac26;" 
 />
    <glyph glyph-name="uniAC27" unicode="&#xac27;" 
 />
    <glyph glyph-name="uniAC28" unicode="&#xac28;" 
 />
    <glyph glyph-name="uniAC29" unicode="&#xac29;" 
 />
    <glyph glyph-name="uniAC2A" unicode="&#xac2a;" 
 />
    <glyph glyph-name="uniAC2B" unicode="&#xac2b;" 
 />
    <glyph glyph-name="uniAC2C" unicode="&#xac2c;" 
d="M833 -122v202h-528v-202h528zM871 -185h-604q-16 0 -27 10.5t-11 25.5v256q0 16 11 26.5t27 10.5h604q16 0 27 -10.5t11 -26.5v-256q0 -15 -11 -25.5t-27 -10.5zM62 223l-15 71q237 48 322 227q34 75 36 144h-314v64h354q14 0 26 -11t12 -27l-4 -62q-5 -58 -41 -140
q-88 -203 -376 -266zM909 231h-76v254h-141v-245h-76v544h76v-237h141v254h76v-570z" />
    <glyph glyph-name="uniAC2D" unicode="&#xac2d;" 
d="M833 -122v140h-527v-140h527zM871 -185h-603q-16 0 -27 10.5t-11 25.5v332h76v-101h527v101h76v-332q0 -15 -11 -25.5t-27 -10.5zM909 265h-76v254h-140v-244h-76v509h76v-202h140v219h76v-536zM62 258l-14 71q238 44 322 213q33 68 35 134h-314v64h354q15 0 27 -10.5
t12 -30.5q0 -93 -46 -190q-88 -194 -376 -251z" />
    <glyph glyph-name="uniAC2E" unicode="&#xac2e;" 
 />
    <glyph glyph-name="uniAC2F" unicode="&#xac2f;" 
d="M900 158h-76v317h-140v-258h-76v568h76v-246h140v264h76v-645zM53 182l-15 73q218 56 289 185t71 226h-316v64h354q38 0 38 -42q0 -104 -44 -214q-86 -224 -377 -292zM899 -188q-296 88 -360 220q-62 -132 -359 -220l-17 67q241 60 313 182q27 44 28 59v45h72v-45
q1 -15 27 -59q73 -122 312 -182z" />
    <glyph glyph-name="uniAC30" unicode="&#xac30;" 
d="M42 216l-15 71q237 48 322 232q34 77 37 148h-315v64h354q16 0 27 -10.5t11 -31.5q0 -95 -45 -201q-87 -210 -376 -272zM889 251h-76v251h-141v-241h-76v525h76v-221h141v239h76v-553zM551 -188l-13 27q-123 68 -171 165q-49 -120 -196 -192l-28 60q134 61 173 188
q14 45 14 57v51h70v-51q0 -10 13 -48q33 -105 158 -171q99 71 128 173q11 36 11 45v52h69q0 -199 170 -282l-29 -59q-129 66 -176 172q-50 -117 -193 -187z" />
    <glyph glyph-name="uniAC31" unicode="&#xac31;" 
d="M565 -127q130 0 208.5 43.5t78.5 79.5q0 37 -78.5 80t-208.5 43q-131 0 -209.5 -43t-78.5 -80q0 -36 78.5 -79.5t209.5 -43.5zM565 -187q-155 0 -257.5 53t-102.5 130q0 78 102.5 131t257.5 53q154 0 256.5 -53t102.5 -131q0 -77 -102.5 -130t-256.5 -53zM47 223l-15 71
q237 48 322 227q34 75 36 144h-314v64h354q14 0 26 -11t12 -27l-4 -62q-5 -58 -41 -140q-88 -203 -376 -266zM894 231h-76v254h-141v-225h-76v524h76v-237h141v254h76v-570z" />
    <glyph glyph-name="uniAC32" unicode="&#xac32;" 
 />
    <glyph glyph-name="uniAC33" unicode="&#xac33;" 
 />
    <glyph glyph-name="uniAC34" unicode="&#xac34;" 
 />
    <glyph glyph-name="uniAC35" unicode="&#xac35;" 
 />
    <glyph glyph-name="uniAC36" unicode="&#xac36;" 
 />
    <glyph glyph-name="uniAC37" unicode="&#xac37;" 
 />
    <glyph glyph-name="uniAC38" unicode="&#xac38;" 
d="M802 -187h-76v988h76v-264h177v-63h-177v-228h177v-63h-177v-370zM60 8l-18 71q169 47 257.5 151t118.5 215t30 185h-356v64h395q14 0 25.5 -10.5t11.5 -33.5q0 -131 -47 -269q-113 -295 -417 -373z" />
    <glyph glyph-name="uniAC39" unicode="&#xac39;" 
d="M824 234h-76v567h76v-150h154v-64h-154v-142h154v-63h-154v-148zM54 240l-12 73q248 48 332 158t85 196h-369v64h408q39 0 39 -42q0 -98 -51 -193q-100 -196 -432 -256zM825 -187h-76v267h-590v64h628q16 0 27 -11t11 -26v-294z" />
    <glyph glyph-name="uniAC3A" unicode="&#xac3a;" 
 />
    <glyph glyph-name="uniAC3B" unicode="&#xac3b;" 
 />
    <glyph glyph-name="uniAC3C" unicode="&#xac3c;" 
d="M825 95h-76v701h76v-185h154v-64h-154v-143h154v-62h-154v-247zM54 221l-12 72q249 51 333 164.5t84 202.5h-369v63h409q38 0 38 -43q0 -100 -51 -196q-100 -202 -432 -263zM843 -180h-636q-15 0 -26 10.5t-11 26.5v250h75v-223h598v-64z" />
    <glyph glyph-name="uniAC3D" unicode="&#xac3d;" 
 />
    <glyph glyph-name="uniAC3E" unicode="&#xac3e;" 
 />
    <glyph glyph-name="uniAC3F" unicode="&#xac3f;" 
 />
    <glyph glyph-name="uniAC40" unicode="&#xac40;" 
d="M53 274l-11 72q242 47 328 148.5t88 184.5h-368v64h408q15 0 27 -11t12 -31l-1 -22q-4 -78 -51 -162q-101 -186 -432 -243zM824 294h-76v507h76v-128h154v-63h-154v-143h154v-64h-154v-109zM831 -187h-634q-15 0 -26 11t-11 26v154q0 15 11 25.5t26 10.5h552v114h-588v58
h626q16 0 27 -10.5t11 -26.5v-157q0 -15 -11 -26t-27 -11h-552v-108h596v-60z" />
    <glyph glyph-name="uniAC41" unicode="&#xac41;" 
 />
    <glyph glyph-name="uniAC42" unicode="&#xac42;" 
 />
    <glyph glyph-name="uniAC43" unicode="&#xac43;" 
 />
    <glyph glyph-name="uniAC44" unicode="&#xac44;" 
 />
    <glyph glyph-name="uniAC45" unicode="&#xac45;" 
 />
    <glyph glyph-name="uniAC46" unicode="&#xac46;" 
 />
    <glyph glyph-name="uniAC47" unicode="&#xac47;" 
 />
    <glyph glyph-name="uniAC48" unicode="&#xac48;" 
 />
    <glyph glyph-name="uniAC49" unicode="&#xac49;" 
 />
    <glyph glyph-name="uniAC4A" unicode="&#xac4a;" 
 />
    <glyph glyph-name="uniAC4B" unicode="&#xac4b;" 
d="M889 -189q-291 88 -353 220q-63 -132 -353 -220l-18 67q237 61 308 183q26 44 27 58v46h72v-46q0 -14 26.5 -58t99 -96t208.5 -87zM825 161h-76v641h76v-169h154v-63h-154v-143h154v-63h-154v-203zM55 189l-13 72q277 50 376 241q40 83 42 156h-369v63h408
q16 0 27.5 -10.5t11.5 -32.5q0 -107 -51 -207q-100 -218 -432 -282z" />
    <glyph glyph-name="uniAC4C" unicode="&#xac4c;" 
 />
    <glyph glyph-name="uniAC4D" unicode="&#xac4d;" 
d="M528 -139q126 0 201.5 43.5t75.5 80.5q0 36 -75.5 79.5t-201.5 43.5t-201.5 -43.5t-75.5 -79.5q0 -37 75.5 -80.5t201.5 -43.5zM528 -198q-150 0 -249 53t-99 130t99 130t249 53t249 -53t99 -130t-99 -130t-249 -53zM824 221h-76v569h76v-149h154v-64h-154v-143h154v-62
h-154v-151zM54 228l-12 72q248 49 332 159t85 197h-369v64h408q35 0 39 -43q0 -99 -51 -192q-101 -198 -432 -257z" />
    <glyph glyph-name="uniAC4E" unicode="&#xac4e;" 
 />
    <glyph glyph-name="uniAC4F" unicode="&#xac4f;" 
 />
    <glyph glyph-name="uniAC50" unicode="&#xac50;" 
 />
    <glyph glyph-name="uniAC51" unicode="&#xac51;" 
 />
    <glyph glyph-name="uniAC52" unicode="&#xac52;" 
 />
    <glyph glyph-name="uniAC53" unicode="&#xac53;" 
 />
    <glyph glyph-name="uniAC54" unicode="&#xac54;" 
d="M68 9l-21 72q235 65 323 322q40 132 40 229h-316v64h354q38 0 38 -46q0 -129 -42 -267q-102 -296 -376 -374zM834 246v228h-137v-228h137zM910 -186h-76v369h-137v-321h-75v915h75v-239h137v264h76v-988z" />
    <glyph glyph-name="uniAC55" unicode="&#xac55;" 
 />
    <glyph glyph-name="uniAC56" unicode="&#xac56;" 
 />
    <glyph glyph-name="uniAC57" unicode="&#xac57;" 
 />
    <glyph glyph-name="uniAC58" unicode="&#xac58;" 
d="M828 404v142h-141v-142h141zM904 92h-76v249h-141v-240h-76v677h76v-168h141v185h76v-703zM57 206l-15 72q216 52 287.5 170.5t71.5 209.5h-315v64h354q16 0 27.5 -11t11.5 -31q0 -96 -46 -202q-88 -209 -376 -272zM913 -181h-646q-16 0 -26.5 11t-10.5 26v251h75v-224
h608v-64z" />
    <glyph glyph-name="uniAC59" unicode="&#xac59;" 
 />
    <glyph glyph-name="uniAC5A" unicode="&#xac5a;" 
 />
    <glyph glyph-name="uniAC5B" unicode="&#xac5b;" 
 />
    <glyph glyph-name="uniAC5C" unicode="&#xac5c;" 
d="M58 258l-14 72q211 48 284 154.5t74 191.5h-315v64h354q15 0 27 -10.5t12 -30.5q0 -90 -45 -189q-88 -193 -377 -252zM829 445v143h-140v-143h140zM905 292h-76v89h-140v-80h-76v483h76v-134h140v152h76v-510zM913 -186h-649q-16 0 -27 10.5t-11 26.5v155q0 15 11 26
t27 11h567v111h-604v59h642q16 0 27 -11t11 -26v-156q0 -15 -11 -25.5t-27 -10.5h-567v-112h611v-58z" />
    <glyph glyph-name="uniAC5D" unicode="&#xac5d;" 
 />
    <glyph glyph-name="uniAC5E" unicode="&#xac5e;" 
 />
    <glyph glyph-name="uniAC5F" unicode="&#xac5f;" 
 />
    <glyph glyph-name="uniAC60" unicode="&#xac60;" 
 />
    <glyph glyph-name="uniAC61" unicode="&#xac61;" 
 />
    <glyph glyph-name="uniAC62" unicode="&#xac62;" 
 />
    <glyph glyph-name="uniAC63" unicode="&#xac63;" 
 />
    <glyph glyph-name="uniAC64" unicode="&#xac64;" 
 />
    <glyph glyph-name="uniAC65" unicode="&#xac65;" 
d="M833 445v143h-140v-143h140zM909 266h-76v115h-140v-106h-76v509h76v-134h140v152h76v-536zM833 -122v140h-527v-140h527zM871 -186h-603q-16 0 -27 10.5t-11 26.5v332h76v-101h527v101h76v-332q0 -16 -11 -26.5t-27 -10.5zM62 257l-14 72q238 45 322 213q33 68 35 134
h-314v64h354q15 0 27 -10.5t12 -30.5q0 -93 -45 -189q-89 -194 -377 -253z" />
    <glyph glyph-name="uniAC66" unicode="&#xac66;" 
 />
    <glyph glyph-name="uniAC67" unicode="&#xac67;" 
 />
    <glyph glyph-name="uniAC68" unicode="&#xac68;" 
 />
    <glyph glyph-name="uniAC69" unicode="&#xac69;" 
 />
    <glyph glyph-name="uniAC6A" unicode="&#xac6a;" 
 />
    <glyph glyph-name="uniAC6B" unicode="&#xac6b;" 
 />
    <glyph glyph-name="uniAC6C" unicode="&#xac6c;" 
 />
    <glyph glyph-name="uniAC6D" unicode="&#xac6d;" 
 />
    <glyph glyph-name="uniAC6E" unicode="&#xac6e;" 
 />
    <glyph glyph-name="uniAC6F" unicode="&#xac6f;" 
 />
    <glyph glyph-name="uniAC70" unicode="&#xac70;" 
d="M885 -186h-76v538h-202v63h202v387h76v-988zM89 9l-18 72q169 46 257.5 150.5t118.5 215t30 185.5h-356v64h395q14 0 25.5 -11t11.5 -35q0 -128 -47 -269q-113 -295 -417 -372z" />
    <glyph glyph-name="uniAC71" unicode="&#xac71;" 
d="M83 241l-12 72q278 47 376 219q36 70 42 137h-370v63h408q35 0 39 -42q0 -99 -51 -192q-99 -196 -432 -257zM884 233h-76v236h-201v63h201v270h76v-569zM884 -186h-76v268h-605v64h643q16 0 27 -11t11 -26v-295z" />
    <glyph glyph-name="uniAC72" unicode="&#xac72;" 
 />
    <glyph glyph-name="uniAC73" unicode="&#xac73;" 
 />
    <glyph glyph-name="uniAC74" unicode="&#xac74;" 
d="M890 -180h-645q-16 0 -27 11t-11 26v251h75v-224h608v-64zM881 93h-76v323h-219v63h219v316h76v-702zM80 221l-12 73q249 50 333 163t84 202h-369v64h409q34 0 38 -43q0 -99 -51 -196q-102 -201 -432 -263z" />
    <glyph glyph-name="uniAC75" unicode="&#xac75;" 
 />
    <glyph glyph-name="uniAC76" unicode="&#xac76;" 
 />
    <glyph glyph-name="uniAC77" unicode="&#xac77;" 
d="M891 -186h-644q-16 0 -27 10.5t-11 26.5v257q0 15 11 25.5t27 10.5h635v-58h-597v-213h606v-59zM880 233h-76v240h-201v63h201v266h76v-569zM79 238l-12 73q278 46 376 220q36 70 42 138h-370v62h408q39 0 39 -42q0 -99 -51 -192q-99 -197 -432 -259z" />
    <glyph glyph-name="uniAC78" unicode="&#xac78;" 
d="M79 272l-11 72q242 46 328 148t88 184h-368v64h408q15 0 27 -10.5t12 -30.5l-1 -22q-4 -77 -51 -163q-101 -187 -432 -242zM881 291h-76v192h-201v62h201v257h76v-511zM888 -186h-648q-15 0 -26.5 10.5t-11.5 26.5v152q0 15 11.5 26t26.5 11h567v113h-605v60h642
q16 0 27 -11t11 -26v-158q0 -15 -11 -26t-27 -11h-566v-108h610v-59z" />
    <glyph glyph-name="uniAC79" unicode="&#xac79;" 
 />
    <glyph glyph-name="uniAC7A" unicode="&#xac7a;" 
d="M808 -128v282h-173v-282h173zM846 -187h-249q-16 0 -27 10.5t-11 25.5v327q0 15 11 25.5t27 10.5h249q16 0 27 -10.5t11 -25.5v-327q0 -15 -11 -25.5t-27 -10.5zM82 272l-11 72q242 46 328 148t88 184h-368v64h408q15 0 27 -11t12 -30l-1 -22q-4 -77 -51 -163
q-101 -187 -432 -242zM506 -186h-282q-15 0 -26.5 10.5t-11.5 25.5v156q0 15 11.5 26t26.5 11h205v111h-243v58h277q16 0 27 -10.5t11 -25.5v-156q0 -15 -11 -26t-27 -11h-204v-111h247v-58zM884 291h-76v211h-201v63h201v236h76v-510z" />
    <glyph glyph-name="uniAC7B" unicode="&#xac7b;" 
 />
    <glyph glyph-name="uniAC7C" unicode="&#xac7c;" 
 />
    <glyph glyph-name="uniAC7D" unicode="&#xac7d;" 
 />
    <glyph glyph-name="uniAC7E" unicode="&#xac7e;" 
 />
    <glyph glyph-name="uniAC7F" unicode="&#xac7f;" 
 />
    <glyph glyph-name="uniAC80" unicode="&#xac80;" 
d="M808 -123v203h-528v-203h528zM846 -186h-604q-16 0 -27 10.5t-11 25.5v257q0 15 11 25.5t27 10.5h604q16 0 27 -10.5t11 -25.5v-257q0 -15 -11 -25.5t-27 -10.5zM83 239l-12 73q278 45 376 219q36 68 42 136h-370v64h408q35 0 39 -42q0 -99 -51 -192q-99 -198 -432 -258z
M884 231h-76v242h-201v63h201v265h76v-570z" />
    <glyph glyph-name="uniAC81" unicode="&#xac81;" 
d="M808 -123v141h-528v-141h528zM846 -186h-604q-16 0 -27 10.5t-11 25.5v333h76v-101h528v101h76v-333q0 -15 -11 -25.5t-27 -10.5zM82 273l-11 72q242 46 328 148t88 185h-368v64h408q15 0 27 -10.5t12 -30.5q0 -94 -52 -185q-99 -187 -432 -243zM884 265h-76v202h-201v64
h201v270h76v-536z" />
    <glyph glyph-name="uniAC82" unicode="&#xac82;" 
 />
    <glyph glyph-name="uniAC83" unicode="&#xac83;" 
d="M888 -188q-297 88 -359 221q-62 -133 -359 -221l-17 68q239 59 313 181q26 45 27 60v44h73v-44q0 -14 26.5 -59t100.5 -96.5t212 -85.5zM64 190l-13 71q277 51 376 242q40 84 42 156h-369v64h408q16 0 27.5 -11.5t11.5 -33.5q0 -104 -51 -207q-102 -216 -432 -281z
M865 159h-76v281h-207v62h207v301h76v-644z" />
    <glyph glyph-name="uniAC84" unicode="&#xac84;" 
d="M842 253h-76v195h-200v63h200v293h76v-551zM41 230l-12 72q278 47 376 225q38 71 41 141h-369v63h409q34 0 38 -42q0 -99 -51 -196q-102 -201 -432 -263zM529 -188l-12 28q-123 68 -171 164q-48 -119 -196 -192l-27 61q133 60 172 187q14 46 14 58v50h69v-50
q0 -11 13 -48.5t48.5 -84.5t109.5 -86q60 42 89 89q48 77 49 130v50h70q0 -26 3 -58q0 -10 12 -51q34 -113 156 -172l-29 -60q-129 67 -176 173q-50 -117 -194 -188z" />
    <glyph glyph-name="uniAC85" unicode="&#xac85;" 
d="M540 -137q130 0 208.5 43t78.5 80q0 36 -78.5 79.5t-208.5 43.5t-208 -43.5t-78 -79.5q0 -37 78 -80t208 -43zM540 -198q-155 0 -257 53t-102 131q0 77 102 130t257 53q154 0 256.5 -53t102.5 -130q0 -78 -102.5 -131t-256.5 -53zM68 229l-12 73q248 48 332 158t85 197
h-369v64h408q39 0 39 -43q0 -98 -51 -193q-101 -196 -432 -256zM869 221h-76v228h-201v63h201v278h76v-569z" />
    <glyph glyph-name="uniAC86" unicode="&#xac86;" 
d="M873 243h-76v224h-201v62h201v283h76v-569zM882 -197q-290 76 -353 191q-62 -115 -351 -191l-15 68q130 29 202.5 72.5t99 80.5t29.5 50v25h-305v58h686v-58h-309v-25q1 -13 28.5 -50t99 -80.5t202.5 -72.5zM72 252l-12 72q248 49 332 158.5t85 196.5h-369v64h408
q39 0 39 -43q0 -97 -51 -192q-100 -197 -432 -256z" />
    <glyph glyph-name="uniAC87" unicode="&#xac87;" 
 />
    <glyph glyph-name="uniAC88" unicode="&#xac88;" 
 />
    <glyph glyph-name="uniAC89" unicode="&#xac89;" 
d="M884 287h-76v185h-201v62h201v266h76v-513zM82 271l-11 72q242 46 328 148t88 185h-368v64h408q15 0 27 -11t12 -31l-1 -22q-4 -78 -51 -162q-99 -187 -432 -243zM885 -186h-637q-16 0 -27 10.5t-11 25.5v316q0 15 11 26t27 11h636v-59h-599v-106h598v-58h-598v-107h600
v-59z" />
    <glyph glyph-name="uniAC8A" unicode="&#xac8a;" 
d="M72 269l-11 72q242 45 327 146t89 184h-368v63h408q15 0 27 -10.5t12 -31.5q0 -92 -52 -182q-101 -185 -432 -241zM874 246h-76v226h-201v62h201v266h76v-554zM687 -124v219h-315v-219h315zM895 -186h-732v62h134v219h-116v63h697v-63h-115v-219h132v-62z" />
    <glyph glyph-name="uniAC8B" unicode="&#xac8b;" 
d="M553 -133q112 0 173 35.5t61 58.5q0 24 -61 59t-173 35q-111 0 -172 -35t-61 -59q0 -23 61 -58.5t172 -35.5zM553 -190q-130 0 -216 44t-86 107q0 86 199 144h-263v58h732v-58h-263q200 -58 200 -144q0 -63 -86 -107t-217 -44zM721 230h-335v60h335v-60zM48 276l-11 72
q242 46 328 148t88 184h-369v64h409q15 0 27 -11t12 -30l-1 -22q-4 -77 -51 -163q-101 -187 -432 -242zM850 313h-76v192h-201v63h201v236h76v-491z" />
    <glyph glyph-name="uniAC8C" unicode="&#xac8c;" 
d="M910 -186h-72v987h72v-987zM707 -137h-72v488h-204q-107 -268 -363 -341l-21 72q235 64 323 322q40 131 40 228h-316v63h354q38 0 38 -45q0 -105 -32 -236h181v364h72v-915z" />
    <glyph glyph-name="uniAC8D" unicode="&#xac8d;" 
 />
    <glyph glyph-name="uniAC8E" unicode="&#xac8e;" 
 />
    <glyph glyph-name="uniAC8F" unicode="&#xac8f;" 
 />
    <glyph glyph-name="uniAC90" unicode="&#xac90;" 
d="M697 102h-76v306h-229q-82 -137 -335 -201l-15 72q216 52 287.5 170.5t71.5 209.5h-315v63h354q16 0 27.5 -10.5t11.5 -30.5q0 -95 -49 -209h191v305h76v-675zM904 92h-76v703h76v-703zM913 -180h-646q-16 0 -26.5 11t-10.5 26v249h75v-222h608v-64z" />
    <glyph glyph-name="uniAC91" unicode="&#xac91;" 
 />
    <glyph glyph-name="uniAC92" unicode="&#xac92;" 
 />
    <glyph glyph-name="uniAC93" unicode="&#xac93;" 
 />
    <glyph glyph-name="uniAC94" unicode="&#xac94;" 
d="M913 -186h-649q-16 0 -27 10.5t-11 25.5v156q0 15 11 26t27 11h567v110h-604v59h642q16 0 27 -10.5t11 -25.5v-156q0 -15 -11 -26t-27 -11h-567v-111h611v-58zM905 291h-76v510h76v-510zM58 258l-14 72q211 47 284 153.5t74 192.5h-315v64h354q15 0 26.5 -11t11.5 -30
q0 -68 -28 -154h172v239h76v-483h-76v182h-204q-68 -152 -361 -225z" />
    <glyph glyph-name="uniAC95" unicode="&#xac95;" 
 />
    <glyph glyph-name="uniAC96" unicode="&#xac96;" 
 />
    <glyph glyph-name="uniAC97" unicode="&#xac97;" 
 />
    <glyph glyph-name="uniAC98" unicode="&#xac98;" 
 />
    <glyph glyph-name="uniAC99" unicode="&#xac99;" 
 />
    <glyph glyph-name="uniAC9A" unicode="&#xac9a;" 
 />
    <glyph glyph-name="uniAC9B" unicode="&#xac9b;" 
 />
    <glyph glyph-name="uniAC9C" unicode="&#xac9c;" 
d="M62 223l-15 72q237 47 322 226q34 75 36 144h-314v64h354q14 0 26 -11t12 -27q0 -67 -26 -155h169v249h76v-544h-76v233h-197q-94 -193 -367 -251zM833 -122v202h-528v-202h528zM871 -185h-604q-16 0 -27 10.5t-11 25.5v256q0 16 11 26.5t27 10.5h604q16 0 27 -10.5
t11 -26.5v-256q0 -15 -11 -25.5t-27 -10.5zM909 232h-76v569h76v-569z" />
    <glyph glyph-name="uniAC9D" unicode="&#xac9d;" 
d="M62 258l-14 72q238 44 322 213q33 67 35 134h-314v64h354q34 0 39 -42q0 -74 -36 -167h179v253h76v-509h-76v192h-213q-75 -142 -352 -210zM833 -122v141h-527v-141h527zM871 -185h-603q-16 0 -27 10.5t-11 25.5v333h76v-101h527v101h76v-333q0 -15 -11 -25.5t-27 -10.5z
M909 265h-76v536h76v-536z" />
    <glyph glyph-name="uniAC9E" unicode="&#xac9e;" 
 />
    <glyph glyph-name="uniAC9F" unicode="&#xac9f;" 
d="M896 -188q-296 88 -360 221q-62 -133 -359 -221l-17 68q241 60 313 182q27 45 28 59v44h72v-44q0 -14 27 -59t100.5 -96.5t211.5 -85.5zM908 159h-76v644h76v-644zM60 182l-15 73q218 57 289 185.5t71 225.5h-316v64h354q39 0 39 -45q0 -76 -30 -175h173v275h76v-567h-76
v229h-201q-96 -202 -364 -265z" />
    <glyph glyph-name="uniACA0" unicode="&#xaca0;" 
d="M30 216l-15 71q237 49 322 232q34 78 37 149h-315v63h354q16 0 27 -10.5t11 -28.5q0 -83 -34 -181h177v275h76v-524h-76v186h-210q-72 -157 -354 -232zM877 251h-76v553h76v-553zM543 -188l-11 27q-125 69 -172 165q-48 -119 -195 -192l-28 61q132 60 172 187
q14 46 14 57v51h70v-51q0 -10 12 -48q35 -105 158 -170q60 42 89 89q49 77 50 129v51h69q0 -57 16 -108q12 -41 49.5 -90t106.5 -83l-29 -60q-131 67 -177 173q-49 -117 -194 -188z" />
    <glyph glyph-name="uniACA1" unicode="&#xaca1;" 
d="M565 -126q130 0 208.5 43t78.5 80q0 36 -78.5 79.5t-208.5 43.5q-131 0 -209 -43.5t-78 -79.5q0 -37 78 -80t209 -43zM565 -186q-155 0 -257.5 52.5t-102.5 130.5q0 77 102.5 130t257.5 53q154 0 256.5 -53t102.5 -130q0 -78 -102.5 -130.5t-256.5 -52.5zM47 223l-15 72
q237 47 322 226q34 75 36 144h-314v64h354q14 0 26 -11t12 -27q0 -75 -30 -167h173v260h76v-523h-76v199h-204q-68 -159 -360 -237zM894 231h-76v570h76v-570z" />
    <glyph glyph-name="uniACA2" unicode="&#xaca2;" 
 />
    <glyph glyph-name="uniACA3" unicode="&#xaca3;" 
 />
    <glyph glyph-name="uniACA4" unicode="&#xaca4;" 
 />
    <glyph glyph-name="uniACA5" unicode="&#xaca5;" 
 />
    <glyph glyph-name="uniACA6" unicode="&#xaca6;" 
 />
    <glyph glyph-name="uniACA7" unicode="&#xaca7;" 
 />
    <glyph glyph-name="uniACA8" unicode="&#xaca8;" 
d="M86 8l-18 73q169 46 257.5 150t118.5 214.5t30 185.5h-356v63h395q37 0 37 -44q0 -131 -47 -269q-113 -295 -417 -373zM888 -186h-76v398h-213v63h213v194h-213v63h213v269h76v-987z" />
    <glyph glyph-name="uniACA9" unicode="&#xaca9;" 
d="M890 232h-76v133h-205v63h205v139h-205v63h205v171h76v-569zM79 241l-12 72q278 45 376 219q36 68 42 137h-370v63h408q39 0 39 -43q0 -98 -51 -191q-101 -198 -432 -257zM890 -186h-76v268h-605v62h643q16 0 27 -10t11 -26v-294z" />
    <glyph glyph-name="uniACAA" unicode="&#xacaa;" 
d="M510 -186h-76v267h-236v63h274q16 0 27 -10.5t11 -25.5v-294zM890 -186h-76v267h-250v63h288q16 0 27 -10.5t11 -25.5v-294zM890 231h-76v133h-205v62h205v140h-205v63h205v171h76v-569zM79 239l-12 73q278 45 376 219q36 68 40 136h-368v64h408q39 0 39 -43
q0 -98 -51 -191q-101 -198 -432 -258z" />
    <glyph glyph-name="uniACAB" unicode="&#xacab;" 
 />
    <glyph glyph-name="uniACAC" unicode="&#xacac;" 
d="M894 -180h-645q-16 0 -27 11t-11 26v250h75v-223h608v-64zM74 221l-12 72q249 50 333 163.5t84 202.5h-369v64h409q34 0 38 -43q0 -101 -51 -196q-99 -201 -432 -263zM885 93h-76v216h-205v64h205v139h-205v63h205v220h76v-702z" />
    <glyph glyph-name="uniACAD" unicode="&#xacad;" 
 />
    <glyph glyph-name="uniACAE" unicode="&#xacae;" 
 />
    <glyph glyph-name="uniACAF" unicode="&#xacaf;" 
d="M895 -186h-644q-16 0 -27 10.5t-11 25.5v258q0 15 11 25.5t27 10.5h635v-59h-597v-212h606v-59zM884 232h-76v126h-205v64h205v138h-205v64h205v177h76v-569zM73 238l-12 73q278 46 376 220q36 68 42 136h-370v64h408q35 0 39 -42q0 -98 -51 -193q-101 -198 -432 -258z
" />
    <glyph glyph-name="uniACB0" unicode="&#xacb0;" 
d="M886 291h-76v97h-205v63h205v134h-205v64h205v151h76v-509zM74 272l-11 72q242 46 328 147.5t88 184.5h-368v64h408q15 0 27 -11t12 -31l-1 -22q-4 -78 -51 -162q-101 -187 -432 -242zM893 -186h-648q-15 0 -26.5 10t-11.5 26v155q0 15 11.5 26t26.5 11h567v109h-605v61
h642q16 0 27 -10.5t11 -25.5v-157q0 -15 -11 -26t-27 -11h-566v-108h610v-60z" />
    <glyph glyph-name="uniACB1" unicode="&#xacb1;" 
 />
    <glyph glyph-name="uniACB2" unicode="&#xacb2;" 
 />
    <glyph glyph-name="uniACB3" unicode="&#xacb3;" 
 />
    <glyph glyph-name="uniACB4" unicode="&#xacb4;" 
 />
    <glyph glyph-name="uniACB5" unicode="&#xacb5;" 
 />
    <glyph glyph-name="uniACB6" unicode="&#xacb6;" 
 />
    <glyph glyph-name="uniACB7" unicode="&#xacb7;" 
d="M906 102h-379v54h379v-54zM62 279l-12 72q244 46 329.5 148.5t86.5 186.5h-368v64h408q15 0 27 -11t12 -31l-1 -22q-4 -79 -51 -163q-101 -188 -431 -244zM840 221h-245v58h245v-58zM480 -179h-275q-15 0 -26 10t-11 26v155q0 15 11 26t26 11h195v111h-232v59h270
q16 0 27 -10.5t11 -25.5v-156q0 -15 -11 -26t-27 -11h-195v-111h237v-58zM873 350h-76v79h-205v64h205v124h-205v63h205v128h76v-458zM719 -137q44 0 73.5 22.5t29.5 43.5q0 20 -29.5 42.5t-73.5 22.5q-43 0 -72.5 -22.5t-29.5 -42.5q0 -21 29.5 -43.5t72.5 -22.5zM719 -194
q-72 0 -121.5 35.5t-49.5 87.5q0 51 49.5 86.5t121.5 35.5q73 0 122.5 -35.5t49.5 -86.5q0 -52 -49.5 -87.5t-122.5 -35.5z" />
    <glyph glyph-name="uniACB8" unicode="&#xacb8;" 
d="M814 -123v203h-528v-203h528zM852 -186h-604q-16 0 -27 10.5t-11 25.5v257q0 15 11 25.5t27 10.5h604q16 0 27 -10.5t11 -25.5v-257q0 -15 -11 -25.5t-27 -10.5zM79 239l-12 73q278 45 376 219q36 68 42 136h-370v64h408q39 0 39 -43q0 -97 -51 -192q-101 -197 -432 -257
zM890 231h-76v127h-205v64h205v138h-205v64h205v176h76v-569z" />
    <glyph glyph-name="uniACB9" unicode="&#xacb9;" 
d="M814 -123v140h-528v-140h528zM852 -186h-604q-15 0 -26.5 10.5t-11.5 25.5v333h76v-102h528v102h76v-333q0 -15 -11 -25.5t-27 -10.5zM78 273l-11 72q242 46 328 148t88 185h-368v64h408q15 0 27 -11t12 -31l-1 -22q-4 -78 -51 -162q-99 -187 -432 -243zM890 264h-76v104
h-205v64h205v138h-205v64h205v166h76v-536z" />
    <glyph glyph-name="uniACBA" unicode="&#xacba;" 
 />
    <glyph glyph-name="uniACBB" unicode="&#xacbb;" 
d="M893 -188q-295 88 -359 220q-62 -132 -359 -220l-17 68q239 59 313 181q26 45 28 60v44h72v-44q0 -15 26.5 -59.5t100.5 -96t212 -85.5zM59 189l-13 72q277 50 376 242q40 83 42 155h-369v64h408q16 0 27.5 -11t11.5 -33q0 -107 -51 -207q-99 -215 -432 -282zM870 159
h-76v189h-205v62h205v140h-205v63h205v190h76v-644z" />
    <glyph glyph-name="uniACBC" unicode="&#xacbc;" 
d="M558 -189l-11 27q-125 69 -172 166q-49 -120 -197 -193l-26 62q131 58 171 186q15 45 15 58v51h70v-51q0 -11 12 -49q35 -106 159 -169q99 70 128 171q10 36 10 47v51h69q0 -197 170 -281l-29 -62q-129 68 -176 175q-50 -119 -193 -189zM65 229l-12 73q278 46 376 225
q38 71 41 140h-369v64h409q38 0 38 -43q0 -101 -51 -196q-99 -201 -432 -263zM876 251h-76v126h-205v63h205v140h-205v62h205v161h76v-552z" />
    <glyph glyph-name="uniACBD" unicode="&#xacbd;" 
d="M872 231h-76v129h-205v64h205v139h-205v63h205v175h76v-570zM548 -126q130 0 208.5 43.5t78.5 78.5q0 37 -78.5 80.5t-208.5 43.5t-208.5 -43.5t-78.5 -80.5q0 -35 78.5 -78.5t208.5 -43.5zM548 -186q-154 0 -256.5 53t-102.5 129q0 78 102.5 131t256.5 53
q155 0 257.5 -53t102.5 -131q0 -76 -102.5 -129t-257.5 -53zM61 239l-12 73q248 50 332 159.5t85 195.5h-369v64h408q39 0 39 -42q0 -97 -51 -192q-99 -196 -432 -258z" />
    <glyph glyph-name="uniACBE" unicode="&#xacbe;" 
 />
    <glyph glyph-name="uniACBF" unicode="&#xacbf;" 
 />
    <glyph glyph-name="uniACC0" unicode="&#xacc0;" 
 />
    <glyph glyph-name="uniACC1" unicode="&#xacc1;" 
d="M888 287h-76v95h-205v63h205v139h-205v63h205v153h76v-513zM76 270l-11 72q242 47 328 149t88 185h-368v64h408q15 0 27 -11t12 -31l-1 -22q-4 -78 -51 -162q-99 -187 -432 -244zM890 -186h-638q-16 0 -27 10.5t-11 25.5v316q0 15 11 26t27 11h636v-59h-599v-106h598v-58
h-598v-108h601v-58z" />
    <glyph glyph-name="uniACC2" unicode="&#xacc2;" 
 />
    <glyph glyph-name="uniACC3" unicode="&#xacc3;" 
 />
    <glyph glyph-name="uniACC4" unicode="&#xacc4;" 
d="M912 -186h-75v987h75v-987zM710 -138h-76v350h-192v63h192v193h-170q-84 -369 -399 -459l-21 72q235 64 323 323q40 131 40 228h-316v63h354q38 0 38 -45q0 -53 -8 -119h159v245h76v-914z" />
    <glyph glyph-name="uniACC5" unicode="&#xacc5;" 
 />
    <glyph glyph-name="uniACC6" unicode="&#xacc6;" 
 />
    <glyph glyph-name="uniACC7" unicode="&#xacc7;" 
 />
    <glyph glyph-name="uniACC8" unicode="&#xacc8;" 
d="M701 102h-76v216h-181v64h181v140h-177q-8 -23 -17 -42q-85 -209 -376 -274l-15 73q214 51 286.5 170t72.5 210h-315v64h354q14 0 25 -10t13 -25q0 -48 -10 -104h159v194h76v-676zM915 -180h-645q-16 0 -27 11t-11 26v250h76v-223h607v-64zM907 93h-75v702h75v-702z" />
    <glyph glyph-name="uniACC9" unicode="&#xacc9;" 
 />
    <glyph glyph-name="uniACCA" unicode="&#xacca;" 
 />
    <glyph glyph-name="uniACCB" unicode="&#xaccb;" 
 />
    <glyph glyph-name="uniACCC" unicode="&#xaccc;" 
d="M907 292h-75v509h75v-509zM55 259l-14 71q211 48 284 154.5t74 191.5h-315v64h354q38 0 38 -48q0 -15 -4 -47h153v139h75v-482h-75v87h-180v63h180v129h-165q-12 -36 -28 -70q-89 -195 -377 -252zM914 -186h-647q-16 0 -27 10.5t-11 25.5v154q0 15 11 26t27 11h566v113
h-604v59h642q15 0 26 -10.5t11 -25.5v-158q0 -16 -11 -26.5t-26 -10.5h-567v-109h610v-59z" />
    <glyph glyph-name="uniACCD" unicode="&#xaccd;" 
 />
    <glyph glyph-name="uniACCE" unicode="&#xacce;" 
 />
    <glyph glyph-name="uniACCF" unicode="&#xaccf;" 
 />
    <glyph glyph-name="uniACD0" unicode="&#xacd0;" 
 />
    <glyph glyph-name="uniACD1" unicode="&#xacd1;" 
 />
    <glyph glyph-name="uniACD2" unicode="&#xacd2;" 
 />
    <glyph glyph-name="uniACD3" unicode="&#xacd3;" 
 />
    <glyph glyph-name="uniACD4" unicode="&#xacd4;" 
 />
    <glyph glyph-name="uniACD5" unicode="&#xacd5;" 
d="M911 264h-75v536h75v-536zM836 -123v140h-529v-140h529zM874 -186h-605q-15 0 -26 10.5t-11 25.5v333h75v-102h529v102h75v-333q0 -15 -11 -25.5t-26 -10.5zM59 257l-14 72q238 43 322 213q33 67 36 133h-315v64h354q15 0 26 -10t11.5 -22.5t0.5 -21.5q0 -19 -6 -57h155
v155h75v-509h-75v94h-180v64h180v134h-170q-10 -29 -24 -56q-87 -195 -376 -253z" />
    <glyph glyph-name="uniACD6" unicode="&#xacd6;" 
 />
    <glyph glyph-name="uniACD7" unicode="&#xacd7;" 
d="M897 -188q-297 88 -359 220q-63 -132 -359 -220l-17 67q239 60 311 182q27 45 28 60v44h73v-45q1 -14 27.5 -58.5t100.5 -96.5t212 -86zM908 159h-75v644h75v-644zM56 182l-15 73q218 56 289 184.5t71 226.5h-316v64h354q38 0 38 -51q0 -31 -6 -72h155v178h76v-568h-76
v135h-180v63h180v129h-168q-10 -35 -25 -70q-89 -224 -377 -292z" />
    <glyph glyph-name="uniACD8" unicode="&#xacd8;" 
 />
    <glyph glyph-name="uniACD9" unicode="&#xacd9;" 
 />
    <glyph glyph-name="uniACDA" unicode="&#xacda;" 
 />
    <glyph glyph-name="uniACDB" unicode="&#xacdb;" 
 />
    <glyph glyph-name="uniACDC" unicode="&#xacdc;" 
 />
    <glyph glyph-name="uniACDD" unicode="&#xacdd;" 
 />
    <glyph glyph-name="uniACDE" unicode="&#xacde;" 
 />
    <glyph glyph-name="uniACDF" unicode="&#xacdf;" 
 />
    <glyph glyph-name="uniACE0" unicode="&#xace0;" 
d="M973 -82h-925v63h365v394h76v-394h484v-63zM799 138l-69 13q6 36 14.5 123.5t15.5 186t10 168.5h-603v68h640q14 0 24.5 -10.5t10.5 -23.5q-21 -437 -43 -525z" />
    <glyph glyph-name="uniACE1" unicode="&#xace1;" 
d="M973 269h-925v64h376v233h76v-233h473v-64zM860 -182h-75v267h-600v64h637q16 0 27 -11t11 -26v-294zM811 431l-69 13l4 23q24 87 36 269h-585v59h622q15 0 25 -9.5t10 -22.5q0 -15 -6 -88q-15 -163 -37 -244z" />
    <glyph glyph-name="uniACE2" unicode="&#xace2;" 
 />
    <glyph glyph-name="uniACE3" unicode="&#xace3;" 
 />
    <glyph glyph-name="uniACE4" unicode="&#xace4;" 
d="M973 237h-925v63h376v248h76v-248h473v-63zM875 -176h-639q-16 0 -27 10.5t-11 25.5v244h76v-217h601v-63zM809 410l-68 13q25 99 40 310h-585v59h622q14 0 24.5 -10t10.5 -23t-6 -92q-15 -175 -38 -257z" />
    <glyph glyph-name="uniACE5" unicode="&#xace5;" 
 />
    <glyph glyph-name="uniACE6" unicode="&#xace6;" 
 />
    <glyph glyph-name="uniACE7" unicode="&#xace7;" 
d="M866 -182h-641q-16 0 -27 11t-11 26v256q0 15 11 26t27 11h633v-59h-595v-213h603v-58zM973 269h-925v63h379v233h76v-233h470v-63zM810 433l-69 13l5 22q23 87 35 270h-585v59h623q15 0 25 -10.5t10 -24.5q0 -26 -5.5 -86.5t-16 -128t-22.5 -114.5z" />
    <glyph glyph-name="uniACE8" unicode="&#xace8;" 
d="M973 315h-925v64h382v206h75v-206h468v-64zM865 -187h-630q-16 0 -27 11t-11 26v156q0 15 11 26t27 11h548v115h-596v60h634q16 0 27 -11t11 -26v-160q0 -16 -11 -26.5t-27 -10.5h-548v-111h592v-60zM808 475l-69 14l12 46q24 93 28 206h-585v60h623q15 0 25 -10.5
t10 -23.5q0 -39 -12.5 -129t-31.5 -163z" />
    <glyph glyph-name="uniACE9" unicode="&#xace9;" 
 />
    <glyph glyph-name="uniACEA" unicode="&#xacea;" 
d="M973 307h-925v64h394v212h76v-212h455v-64zM783 -128v282h-153v-282h153zM821 -187h-229q-16 0 -27 11t-11 26v327q0 15 11 25.5t27 10.5h229q16 0 27 -10.5t11 -25.5v-327q0 -15 -11 -26t-27 -11zM501 -187h-269q-16 0 -27 11t-11 26v156q0 15 11 26t27 11h192v111h-232
v58h267q15 0 26 -10.5t11 -26.5v-155q0 -15 -11 -26t-26 -11h-193v-111h235v-59zM809 464l-68 13l9 41q26 101 31 225h-585v59h622q15 0 25.5 -10.5t10.5 -24.5q-1 -41 -13 -135t-32 -168z" />
    <glyph glyph-name="uniACEB" unicode="&#xaceb;" 
 />
    <glyph glyph-name="uniACEC" unicode="&#xacec;" 
d="M494 -185h-267q-15 0 -26.5 11t-11.5 26v156q0 15 11.5 25.5t26.5 10.5h187v112h-227v58h265q17 0 27.5 -11t10.5 -26v-155q0 -15 -10.5 -26t-27.5 -11h-187v-111h229v-59zM973 309h-925v64h394v212h76v-212h455v-64zM892 -189q-114 72 -161 194q-47 -122 -161 -194
l-36 60q115 69 149 218q11 52 11 62v68h73v-68q0 -10 12 -62.5t47.5 -115.5t100.5 -102zM809 466l-67 13l8 41q26 100 32 224h-585v59h622q15 0 25 -10.5t10 -23.5q0 -32 -12 -136q-12 -94 -33 -167z" />
    <glyph glyph-name="uniACED" unicode="&#xaced;" 
 />
    <glyph glyph-name="uniACEE" unicode="&#xacee;" 
 />
    <glyph glyph-name="uniACEF" unicode="&#xacef;" 
d="M489 -179h-266q-16 0 -27 10.5t-11 25.5v156q0 15 11 26t27 11h185v111h-222v58h260q16 0 27 -10.5t11 -25.5v-156q0 -15 -11 -26t-27 -11h-185v-111h228v-58zM724 -136q44 0 70 22t26 43q0 20 -26 43t-70 23q-43 0 -72.5 -23t-29.5 -43q0 -21 29.5 -43t72.5 -22z
M724 -193q-72 0 -121 35.5t-49 86.5t49 86.5t121 35.5t118 -35t46 -87t-46 -87t-118 -35zM973 356h-925v63h392v185h75v-185h458v-63zM905 103h-372v53h372v-53zM837 223h-237v54h237v-54zM809 506l-68 14l13 50q22 69 27 180h-586v60h623q14 0 24.5 -10.5t10.5 -23.5
q0 -38 -12 -118.5t-32 -151.5z" />
    <glyph glyph-name="uniACF0" unicode="&#xacf0;" 
d="M785 -118v202h-516v-202h516zM822 -181h-590q-16 0 -27 10.5t-11 26.5v255q0 15 11 26t27 11h590q16 0 27 -11t11 -26v-255q0 -16 -11 -26.5t-27 -10.5zM973 269h-925v64h376v233h76v-233h473v-64zM810 444l-68 13l7 33q22 78 33 246h-585v59h622q15 0 25.5 -11t10.5 -25
q-1 -25 -6.5 -82t-15 -121.5t-23.5 -111.5z" />
    <glyph glyph-name="uniACF1" unicode="&#xacf1;" 
d="M785 -123v141h-513v-141h513zM822 -185h-588q-16 0 -27 10t-11 27v331h76v-101h513v101h75v-331q0 -17 -11 -27t-27 -10zM973 296h-925v63h376v223h76v-223h473v-63zM813 475l-69 14l11 46q24 93 29 206h-585v60h622q15 0 25 -10.5t10 -22.5q0 -32 -12 -131
q-12 -89 -31 -162z" />
    <glyph glyph-name="uniACF2" unicode="&#xacf2;" 
 />
    <glyph glyph-name="uniACF3" unicode="&#xacf3;" 
d="M973 265h-925v64h389v234h76v-234h460v-64zM881 -178q-279 66 -378 217q-98 -151 -378 -217l-16 69q252 59 328 178q29 43 30 58v43h73v-43q1 -14 29 -58t105.5 -94t222.5 -84zM808 439l-68 13l6 32q23 81 34 248h-586v61h623q14 0 24.5 -10.5t10.5 -23.5t-6 -84
q-15 -155 -38 -236z" />
    <glyph glyph-name="uniACF4" unicode="&#xacf4;" 
 />
    <glyph glyph-name="uniACF5" unicode="&#xacf5;" 
d="M508 -145q136 0 218 43.5t82 79.5q0 37 -82 80.5t-218 43.5q-137 0 -219 -43.5t-82 -80.5q0 -36 82 -79.5t219 -43.5zM508 -205q-161 0 -267 53.5t-106 129.5q0 77 106 130.5t267 53.5t266.5 -53.5t105.5 -130.5q0 -76 -105.5 -129.5t-266.5 -53.5zM973 253h-925v64h379
v229h76v-229h470v-64zM808 422l-68 13l7 33q22 80 33 244h-585v63h622q15 0 25 -10t10 -23q0 -24 -5 -86q-14 -146 -39 -234z" />
    <glyph glyph-name="uniACF6" unicode="&#xacf6;" 
d="M869 -187q-279 76 -340 190q-62 -114 -341 -190l-15 68q125 29 195.5 72t96.5 80.5t28 51.5v24h-301v59h674v-59h-301v-25q1 -12 27.5 -49.5t96 -80.5t196.5 -73zM973 275h-925v64h384v232h76v-232h465v-64zM808 448l-68 14l7 33q22 79 33 244h-585v62h622q15 0 25.5 -11
t10.5 -25q-1 -25 -6.5 -82.5t-15.5 -122.5t-23 -112z" />
    <glyph glyph-name="uniACF7" unicode="&#xacf7;" 
 />
    <glyph glyph-name="uniACF8" unicode="&#xacf8;" 
 />
    <glyph glyph-name="uniACF9" unicode="&#xacf9;" 
 />
    <glyph glyph-name="uniACFA" unicode="&#xacfa;" 
 />
    <glyph glyph-name="uniACFB" unicode="&#xacfb;" 
 />
    <glyph glyph-name="uniACFC" unicode="&#xacfc;" 
d="M38 -40l-8 64l189 19v345h76v-336l398 42l8 -64zM824 -186h-75v988h75v-389h166v-63h-166v-536zM517 198l-69 13q11 56 23 186t18 239h-384v62h421q14 0 24.5 -10t10.5 -23q-21 -380 -44 -467z" />
    <glyph glyph-name="uniACFD" unicode="&#xacfd;" 
d="M835 207h-76v595h76v-281h154v-63h-154v-251zM836 -186h-75v257h-591v64h628q16 0 27 -11t11 -26v-284zM40 207l-8 64l193 21v235h76v-228l394 42l8 -62zM520 404l-68 14q25 105 32 259h-377v61h415q13 0 23.5 -9.5t10.5 -24.5q-5 -185 -36 -300z" />
    <glyph glyph-name="uniACFE" unicode="&#xacfe;" 
 />
    <glyph glyph-name="uniACFF" unicode="&#xacff;" 
 />
    <glyph glyph-name="uniAD00" unicode="&#xad00;" 
d="M835 70h-76v725h76v-316h154v-62h-154v-347zM854 -181h-635q-16 0 -27 11t-11 26v231h75v-204h598v-64zM41 177l-9 64l194 21v250h76v-241l393 43l8 -63zM521 380l-68 13q24 117 32 278h-377v62h414q14 0 24.5 -10t10.5 -23q0 -25 -3 -85q-12 -163 -33 -235z" />
    <glyph glyph-name="uniAD01" unicode="&#xad01;" 
 />
    <glyph glyph-name="uniAD02" unicode="&#xad02;" 
 />
    <glyph glyph-name="uniAD03" unicode="&#xad03;" 
 />
    <glyph glyph-name="uniAD04" unicode="&#xad04;" 
d="M835 270h-76v532h76v-243h154v-63h-154v-226zM38 272l-6 64l193 17v208h76v-201l394 36l7 -63zM842 -186h-633q-16 0 -27 11t-11 26v148q0 15 11 26t27 11h552v113h-590v59h627q16 0 27 -10.5t11 -25.5v-158q0 -15 -11 -26t-27 -11h-551v-104h595v-59zM520 458l-68 13
l10 44q17 50 22 168h-376v58h414q15 0 25 -10t10 -23q0 -121 -37 -250z" />
    <glyph glyph-name="uniAD05" unicode="&#xad05;" 
 />
    <glyph glyph-name="uniAD06" unicode="&#xad06;" 
d="M759 -128v273h-153v-273h153zM797 -186h-229q-15 0 -26.5 11t-11.5 26v316q0 16 11.5 26.5t26.5 10.5h229q16 0 27 -10.5t11 -26.5v-316q0 -15 -11 -26t-27 -11zM38 266l-6 63l193 19v214h76v-208l394 37l7 -64zM477 -186h-276q-16 0 -27 11t-11 26v150q0 16 11 26.5
t27 10.5h199v107h-238v58h273q15 0 26 -11t11 -26v-150q0 -15 -11 -26t-26 -11h-200v-106h242v-59zM835 272h-76v530h76v-246h154v-62h-154v-222zM520 456l-68 13l11 44q17 57 22 168h-377v59h414q15 0 25 -10.5t10 -23.5q0 -118 -37 -250z" />
    </font>
</defs>
</svg>
